<?xml version="1.0" encoding="utf-8"?>
<!-- Generator: Adobe Illustrator 16.0.0, SVG Export Plug-In . SVG Version: 6.00 Build 0)  -->
<!DOCTYPE svg PUBLIC "-//W3C//DTD SVG 1.1//EN" "http://www.w3.org/Graphics/SVG/1.1/DTD/svg11.dtd">
<svg version="1.1" id="Layer_1" xmlns="http://www.w3.org/2000/svg" xmlns:xlink="http://www.w3.org/1999/xlink" x="0px" y="0px"
	 width="209.271px" height="159.755px" viewBox="33.723 31.755 209.271 159.755"
	 enable-background="new 33.723 31.755 209.271 159.755" xml:space="preserve">
<g>
	<path d="M121.767,191.51c-2.689,0-5.063-0.275-6.684-0.775c-0.476-0.146-0.775-0.617-0.706-1.11
		c0.124-0.875,0.625-1.771,1.206-2.806c0.423-0.754,0.861-1.532,1.196-2.377c0.112-0.282,0.345-0.502,0.635-0.594
		c0.571-0.182,0.677-0.483,0.711-0.584c0.132-0.379-0.005-0.82-0.107-0.974c-0.295-0.438-0.577-0.55-0.935-0.69
		c-0.449-0.176-1.285-0.504-1.381-1.627c-0.009-0.104-0.002-0.209,0.021-0.311c0.238-1.051-1.78-5.213-5.792-8.863
		c-7.61-6.931-9.146-7.613-11.271-8.56c-0.383-0.171-0.786-0.351-1.24-0.568c-5.931-2.858-6.826-3.95-5.637-6.871
		c0.415-1.019,0.931-2.284,0.694-4.483c-0.614-3.025-1.829-5.616-3.27-8.004l1.779,7.088c0.059,0.234,0.032,0.483-0.078,0.701
		c-1.25,2.489-3.661,3.633-6.214,4.844c-3.298,1.562-6.708,3.181-8.563,7.904c-3.837,9.764-1.795,15.773-0.617,17.385
		c3.107,2.684,5.018,7.656,4.531,10.033c-0.086,0.424-0.432,0.746-0.86,0.803c-1.544,0.205-2.969,0.301-4.486,0.301
		c-1.936,0-3.891-0.154-6.366-0.35c-0.699-0.057-1.442-0.114-2.241-0.174c-0.332-0.025-0.63-0.211-0.799-0.496
		c-0.168-0.287-0.186-0.639-0.047-0.939l2.75-5.973c0.17-0.369,0.545-0.611,0.951-0.59c0.118,0,0.213-0.009,0.27-0.018
		c-0.024-0.141-0.117-0.395-0.34-0.691c-0.305-0.406-0.716-0.701-1.023-0.738c-0.208-0.022-0.402-0.11-0.559-0.25
		c-1.681-1.502-1.355-2.517-0.711-3.784c0.386-0.761,0.916-1.804,1.121-3.738c0.459-4.315,0.33-6.706-1.34-12.36
		c-1.807-6.123-0.491-7.431,2.658-9.803c1.115-0.84,2.503-1.886,4.076-3.508c2.425-2.5,6.761-10.561,9.04-16.111
		c-2.384-3.964-3.664-7.545-4.136-11.547c-1.294-9.668,1.169-16.286,4.921-23.191c-0.078,0.006-0.157,0.005-0.237-0.006
		c-1.262-0.183-2.448-0.276-3.524-0.276c-9.869,0-10.263,7.674-10.679,15.799c-0.146,2.835-0.283,5.514-0.857,7.803
		c-2.59,9.291-12.294,14.291-20.112,14.291c-6.265,0-11.256-2.959-13.694-8.119c-0.186-0.393-0.101-0.857,0.21-1.16
		c0.311-0.303,0.78-0.375,1.166-0.178c2.675,1.356,4.96,2.045,6.793,2.045c1.552,0,2.775-0.483,3.74-1.479
		c3.256-3.363,2.976-11.958,2.771-18.233c-0.103-3.171-0.192-5.909,0.143-7.623c1.925-9.829,8.332-15.242,18.039-15.242
		c6.346,0,13.598,2.406,19.997,6.618c1.209-0.647,4.719-2.502,7.385-3.66c3.517-1.525,7.587-1.72,10.741-1.72
		c1.118,0,2.197,0.026,3.242,0.052c0.932,0.023,1.823,0.045,2.654,0.045h4.413l-3.283-3.276c-0.24-0.239-0.344-0.583-0.279-0.915
		c0.066-0.333,0.293-0.61,0.606-0.74c3.437-1.429,4.204-7.185,5.016-13.279c1.04-7.805,2.215-16.629,9.608-18.792l1.042-2.16
		c0.158-0.328,0.475-0.54,0.826-0.57c-1.696-1.644-1.823-3.766-1.896-4.981c-0.015-0.24-0.025-0.448-0.05-0.614
		c-0.403-2.605,1.606-6.747,4.706-7.983c1.598-0.636,3.609-1.001,5.518-1.001c2.847,0,5.033,0.81,6.154,2.281
		c0.482,0.629,0.165,1.339-0.005,1.72c-0.019,0.043-0.04,0.086-0.059,0.128c0.127,0.304,0.305,0.64,0.491,0.991
		c0.371,0.702,0.756,1.428,0.893,2.181c0.097,0.533-0.2,0.942-0.396,1.213c0.119,0.247,0.301,0.548,0.458,0.805
		c0.442,0.727,1.112,1.825,0.133,2.489c-0.263,0.178-0.548,0.344-0.788,0.475c-0.048,0.892-0.159,2.577-0.354,3.583
		c-0.033,0.17-0.255,1.008-1.394,1.008c-0.16,0-0.346-0.017-0.534-0.036c-0.123-0.013-0.247-0.027-0.358-0.027
		c-0.002,0-0.004,0-0.006,0c-0.501,0.211-0.702,0.387-0.772,0.465c0.056,0.089,0.205,0.259,0.517,0.467
		c0.633,0.062,1.318,0.094,2.04,0.094c3.028,0,6.436-0.538,10.045-1.107c3.968-0.625,8.07-1.273,12.091-1.273
		c1.749,0,3.329,0.121,4.83,0.369c0.678,0.112,1.138,0.33,1.581,0.542c0.615,0.293,1.312,0.624,3.029,0.778l4.943-0.347
		c0.147-0.011,0.295,0.011,0.434,0.064l1.971,0.754c1.631-0.071,3.286-0.184,4.7-0.286c2.543-0.192,5.237-0.442,8.008-0.743
		c5.41-0.59,10.78-1.334,15.961-2.213c5.7-0.968,10.856-2.038,15.765-3.271c5.859-1.479,10.863-3.063,15.295-4.843
		c0.516-0.207,1.1,0.038,1.313,0.548c0.214,0.511-0.021,1.1-0.526,1.322c-4.466,1.959-9.51,3.735-15.423,5.428
		c-4.926,1.404-10.114,2.653-15.864,3.819c-3.742,0.757-7.586,1.448-11.477,2.062c3.744,0.61,6.251,2.902,8.154,4.642
		c0.779,0.713,1.457,1.332,2.039,1.672c-0.28-0.42-0.688-0.943-1.252-1.535c-0.285-0.299-0.36-0.741-0.189-1.118
		c0.17-0.376,0.561-0.609,0.964-0.596c5.526,0.221,9.729,5.614,12.8,9.551c0.361,0.464,0.713,0.915,1.047,1.333
		c0.02-0.026,0.039-0.053,0.058-0.08c0.711-1.009,1.685-2.39,3.974-2.846c0.469-0.093,0.939,0.154,1.129,0.594
		c0.771,1.794,0.473,3.34,0.155,4.978c-0.138,0.711-0.28,1.446-0.348,2.259c-0.308,3.7-0.212,8.308-0.136,12.01l0.008,0.459
		c0.084,3.973-0.617,4.796-1.861,5.908c-0.479,0.429-1.023,0.914-1.634,1.914c-0.858,1.405-1.808,6.692-2.478,13.801
		c-0.045,0.47,0.15,0.879,0.358,1.312c0.258,0.538,0.61,1.275,0.241,2.061c-0.346,0.733-1.154,1.205-2.856,1.651
		c-0.739,0.619-2.505,1.72-4.682,1.72c-1.521,0-2.97-0.521-4.313-1.548c-0.814-0.384-0.927-1.576-1.113-3.583
		c-0.06-0.622-0.149-1.593-0.26-2.068c-0.162-0.052-0.313-0.108-0.457-0.161c-0.287-0.105-0.559-0.206-0.742-0.206
		c-0.058,0-0.162,0-0.354,0.155c-0.223,0.246-0.334,1.513-0.395,2.194c-0.105,1.23-0.207,2.392-0.76,3.137
		c-0.298,0.403-0.762,0.625-1.308,0.625c-0.733,0-1.508-0.386-2.304-0.815c-0.117-0.064-0.219-0.121-0.295-0.157
		c-0.207-0.053-0.396-0.17-0.533-0.339c-0.192-0.234-0.271-0.542-0.212-0.84c1.292-6.554,1.038-15.025,0.165-16.169
		c-0.065-0.041-0.127-0.088-0.182-0.143c-0.283-0.282-0.752-0.342-1.097-0.342c-1.534,0-3.505,1.08-4.394,2.406
		c-0.037,0.056-0.08,0.107-0.127,0.155c-2.033,2.026-1.696,6.96-1.426,10.924c0.092,1.352,0.178,2.628,0.178,3.753
		c0,1.092,0.252,3.041,0.541,5.296c0.933,7.233,2.183,16.952-1.041,21.265c2.227,1.794,5.342,4.438,8.953,8.096
		c2.078,2.104,3.431,2.746,4.996,3.49c0.448,0.215,0.905,0.432,1.391,0.688c6.832,3.603,6.262,7.46,5.539,12.344
		c-0.094,0.63-0.19,1.288-0.278,1.98l0.038,0.785c0.217,4.457,0.725,14.896,2.584,18.2c0.043,0.075,0.074,0.155,0.097,0.238
		c1.085,4.095,1.521,7.403,0.123,10.241c-0.132,0.268-0.374,0.464-0.663,0.535c-0.342,0.086-0.715,0.131-1.109,0.131
		c-3.596,0-9.191-3.83-10.803-6.233c-0.172-0.257-0.218-0.578-0.123-0.872c0.094-0.295,0.317-0.529,0.606-0.641
		c0.056-0.022,1.571-0.655,1.963-2.609c0.062-0.305,0.261-0.564,0.538-0.705c0.357-0.182,0.532-0.32,0.611-0.398
		c-0.164-0.229-0.646-0.601-0.92-0.812c-0.741-0.569-1.508-1.159-1.394-2.075c0.026-0.211,0.119-0.408,0.265-0.563
		c4.553-4.9,2.685-9.386,1.319-12.658c-0.636-1.526-1.138-2.731-0.864-3.767c0.428-1.617,0.078-2.668-3.059-4.262
		c-1.891-0.858-4.501-1.904-7.523-3.113c-1.94-0.777-3.937-1.576-5.959-2.414c-0.207,2.55-0.455,5.979-0.465,7.764
		c0.557,2.541,0.553,4.717,0.551,7.018c-0.004,3.933-0.01,8.385,2.865,16.139c1.036,1.269,2.471,3.104,3.432,4.875
		c1.263,2.129,1.619,3.431,1.176,4.316c-0.244,0.485-0.698,0.787-1.28,0.85c-1.302,0.139-2.875,0.209-4.676,0.209
		c-4.048,0-7.981-0.358-8.021-0.362c-0.551-0.05-0.959-0.532-0.918-1.083c0.022-0.322,0.268-3.209,1.635-4.626
		c0.269-0.278,0.438-0.471,0.545-0.603c-1.122-0.4-1.641-0.896-1.746-1.008c-0.333-0.347-0.377-0.879-0.105-1.274
		c0.024-0.035,2.467-3.668,2.121-7.22c-0.255-2.629-1.443-6.524-3.533-11.578c-0.244-0.588-0.391-1.615-0.61-3.17
		c-0.642-4.5-1.821-12.779-6.761-17.916c-3.551,0.932-7.137,1.619-10.68,2.05c0.031,0.159,0.062,0.31,0.094,0.452
		c0.779,0.436,1.446,0.937,2.096,1.422c1.775,1.332,3.611,2.709,8.164,2.91c0.389,0.018,0.731,0.254,0.887,0.611
		c0.152,0.355,0.091,0.77-0.163,1.063c-1.677,1.948-3.991,2.896-7.073,2.896c-2.808,0-5.802-0.772-8.697-1.521
		c-1.885-0.487-3.666-0.948-5.219-1.142c-0.289-0.035-0.548-0.192-0.711-0.433l-0.66-0.962c-0.248-0.359-0.238-0.836,0.024-1.186
		l1.015-1.348c0.145-0.355,0.283-0.691,0.416-1.01c0.187-0.444,0.354-0.848,0.496-1.219c-4.039-0.026-8.04-0.407-11.905-1.133
		c-0.958,0.703-1.657,1.355-2.161,2.013c0.276,0.891,1.387,3.421,2.099,4.362c0.387,0.513,0.499,1.195,0.292,1.782
		c-0.143,0.406-0.526,0.677-0.957,0.677c-5.318,0-7.451-4.074-9.333-7.67c-1.414-2.701-2.636-5.033-4.897-5.315
		c-0.245-0.03-0.458-0.146-0.614-0.312c-4.252-1.488-7.383-2.791-9.708-3.76l-0.709-0.296c-1.168-0.483-1.903-1.192-2.333-2.026
		c-0.696,4.783-2.072,9.316-4.461,15.217c-1.734,4.283-0.208,10.494,4.413,17.959c4.171,6.738,9.443,12.313,10.96,13.863
		c0.056,0.057,0.104,0.12,0.146,0.189c2.183,3.66,3.209,6.855,3.05,9.499c-0.028,0.461-0.363,0.845-0.816,0.935
		C126.389,191.305,124.077,191.51,121.767,191.51z M116.69,189.049c1.361,0.277,3.145,0.434,5.077,0.432
		c1.858,0,3.709-0.139,5.308-0.395c-0.096-2.064-1.005-4.564-2.71-7.445c-1.658-1.699-6.944-7.332-11.15-14.127
		c-5.047-8.152-6.584-14.811-4.569-19.787c3.713-9.168,4.905-14.927,4.905-23.695c0-0.346,0.175-0.666,0.466-0.854
		c1.404-0.902,2.242-1.271,2.893-1.271c0.486,0,0.898,0.202,1.16,0.571c0.566,0.799,0.188,1.879-0.438,3.668
		c-1.185,3.383-1.967,6.268,0.468,7.275l0.712,0.296c2.457,1.023,5.821,2.425,10.462,4.019c0.068,0.022,0.132,0.054,0.192,0.089
		c2.743,0.788,4.184,3.542,5.583,6.213c1.526,2.915,2.98,5.692,5.966,6.405c-0.89-1.574-1.955-4.058-1.955-4.857
		c0-0.2,0.059-0.396,0.171-0.562c0.707-1.061,1.743-2.049,3.257-3.115c0.226-0.159,0.505-0.219,0.778-0.167
		c4.017,0.782,8.192,1.181,12.41,1.181c0.305,0,0.606-0.003,0.907-0.007c0.306,0.008,0.604,0.134,0.801,0.374
		c0.195,0.24,0.271,0.559,0.203,0.859c-0.194,0.877-0.565,1.769-0.997,2.799c-0.145,0.348-0.298,0.716-0.456,1.109
		c-0.032,0.084-0.077,0.161-0.132,0.232l-0.65,0.863c1.556,0.233,3.237,0.668,5.01,1.125c2.771,0.718,5.64,1.457,8.188,1.457
		c1.488,0,2.717-0.248,3.737-0.769c-3.435-0.562-5.188-1.876-6.769-3.062c-0.724-0.543-1.406-1.055-2.211-1.455
		c-0.267-0.133-0.461-0.374-0.533-0.662c-0.145-0.578-0.275-1.246-0.414-2.104c-0.045-0.274,0.025-0.557,0.193-0.777
		c0.17-0.221,0.422-0.363,0.698-0.394c3.978-0.426,8.021-1.188,12.015-2.266c0.342-0.093,0.713,0.002,0.969,0.25
		c5.777,5.58,7.066,14.629,7.76,19.489c0.171,1.197,0.332,2.328,0.479,2.681c2.166,5.237,3.403,9.329,3.68,12.157
		c0.306,3.152-1.104,6.197-1.922,7.662c0.22,0.097,0.498,0.197,0.842,0.285c0.261,0.066,0.484,0.235,0.621,0.467
		c0.856,1.453-0.043,2.39-0.916,3.295c-0.457,0.475-0.768,1.48-0.936,2.365c1.418,0.104,4.073,0.269,6.779,0.269
		c1.545,0,2.908-0.054,4.059-0.157c-0.091-0.345-0.345-1.011-1.043-2.188c-0.703-1.297-1.789-2.828-3.342-4.721
		c-0.07-0.086-0.127-0.184-0.166-0.287c-3.062-8.194-3.059-12.877-3.053-17.008c0.003-2.314,0.005-4.314-0.526-6.685
		c-0.017-0.072-0.024-0.146-0.024-0.222c0-2.162,0.367-6.838,0.586-9.432c0.027-0.324,0.209-0.613,0.486-0.781
		c0.277-0.17,0.619-0.193,0.918-0.067c2.448,1.028,4.873,1.999,7.217,2.938c3.047,1.219,5.679,2.271,7.649,3.168
		c3.13,1.59,5.011,3.312,4.14,6.609c-0.098,0.37,0.388,1.533,0.776,2.467c1.349,3.235,3.571,8.573-1.165,14.206
		c0.114,0.093,0.236,0.187,0.338,0.265c0.826,0.637,1.856,1.429,1.744,2.612c-0.084,0.894-0.81,1.47-1.337,1.786
		c-0.409,1.454-1.25,2.382-1.955,2.936c1.886,1.955,5.994,4.517,8.438,4.516c0.055,0,0.107-0.001,0.158-0.004
		c0.842-2.174,0.44-4.885-0.438-8.235c-2.039-3.813-2.519-13.662-2.776-18.979l-0.043-0.871c-0.003-0.061,0-0.119,0.008-0.178
		c0.092-0.74,0.195-1.442,0.295-2.112c0.721-4.873,1.082-7.319-4.479-10.253c-0.458-0.24-0.892-0.446-1.315-0.648
		c-1.666-0.792-3.238-1.54-5.567-3.896c-4.019-4.069-7.413-6.861-9.616-8.608c-0.234-0.187-0.376-0.469-0.384-0.769
		c-0.009-0.301,0.118-0.59,0.345-0.789c3.41-2.998,2.012-13.866,1.176-20.36c-0.312-2.42-0.558-4.332-0.558-5.555
		c0-1.055-0.085-2.299-0.175-3.615c-0.312-4.563-0.664-9.729,1.947-12.429c1.283-1.843,3.853-3.224,6.022-3.224
		c0.998,0,1.843,0.296,2.451,0.859c2.28,1.698,1.642,12.401,0.792,17.442c0.268,0.143,0.699,0.367,0.998,0.46
		c0.138-0.446,0.21-1.277,0.262-1.866c0.129-1.481,0.251-2.88,1.141-3.597c0.496-0.4,1.045-0.604,1.627-0.604
		c0.547,0,1.023,0.176,1.443,0.331c0.221,0.081,0.428,0.157,0.624,0.202c1.083,0.245,1.206,1.561,1.41,3.741
		c0.065,0.698,0.161,1.717,0.276,2.122c0.998,0.776,2.052,1.169,3.132,1.169c1.749,0,3.185-1.049,3.474-1.331
		c0.129-0.125,0.297-0.222,0.473-0.266c1.059-0.264,1.504-0.472,1.682-0.581c-0.043-0.104-0.107-0.239-0.16-0.348
		c-0.271-0.569-0.646-1.349-0.549-2.379c0.422-4.478,1.342-12.339,2.766-14.667c0.768-1.256,1.487-1.9,2.014-2.37
		c0.834-0.745,1.254-1.119,1.188-4.353l-0.01-0.459c-0.077-3.749-0.174-8.415,0.143-12.22c0.076-0.922,0.236-1.748,0.377-2.477
		c0.219-1.132,0.394-2.026,0.233-2.925c-0.888,0.399-1.353,1.061-1.84,1.752c-0.315,0.448-0.642,0.91-1.077,1.273
		c-0.426,0.355-1.059,0.301-1.419-0.119c-0.582-0.68-1.207-1.481-1.868-2.328c-2.281-2.929-5.246-6.732-8.72-8.181
		c0.456,0.804,0.707,1.627,0.428,2.28c-0.229,0.53-0.735,0.844-1.358,0.844c-0.533,0-1.178-0.222-2.023-0.699
		c-0.795-0.447-1.566-1.152-2.458-1.967c-2.078-1.9-4.665-4.265-8.724-4.265c0,0-0.002,0-0.004,0
		c0.301,0.274,0.504,0.601,0.549,0.99c0.162,1.36-1.494,1.949-2.119,2.171c-0.301,0.107-0.562,0.078-1.397-0.032
		c-1.034-0.137-2.767-0.365-4.978-0.365c-3.547,0-6.863,0.587-9.903,1.75c1.513,0.093,2.699,0.203,3.165,1.182
		s-0.288,2.031-0.573,2.426c-1.125,1.57-3.141,1.793-5.475,2.051c-2.026,0.225-4.259,0.472-6.446,1.573
		c2.126,0.496,2.975,1.077,3.131,2.001c0.217,1.271-1.24,2.047-1.863,2.378c-0.41,0.219-0.97,0.428-1.68,0.692
		c-1.293,0.483-3.015,1.127-4.572,2.131c1.937,0.019,3.067,0.534,3.365,1.532c0.424,1.42-1.152,2.671-2.572,3.602
		c-3.989,2.614-6.049,3.703-8.408,4.945c2.471,1.491,2.375,3.291,2.175,4.094c-0.072,0.287-0.267,0.528-0.53,0.661
		c-0.984,0.493-1.945,0.884-2.939,1.196c-0.1,0.031-0.201,0.047-0.305,0.047h-4.484c-0.247,0-0.487-0.091-0.672-0.256
		c-0.316-0.28-0.771-0.602-1.251-0.941c-1.112-0.786-2.497-1.765-3.471-3.122c-0.313-0.387-2.235-1.206-3.778-1.864
		c-1.324-0.564-2.824-1.204-4.268-1.926c-2.284-1.142-2.072-4.749-2.04-5.156c0.026-0.332,0.212-0.629,0.499-0.797
		c0.286-0.168,0.637-0.185,0.939-0.045c3.077,1.425,6.752,2.961,8.088,3.303c1.521-2.71,3.105-3.974,4.728-3.704
		c1.164,0.193,1.686,0.819,1.918,1.31c0.393,0.829,0.204,1.76-0.031,2.412l2.152,1.857c0.051,0.043,0.096,0.091,0.137,0.143
		c0.043,0.002,0.096,0.004,0.157,0.004c0.427,0,0.979-0.068,1.468-0.128c0.19-0.023,0.362-0.044,0.52-0.061
		c0.727-0.854,1.447-1.289,2.232-1.348c0.016-0.33,0.019-0.818,0.01-1.46c-0.021-1.88-0.487-2.133-1.873-2.883
		c-0.453-0.246-0.969-0.524-1.537-0.902c-0.057-0.037-0.107-0.08-0.154-0.126c-0.308-0.289-2.061-1.175-3.221-1.762
		c-2.006-1.015-3.26-1.661-3.736-2.136c-0.163-0.162-0.266-0.375-0.292-0.604l-0.292-2.551l-4.971-0.665
		c-0.341-0.046-0.636-0.261-0.783-0.572l-1.031-2.181c-0.121-0.255-0.129-0.548-0.024-0.811c0.104-0.261,0.313-0.468,0.576-0.569
		c0.659-0.254,16.26-6.256,26.368-8.219c0.317-0.062,0.469-0.189,0.693-0.383c0.352-0.301,0.885-0.792,1.916-0.602
		c1.559,0.287,2.273,0.471,2.305,0.479c0.096,0.025,0.187,0.063,0.271,0.115l3.084,1.869l4.593-0.875l1.989-1.541
		c0.022-0.018,0.047-0.035,0.071-0.051c-0.451,0.024-0.904,0.046-1.357,0.065c-0.137,0.008-0.273-0.017-0.404-0.066l-1.955-0.749
		l-4.801,0.337c-0.052,0.004-0.104,0.003-0.156-0.001c-2.142-0.183-3.063-0.622-3.807-0.975c-0.374-0.178-0.646-0.307-1.04-0.372
		c-1.392-0.229-2.862-0.341-4.5-0.341c-3.86,0-7.884,0.634-11.774,1.248c-3.688,0.582-7.173,1.131-10.36,1.131
		c-0.884,0-1.724-0.044-2.494-0.131c-0.143-0.016-0.28-0.062-0.404-0.136c-1.498-0.888-1.753-1.84-1.705-2.482
		c0.07-0.928,0.785-1.673,2.123-2.214c0.295-0.119,0.667-0.14,1.1-0.099c0.167-1.321,0.242-3.17,0.243-3.192
		c0.015-0.375,0.235-0.71,0.573-0.873c0.003-0.001,0.189-0.092,0.433-0.225c-0.03-0.049-0.059-0.097-0.084-0.14
		c-0.303-0.496-0.646-1.058-0.791-1.604c-0.161-0.6,0.166-1.091,0.388-1.399c-0.131-0.393-0.375-0.854-0.613-1.302
		c-0.25-0.475-0.51-0.965-0.684-1.455c-0.191-0.537,0.01-1.027,0.173-1.394c-0.818-0.762-2.343-1.191-4.276-1.191
		c-1.637,0-3.419,0.321-4.767,0.857c-2.108,0.841-3.732,3.974-3.452,5.789c0.034,0.217,0.052,0.489,0.071,0.802
		c0.076,1.27,0.18,3.009,1.903,4.14c1.011,0.664,1.181,1.804,1.123,2.374c-0.029,0.275-0.167,0.526-0.385,0.696
		c-0.218,0.17-0.496,0.243-0.769,0.205l-1.323-0.191l-0.92,1.909c-0.131,0.273-0.378,0.473-0.671,0.545
		c-6.471,1.591-7.529,9.534-8.552,17.216c-0.8,6.005-1.561,11.712-4.976,14.174l4.073,4.064c0.29,0.29,0.377,0.727,0.221,1.105
		c-0.157,0.379-0.527,0.627-0.938,0.627h-6.865c-0.847,0-1.754-0.022-2.703-0.046c-1.023-0.025-2.096-0.051-3.192-0.051
		c-2.957,0-6.759,0.176-9.933,1.553c-2.734,1.187-6.513,3.199-7.439,3.697c-0.142,0.156-0.329,0.267-0.538,0.312
		c-0.273,0.059-0.558,0.006-0.787-0.15c-6.208-4.226-13.289-6.649-19.427-6.649c-6.106,0-13.846,2.36-16.048,13.603
		c-0.291,1.488-0.206,4.12-0.106,7.167c0.229,7.008,0.512,15.729-3.341,19.71c-1.348,1.392-3.097,2.098-5.198,2.098l0,0
		c-1.382,0-2.899-0.296-4.588-0.899c2.354,2.736,5.896,4.254,10.113,4.254c7.072,0,15.836-4.479,18.151-12.78
		c0.52-2.071,0.652-4.653,0.792-7.388c0.405-7.896,0.909-17.723,12.705-17.723c1.004,0,2.089,0.073,3.232,0.217l1.285-1.625
		c0.288-0.365,0.787-0.487,1.212-0.296c0.022,0.01,0.544,0.246,1.13,0.574c0.236,0.133,0.41,0.355,0.481,0.616
		c0.071,0.261,0.036,0.541-0.1,0.775c-4.625,8.016-7.792,14.5-6.388,24.987c0.455,3.856,1.725,7.298,4.119,11.175
		c0.169,0.273,0.198,0.611,0.079,0.909c-2.023,5.062-6.627,14.115-9.658,17.24c-1.683,1.733-3.141,2.833-4.312,3.716
		c-2.694,2.029-3.418,2.574-1.933,7.607c1.755,5.939,1.896,8.607,1.412,13.148c-0.245,2.307-0.898,3.592-1.33,4.442
		c-0.13,0.257-0.31,0.608-0.309,0.714c0.001,0.001,0.033,0.129,0.369,0.458c1.497,0.397,2.881,2.114,2.796,3.58
		c-0.042,0.733-0.511,1.576-1.658,1.789l-1.892,4.108c0.271,0.021,0.536,0.041,0.794,0.062c2.431,0.19,4.351,0.345,6.207,0.343
		c1.15,0,2.245-0.059,3.388-0.182c-0.128-1.842-1.524-5.389-3.969-7.449c-0.054-0.045-0.102-0.096-0.145-0.15
		c-2.363-3.022-3.287-10.398,0.271-19.453c2.149-5.471,6.271-7.424,9.582-8.994c2.19-1.038,4.099-1.943,5.097-3.604l-3.089-12.302
		c-0.119-0.475,0.116-0.964,0.559-1.168c0.443-0.205,0.969-0.064,1.251,0.332c2.677,3.755,5.712,8.012,6.832,13.59
		c0.006,0.029,0.011,0.059,0.014,0.088c0.306,2.738-0.375,4.41-0.827,5.518c-0.407,1-0.403,1.105-0.187,1.383
		c0.63,0.809,2.91,1.973,4.826,2.896c0.434,0.209,0.818,0.379,1.184,0.543c2.299,1.022,3.96,1.762,11.812,8.912
		c3.811,3.469,6.581,7.971,6.46,10.387c0.023,0.01,0.045,0.019,0.065,0.025c0.459,0.182,1.229,0.482,1.878,1.447
		c0.428,0.637,0.699,1.74,0.339,2.773c-0.188,0.539-0.609,1.23-1.549,1.67c-0.354,0.809-0.768,1.547-1.14,2.209
		C117.108,188.248,116.87,188.673,116.69,189.049z M115.577,124.594c-0.002,0.45-0.008,0.893-0.018,1.329
		c0.053-0.153,0.105-0.303,0.156-0.446c0.13-0.371,0.284-0.812,0.403-1.194C115.966,124.364,115.787,124.466,115.577,124.594z
		 M152.188,86.064h3.957c0.666-0.216,1.319-0.474,1.98-0.781c-0.128-0.781-1.146-1.569-2.846-2.172
		c-0.377-0.134-0.643-0.479-0.672-0.879c-0.026-0.352,0.131-0.689,0.41-0.894c-0.459,0.009-0.824-0.037-1.117-0.141
		c-0.41-0.146-0.666-0.401-0.808-0.679l-2.517-2.171c-0.368-0.318-0.459-0.853-0.217-1.274c0.235-0.415,0.424-1.081,0.313-1.312
		c-0.033-0.07-0.197-0.139-0.416-0.175c-0.026-0.004-0.053-0.006-0.079-0.006c-0.572,0-1.663,0.985-2.81,3.187
		c-0.098,0.187-0.401,0.621-1.119,0.621c-1.219,0-5.303-1.743-7.812-2.869c0.121,0.719,0.374,1.416,0.845,1.651
		c1.389,0.694,2.858,1.321,4.156,1.874c2.652,1.131,4.063,1.758,4.63,2.547c0.776,1.081,1.955,1.914,2.994,2.649
		C151.466,85.522,151.852,85.794,152.188,86.064z M156.93,70.879c0.469,0.307,0.899,0.541,1.316,0.767
		c1.556,0.843,2.898,1.571,2.938,4.643c0.008,0.712,0.008,1.26-0.019,1.693c1.118-0.661,2.403-1.461,4.034-2.529
		c0.939-0.616,1.373-1.031,1.57-1.267c-0.252-0.07-0.688-0.141-1.365-0.141c-0.824,0-1.803,0.104-2.758,0.294
		c-0.424,0.087-0.852-0.107-1.069-0.476c-0.22-0.369-0.185-0.836,0.091-1.167c2.204-2.653,5.52-3.892,7.714-4.711
		c0.613-0.229,1.144-0.427,1.437-0.583c0.183-0.098,0.328-0.183,0.443-0.256c-0.512-0.194-1.541-0.48-3.6-0.798
		c-0.396-0.061-0.721-0.351-0.825-0.739c-0.104-0.388,0.03-0.801,0.343-1.053c3.271-2.636,6.752-3.021,9.547-3.331
		c1.928-0.213,3.45-0.382,4.049-1.217c0.082-0.113,0.145-0.208,0.191-0.286c-0.385-0.062-0.979-0.098-1.445-0.127
		c-1.021-0.062-2.291-0.139-3.569-0.449c-0.407-0.098-0.711-0.436-0.769-0.85c-0.056-0.415,0.148-0.82,0.515-1.023
		c1.778-0.985,3.659-1.763,5.636-2.33l-4.886,0.931c-0.246,0.046-0.501,0.001-0.716-0.128l-3.283-1.99
		c-0.268-0.063-0.926-0.211-2.024-0.414c-0.059,0.002-0.157,0.087-0.229,0.149c-0.312,0.267-0.782,0.669-1.627,0.833
		c-8.473,1.645-21.314,6.349-25,7.733l0.326,0.689l5.208,0.697c0.46,0.062,0.82,0.428,0.873,0.89l0.334,2.909
		c0.599,0.383,2,1.091,2.977,1.586C155.174,69.785,156.396,70.413,156.93,70.879z M184.04,53.178l-1.946,1.508
		c-0.039,0.031-0.082,0.059-0.126,0.083c2.454-0.643,5.052-0.966,7.769-0.966c2.345,0,4.229,0.249,5.242,0.383
		c0.222,0.029,0.465,0.061,0.608,0.075c0.022-0.009,0.046-0.018,0.069-0.026c-0.58-0.207-1.432-0.413-2.225-0.497
		c-0.479-0.05-0.856-0.431-0.902-0.91c-0.022-0.225,0.029-0.442,0.142-0.625c-1.979,0.262-3.879,0.49-5.753,0.691
		C185.955,52.994,184.998,53.089,184.04,53.178z"/>
</g>
</svg>
