<?xml version="1.0" encoding="utf-8"?>
<!-- Generator: Adobe Illustrator 16.0.0, SVG Export Plug-In . SVG Version: 6.00 Build 0)  -->
<!DOCTYPE svg PUBLIC "-//W3C//DTD SVG 1.1//EN" "http://www.w3.org/Graphics/SVG/1.1/DTD/svg11.dtd">
<svg version="1.1" id="Layer_1" xmlns="http://www.w3.org/2000/svg" xmlns:xlink="http://www.w3.org/1999/xlink" x="0px" y="0px"
	 width="352.879px" height="591.182px" viewBox="0 0 352.879 591.182" enable-background="new 0 0 352.879 591.182"
	 xml:space="preserve">
<path fill="#FEF341" d="M148.51,269.971c-4.557,0-8.583-0.469-11.339-1.321c-0.938-0.29-1.526-1.217-1.39-2.189
	c0.215-1.53,1.071-3.059,2.063-4.829c0.707-1.263,1.439-2.569,1.995-3.977c0.221-0.559,0.681-0.988,1.253-1.17
	c0.737-0.234,0.93-0.57,1.011-0.802c0.179-0.512,0.002-1.167-0.147-1.39c-0.445-0.665-0.861-0.828-1.438-1.054
	c-0.757-0.297-2.333-0.916-2.509-2.991c-0.017-0.204-0.003-0.409,0.042-0.609c0.387-1.714-2.989-8.585-9.663-14.67
	c-12.777-11.656-15.345-12.799-18.897-14.382c-0.647-0.288-1.327-0.591-2.095-0.962c-10.19-4.922-11.72-6.821-9.632-11.955
	c0.685-1.686,1.537-3.781,1.15-7.408c-0.875-4.313-2.48-8.104-4.429-11.605l2.493,9.945c0.116,0.464,0.062,0.955-0.152,1.382
	c-2.148,4.287-6.252,6.236-10.597,8.299c-5.5,2.612-11.187,5.313-14.27,13.173c-5.749,14.655-3.836,25.288-1.098,29.012
	c5.291,4.59,8.535,13.097,7.701,17.177c-0.17,0.835-0.852,1.47-1.696,1.582c-2.611,0.347-5.023,0.508-7.589,0.508
	c-3.269,0-6.563-0.26-10.734-0.59c-1.179-0.093-2.432-0.192-3.779-0.293c-0.653-0.049-1.241-0.415-1.574-0.979
	s-0.368-1.256-0.094-1.851l4.629-10.071c0.335-0.729,1.076-1.178,1.875-1.164c0.026,0.001,0.052,0,0.077,0
	c-0.287-0.713-1.219-1.775-1.958-1.861c-0.41-0.048-0.795-0.221-1.102-0.497c-2.985-2.671-2.407-4.473-1.264-6.727
	c0.64-1.263,1.517-2.993,1.858-6.202c0.768-7.234,0.551-11.245-2.246-20.731c-3.097-10.509-0.835-12.757,4.576-16.842
	c1.87-1.411,4.196-3.167,6.829-5.886c4.042-4.174,11.264-17.612,15.104-26.943c-3.987-6.672-6.134-12.713-6.929-19.462
	c-2.164-16.194,1.88-27.327,8.097-38.87c-2.097-0.303-4.066-0.457-5.853-0.457c-16.336,0-16.992,12.807-17.686,26.366
	c-0.245,4.795-0.477,9.325-1.452,13.213c-4.4,15.811-20.871,24.315-34.141,24.315c-10.665,0-19.165-5.05-23.318-13.857
	c-0.365-0.773-0.198-1.692,0.416-2.288c0.613-0.595,1.537-0.734,2.299-0.348c4.46,2.267,8.263,3.417,11.303,3.417
	c2.526,0,4.515-0.786,6.079-2.401c5.401-5.58,4.932-20.007,4.589-30.542c-0.174-5.364-0.325-9.996,0.246-12.918
	c3.27-16.726,14.157-25.937,30.654-25.937c10.691,0,22.896,4.038,33.68,11.112c2.169-1.162,7.91-4.191,12.3-6.098
	c5.972-2.594,12.865-2.926,18.203-2.926c1.885,0,3.703,0.045,5.462,0.088c1.565,0.039,3.061,0.076,4.456,0.076h6.729l-5.03-5.031
	c-0.472-0.472-0.678-1.148-0.548-1.802c0.13-0.655,0.577-1.202,1.193-1.458c5.63-2.345,6.91-11.971,8.266-22.162
	c1.756-13.206,3.741-28.132,16.256-31.892l1.698-3.527c0.227-0.471,0.62-0.821,1.085-1c-2.587-2.784-2.793-6.214-2.913-8.218
	c-0.023-0.394-0.04-0.737-0.082-1.009c-0.693-4.498,2.767-11.645,8.104-13.774c2.723-1.087,6.148-1.71,9.397-1.71
	c4.887,0,8.647,1.407,10.593,3.96c0.913,1.201,0.312,2.547,0.023,3.194c-0.017,0.034-0.031,0.068-0.047,0.102
	c0.205,0.473,0.479,0.992,0.767,1.535c0.636,1.203,1.292,2.446,1.53,3.757c0.168,0.928-0.266,1.632-0.615,2.126
	c0.193,0.377,0.463,0.82,0.682,1.179c0.703,1.157,2.014,3.312,0.141,4.587c-0.399,0.271-0.83,0.526-1.209,0.737
	c-0.084,1.545-0.271,4.268-0.592,5.922c-0.185,0.938-0.972,1.936-2.633,1.936c-0.279,0-0.604-0.029-0.932-0.062
	c-0.178-0.019-0.358-0.041-0.523-0.044c-0.498,0.214-0.793,0.398-0.961,0.526c0.117,0.124,0.303,0.287,0.575,0.475
	c1.036,0.1,2.155,0.151,3.334,0.151c5.074,0,10.802-0.905,16.863-1.863c6.69-1.057,13.608-2.149,20.399-2.149
	c2.961,0,5.637,0.204,8.18,0.625c1.182,0.195,1.974,0.573,2.74,0.938c1.061,0.505,2.155,1.027,4.977,1.283l8.3-0.584
	c0.291-0.021,0.584,0.023,0.856,0.128l3.258,1.25c2.717-0.12,5.479-0.308,7.843-0.478c4.297-0.327,8.832-0.749,13.472-1.254
	c9.094-0.993,18.127-2.248,26.851-3.729c9.606-1.636,18.28-3.438,26.515-5.51c9.857-2.492,18.27-5.159,25.714-8.154
	c1.015-0.407,2.167,0.074,2.591,1.08c0.422,1.007-0.039,2.167-1.039,2.607c-7.529,3.31-16.033,6.308-25.998,9.166
	c-8.312,2.372-17.055,4.48-26.73,6.444c-5.801,1.176-11.745,2.257-17.762,3.229c5.525,1.368,9.348,4.869,12.309,7.581
	c0.624,0.571,1.207,1.106,1.751,1.569c-0.252-0.294-0.53-0.604-0.838-0.927c-0.562-0.59-0.709-1.461-0.373-2.203
	s1.058-1.208,1.902-1.174c9.438,0.376,16.562,9.532,21.766,16.217c0.521,0.67,1.029,1.323,1.521,1.94
	c1.213-1.721,2.908-3.968,6.736-4.733c0.924-0.182,1.856,0.304,2.229,1.172c1.333,3.106,0.821,5.755,0.278,8.561
	c-0.229,1.192-0.469,2.425-0.58,3.78c-0.517,6.221-0.355,13.979-0.228,20.212l0.017,0.786c0.133,6.48-0.883,8.079-3.232,10.182
	c-0.831,0.744-1.689,1.513-2.696,3.164c-1.426,2.336-3.007,11.206-4.129,23.148c-0.067,0.715,0.231,1.34,0.577,2.063
	c0.459,0.959,1.087,2.274,0.404,3.723c-0.707,1.499-2.479,2.275-4.937,2.923c-1.312,1.08-4.319,2.925-8.019,2.925
	c-2.613,0-5.107-0.892-7.416-2.652c-1.494-0.73-1.696-2.896-2.012-6.259c-0.09-0.976-0.23-2.476-0.396-3.296
	c-0.22-0.074-0.426-0.15-0.621-0.222c-0.438-0.162-0.89-0.329-1.147-0.329c-0.06,0-0.168,0-0.41,0.196
	c-0.285,0.399-0.454,2.341-0.555,3.501c-0.186,2.114-0.358,4.111-1.334,5.434c-0.559,0.756-1.424,1.172-2.438,1.172
	c-1.307,0-2.646-0.667-4.018-1.41c-0.184-0.099-0.34-0.187-0.461-0.246c-0.396-0.108-0.756-0.336-1.021-0.66
	c-0.381-0.462-0.533-1.07-0.417-1.657c2.11-10.719,1.745-24.871,0.351-27.002c-0.107-0.072-0.207-0.153-0.298-0.244
	c-0.407-0.406-1.114-0.491-1.638-0.491c-2.454,0-5.729,1.799-7.151,3.928c-0.073,0.11-0.157,0.212-0.251,0.305
	c-3.331,3.324-2.77,11.571-2.318,18.198c0.156,2.284,0.304,4.441,0.304,6.348c0,1.824,0.421,5.101,0.907,8.895
	c1.559,12.121,3.645,28.361-1.646,35.839c3.735,3.027,8.906,7.441,14.884,13.5c3.465,3.513,5.719,4.586,8.33,5.831
	c0.76,0.361,1.532,0.73,2.35,1.162c11.685,6.17,10.711,12.764,9.479,21.112c-0.154,1.052-0.318,2.153-0.466,3.31l0.063,1.287
	c0.362,7.499,1.213,25.059,4.312,30.579c0.083,0.147,0.146,0.305,0.189,0.468c1.84,6.966,2.576,12.602,0.187,17.468
	c-0.259,0.528-0.737,0.915-1.308,1.058c-0.6,0.15-1.252,0.227-1.938,0.227c-6.249,0-15.622-6.438-18.431-10.64
	c-0.338-0.506-0.428-1.14-0.241-1.72s0.625-1.044,1.194-1.261c0.08-0.033,2.496-1.056,3.123-4.185
	c0.119-0.602,0.51-1.115,1.059-1.392c0.357-0.181,0.597-0.333,0.752-0.448c-0.339-0.352-0.949-0.822-1.316-1.106
	c-1.252-0.964-2.671-2.056-2.455-3.765c0.053-0.415,0.233-0.803,0.519-1.11c7.538-8.129,4.435-15.591,2.168-21.04
	c-1.091-2.623-1.952-4.694-1.468-6.531c0.604-2.298,0.584-4.018-4.998-6.86c-3.163-1.438-7.555-3.199-12.641-5.237
	c-3.149-1.263-6.386-2.56-9.666-3.917c-0.339,4.241-0.729,9.744-0.748,12.639c0.936,4.301,0.932,7.977,0.926,11.865
	c-0.006,6.598-0.016,14.068,4.789,27.066c1.75,2.146,4.156,5.236,5.774,8.228c2.179,3.678,2.782,5.956,1.982,7.549
	c-0.45,0.896-1.319,1.475-2.386,1.588c-2.201,0.234-4.86,0.353-7.901,0.354c-6.828,0-13.259-0.586-13.528-0.611
	c-1.084-0.1-1.889-1.049-1.812-2.135c0.041-0.558,0.459-5.518,2.832-7.98c0.274-0.285,0.482-0.511,0.642-0.691
	c-1.685-0.67-2.489-1.44-2.663-1.621c-0.654-0.683-0.742-1.732-0.207-2.514c0.039-0.058,4.094-6.104,3.521-11.985
	c-0.428-4.409-2.422-10.951-5.93-19.443c-0.424-1.025-0.672-2.77-1.048-5.411c-1.069-7.522-3.032-21.327-11.185-29.93
	c-5.833,1.524-11.717,2.658-17.535,3.381c0.021,0.112,0.045,0.22,0.068,0.327c1.277,0.727,2.375,1.552,3.443,2.354
	c3.09,2.321,6.008,4.514,13.579,4.849c0.767,0.034,1.442,0.501,1.748,1.204c0.304,0.703,0.181,1.517-0.319,2.098
	c-2.882,3.355-6.851,4.987-12.132,4.987c-4.764,0-9.821-1.308-14.714-2.574c-3.165-0.818-6.154-1.592-8.749-1.916
	c-0.567-0.071-1.077-0.381-1.399-0.853l-1.114-1.623c-0.486-0.708-0.466-1.647,0.05-2.334l1.686-2.241
	c0.237-0.588,0.469-1.142,0.688-1.667c0.248-0.596,0.479-1.147,0.682-1.662c-6.634-0.069-13.197-0.703-19.543-1.887
	c-1.474,1.094-2.572,2.111-3.377,3.13c0.53,1.65,2.285,5.617,3.436,7.139c0.712,0.943,0.914,2.2,0.531,3.279
	c-0.283,0.798-1.037,1.331-1.885,1.331c-9.13,0-12.923-7.258-15.971-13.09c-2.343-4.482-4.366-8.354-8.021-8.81
	c-0.454-0.057-0.854-0.262-1.158-0.562c-7.12-2.499-12.37-4.688-16.272-6.314l-1.217-0.507c-1.699-0.706-2.869-1.695-3.642-2.858
	c-1.209,7.802-3.51,15.29-7.411,24.942c-2.885,7.134-0.323,17.516,7.406,30.022c7.188,11.629,16.599,21.472,18.411,23.327
	c0.111,0.113,0.208,0.239,0.289,0.375c3.705,6.223,5.446,11.667,5.174,16.181c-0.055,0.909-0.716,1.666-1.608,1.842
	C156.332,269.623,152.417,269.971,148.51,269.971z M140.392,265.321c2.219,0.418,5.056,0.65,8.118,0.65
	c3.013,0,6.014-0.218,8.628-0.622c-0.221-3.375-1.727-7.446-4.491-12.134c-2.823-2.902-11.71-12.399-18.785-23.847
	c-8.547-13.83-11.143-25.143-7.713-33.625c6.234-15.421,8.235-25.105,8.235-39.851c0-0.68,0.346-1.313,0.918-1.682
	c2.414-1.554,3.871-2.188,5.028-2.188c0.902,0,1.7,0.396,2.19,1.086c1.041,1.467,0.386,3.341-0.699,6.446
	c-2.307,6.598-2.891,10.45,0.623,11.909l1.222,0.509c4.129,1.721,9.783,4.079,17.573,6.758c0.12,0.041,0.233,0.093,0.34,0.153
	c4.713,1.368,7.166,6.061,9.545,10.613c2.418,4.627,4.726,9.043,9.196,10.467c-1.413-2.633-2.996-6.34-2.996-7.725
	c0-0.396,0.117-0.782,0.337-1.111c1.214-1.816,2.979-3.508,5.56-5.327c0.445-0.315,1.004-0.432,1.534-0.329
	c6.744,1.315,13.759,1.983,20.849,1.983c0.506,0,1.01-0.003,1.512-0.01c0.621,0.013,1.191,0.265,1.578,0.738
	c0.386,0.474,0.533,1.099,0.399,1.695c-0.333,1.502-0.964,3.017-1.694,4.77c-0.241,0.583-0.5,1.201-0.766,1.864
	c-0.064,0.164-0.152,0.317-0.258,0.458l-0.807,1.073c2.494,0.408,5.172,1.101,7.98,1.827c4.649,1.203,9.458,2.446,13.713,2.446
	c2.059,0,3.813-0.288,5.316-0.886c-5.244-1.031-8.053-3.141-10.598-5.053c-1.207-0.907-2.347-1.763-3.676-2.426
	c-0.522-0.261-0.906-0.737-1.048-1.303c-0.243-0.972-0.469-2.107-0.706-3.571c-0.088-0.542,0.053-1.096,0.385-1.533
	c0.334-0.437,0.832-0.717,1.377-0.775c6.678-0.715,13.465-1.998,20.179-3.812c0.677-0.183,1.405,0.004,1.911,0.493
	c9.8,9.479,11.979,24.803,13.148,33.035c0.272,1.911,0.555,3.888,0.784,4.447c3.658,8.856,5.749,15.782,6.214,20.583
	c0.506,5.193-1.703,10.208-3.111,12.805c0.302,0.118,0.658,0.237,1.078,0.344c0.515,0.132,0.955,0.464,1.227,0.922
	c1.553,2.637-0.113,4.37-1.584,5.899c-0.688,0.713-1.156,2.198-1.434,3.524c2.448,0.176,6.715,0.428,11.06,0.428
	c2.434,0,4.598-0.079,6.45-0.234c-0.207-0.612-0.655-1.646-1.627-3.286c-1.18-2.178-2.998-4.748-5.6-7.922
	c-0.14-0.17-0.25-0.362-0.326-0.568c-5.174-13.867-5.164-21.789-5.156-28.778c0.004-3.887,0.009-7.245-0.879-11.208
	c-0.033-0.144-0.049-0.29-0.049-0.437c0-3.627,0.617-11.535,0.985-15.926c0.054-0.638,0.409-1.212,0.957-1.543
	s1.222-0.381,1.812-0.132c4.123,1.734,8.203,3.37,12.149,4.952c5.131,2.057,9.562,3.833,12.888,5.348
	c5.406,2.75,8.646,5.734,7.129,11.482c-0.123,0.565,0.695,2.536,1.295,3.975c2.275,5.474,6.021,14.479-1.817,24.024
	c0.116,0.092,0.231,0.18,0.333,0.258c1.373,1.058,3.254,2.507,3.051,4.663c-0.148,1.58-1.368,2.597-2.292,3.172
	c-0.674,2.292-1.965,3.821-3.114,4.788c3.207,3.22,9.814,7.298,13.775,7.298c0.021,0,0.042,0,0.062,0
	c1.299-3.558,0.629-8.01-0.809-13.498c-3.029-5.705-4.048-18.79-4.691-32.108l-0.071-1.456c-0.007-0.117-0.003-0.233,0.013-0.349
	c0.156-1.25,0.332-2.437,0.499-3.568c1.192-8.084,1.792-12.143-7.388-16.991c-0.768-0.404-1.491-0.75-2.202-1.088
	c-2.705-1.289-5.501-2.621-9.458-6.633c-6.756-6.849-12.461-11.551-16.164-14.491c-0.464-0.369-0.74-0.923-0.755-1.516
	c-0.017-0.592,0.231-1.16,0.677-1.552c5.626-4.954,3.284-23.187,1.885-34.08c-0.525-4.092-0.941-7.325-0.941-9.405
	c0-1.77-0.143-3.861-0.293-6.076c-0.527-7.745-1.125-16.512,3.346-21.161c2.213-3.171,6.63-5.542,10.366-5.542
	c1.751,0,3.237,0.524,4.315,1.519c4.131,3.14,2.711,21.697,1.461,29.472c0.346,0.182,0.789,0.406,1.16,0.556
	c0.174-0.765,0.279-1.978,0.35-2.79c0.224-2.562,0.435-4.98,2.027-6.267c0.891-0.719,1.873-1.084,2.924-1.084
	c0.974,0,1.803,0.306,2.533,0.576c0.36,0.133,0.7,0.259,1.012,0.329c2.033,0.462,2.246,2.761,2.603,6.57
	c0.099,1.048,0.254,2.716,0.433,3.435c1.604,1.227,3.289,1.849,5.014,1.849c3.25,0,5.621-2.139,5.644-2.161
	c0.252-0.242,0.586-0.437,0.927-0.521c1.42-0.354,2.157-0.644,2.528-0.827c-0.053-0.114-0.108-0.233-0.159-0.336
	c-0.445-0.935-1.121-2.347-0.949-4.164c0.711-7.573,2.268-20.874,4.695-24.855c1.312-2.154,2.544-3.256,3.443-4.062
	c1.381-1.235,2.011-1.799,1.9-7.12l-0.016-0.786c-0.131-6.326-0.294-14.198,0.239-20.625c0.13-1.571,0.399-2.972,0.64-4.209
	c0.331-1.711,0.598-3.093,0.446-4.439c-1.188,0.644-1.869,1.612-2.623,2.685c-0.541,0.77-1.103,1.566-1.864,2.203
	c-0.841,0.702-2.088,0.596-2.801-0.235c-0.984-1.151-2.038-2.504-3.152-3.937c-3.656-4.699-8.361-10.744-13.82-13.37
	c0.551,1.189,0.783,2.374,0.359,3.361c-0.428,0.998-1.381,1.594-2.548,1.594c-0.952,0-2.081-0.387-3.554-1.217
	c-1.367-0.771-2.676-1.969-4.189-3.357c-3.349-3.065-7.486-6.855-13.83-7.102c0.295,0.391,0.491,0.832,0.551,1.331
	c0.302,2.522-2.754,3.611-3.758,3.969c-0.561,0.2-1.031,0.153-2.494-0.041c-1.734-0.229-4.638-0.613-8.34-0.613
	c-5.445,0-10.566,0.829-15.304,2.471c1.99,0.184,3.519,0.577,4.224,2.058c0.859,1.804-0.481,3.679-0.988,4.385
	c-1.971,2.753-5.424,3.136-9.422,3.579c-3.162,0.351-6.623,0.734-10.037,2.28c3.148,0.835,4.445,1.848,4.711,3.409
	c0.398,2.349-2.184,3.726-3.286,4.313c-0.708,0.377-1.657,0.733-2.86,1.183c-1.941,0.727-4.465,1.67-6.841,3.069
	c2.817,0.19,4.492,1.114,4.981,2.751c0.771,2.578-1.973,4.774-4.449,6.399c-6.479,4.251-9.938,6.114-13.736,8.119
	c3.883,2.556,3.707,5.577,3.364,6.952c-0.142,0.566-0.522,1.042-1.045,1.304c-1.671,0.837-3.304,1.503-4.99,2.035
	c-0.194,0.061-0.397,0.092-0.603,0.092H199.1c-0.49,0-0.965-0.18-1.33-0.506c-0.519-0.461-1.276-0.999-2.08-1.567
	c-1.891-1.338-4.242-3.003-5.912-5.333c-0.547-0.615-3.702-1.962-6.236-3.044c-2.232-0.953-4.764-2.034-7.202-3.255
	c-4.014-2.01-3.647-8.268-3.593-8.975c0.051-0.653,0.419-1.241,0.984-1.571c0.565-0.333,1.258-0.364,1.852-0.088
	c4.996,2.318,10.975,4.83,13.35,5.493c2.592-4.55,5.325-6.661,8.15-6.193c2.083,0.347,3.021,1.479,3.441,2.369
	c0.666,1.406,0.406,2.964,0.023,4.102l3.477,3.004c0.063,0.055,0.123,0.113,0.18,0.175c0.038,0,0.08,0.001,0.126,0.001
	c0.698,0,1.621-0.113,2.435-0.213c0.273-0.033,0.525-0.064,0.758-0.09c1.174-1.354,2.35-2.086,3.625-2.259
	c0.017-0.484,0.021-1.185,0.01-2.198c-0.035-3.002-0.664-3.343-3.004-4.612c-0.768-0.417-1.641-0.89-2.609-1.535
	c-0.109-0.073-0.212-0.157-0.307-0.25c-0.528-0.477-3.426-1.945-5.344-2.917c-3.818-1.934-5.574-2.864-6.367-3.656
	c-0.319-0.32-0.521-0.739-0.573-1.188l-0.466-4.078l-8.145-1.091c-0.673-0.09-1.254-0.515-1.543-1.129l-1.734-3.678
	c-0.237-0.502-0.256-1.081-0.049-1.596c0.207-0.516,0.617-0.922,1.135-1.123c1.111-0.43,27.399-10.56,44.438-13.873
	c0.459-0.089,0.663-0.264,1.033-0.581c0.536-0.46,1.347-1.154,2.703-1.154c0.247,0,0.506,0.024,0.769,0.073
	c2.633,0.486,3.848,0.798,3.897,0.812c0.188,0.049,0.368,0.125,0.536,0.227l5.095,3.092l7.551-1.441l2.673-2.076
	c-0.449,0.022-0.9,0.043-1.352,0.062c-0.271,0.014-0.545-0.033-0.801-0.131l-3.229-1.239l-8.015,0.564
	c-0.104,0.008-0.207,0.006-0.311-0.002c-3.658-0.312-5.24-1.066-6.511-1.671c-0.631-0.301-1.048-0.5-1.671-0.603
	c-2.325-0.384-4.788-0.571-7.527-0.571c-6.478,0-13.238,1.068-19.775,2.101c-6.223,0.983-12.1,1.912-17.487,1.912
	c-1.501,0-2.926-0.075-4.233-0.223c-0.281-0.032-0.554-0.123-0.797-0.268c-2.647-1.574-3.1-3.292-3.011-4.456
	c0.127-1.683,1.392-3.022,3.754-3.98c0.479-0.193,1.034-0.254,1.705-0.21c0.256-2.183,0.372-5.048,0.374-5.084
	c0.029-0.738,0.464-1.4,1.129-1.722c0.004-0.002,0.184-0.089,0.447-0.228c-0.516-0.847-1.094-1.804-1.348-2.754
	c-0.282-1.058,0.229-1.934,0.609-2.482c-0.222-0.608-0.598-1.32-0.965-2.015c-0.428-0.81-0.87-1.647-1.17-2.494
	c-0.326-0.91-0.048-1.751,0.217-2.372C179.529,4.646,177.1,4,174.034,4c-2.72,0-5.679,0.533-7.915,1.425
	c-3.377,1.348-6.08,6.55-5.633,9.45c0.058,0.373,0.09,0.841,0.122,1.379c0.124,2.081,0.295,4.929,3.073,6.756
	c1.816,1.193,2.124,3.247,2.019,4.272c-0.056,0.542-0.329,1.038-0.759,1.373c-0.429,0.335-0.978,0.482-1.516,0.403l-2.015-0.291
	l-1.457,3.026c-0.259,0.538-0.744,0.932-1.323,1.074c-10.699,2.635-12.467,15.931-14.177,28.789
	c-1.334,10.034-2.603,19.575-8.219,23.895l6.616,6.617c0.572,0.572,0.743,1.432,0.434,2.179c-0.31,0.748-1.039,1.235-1.848,1.235
	h-11.559c-1.426,0-2.955-0.038-4.554-0.077c-1.72-0.042-3.521-0.087-5.364-0.087c-4.951,0-11.314,0.295-16.609,2.595
	c-4.553,1.978-10.841,5.329-12.46,6.2c-0.275,0.286-0.631,0.489-1.022,0.573c-0.323,0.07-0.655,0.06-0.966-0.025
	c0.249,0.245,0.431,0.552,0.525,0.895c0.142,0.515,0.071,1.066-0.195,1.529c-7.759,13.465-13.069,24.356-10.719,41.952
	c0.762,6.464,2.887,12.232,6.894,18.731c0.332,0.539,0.39,1.203,0.155,1.791c-3.414,8.558-11.189,23.868-16.319,29.165
	c-2.849,2.942-5.312,4.802-7.292,6.296c-4.52,3.412-5.594,4.222-3.149,12.518c2.967,10.062,3.204,14.585,2.387,22.285
	c-0.418,3.939-1.531,6.135-2.268,7.588c-0.188,0.37-0.416,0.821-0.477,1.034c0.047,0.082,0.17,0.256,0.471,0.557
	c2.607,0.748,4.993,3.746,4.844,6.311c-0.077,1.319-0.893,2.827-2.88,3.256l-2.949,6.415c0.315,0.025,0.625,0.049,0.929,0.073
	c6.482,0.513,10.912,0.807,15.801,0.303c-0.337-3.086-2.676-8.812-6.552-12.084c-0.105-0.089-0.202-0.189-0.287-0.298
	c-4.026-5.159-5.614-17.712,0.415-33.082c3.66-9.333,10.656-12.656,16.277-15.325c3.598-1.709,6.739-3.201,8.393-5.863l-5.17-20.627
	c-0.234-0.933,0.229-1.9,1.102-2.302c0.875-0.404,1.91-0.127,2.467,0.656c4.523,6.354,9.65,13.555,11.549,23.028
	c0.011,0.057,0.021,0.114,0.027,0.172c0.522,4.688-0.641,7.549-1.411,9.442c-0.668,1.644-0.614,1.713-0.354,2.047
	c1.024,1.314,4.824,3.255,8.021,4.799c0.727,0.351,1.37,0.637,1.983,0.91c3.896,1.735,6.71,2.989,19.965,15.08
	c5.586,5.093,11.053,12.925,10.979,17.535c0.813,0.321,2.11,0.871,3.216,2.518c0.761,1.137,1.241,3.103,0.601,4.937
	c-0.446,1.277-1.374,2.291-2.655,2.924c-0.591,1.339-1.274,2.561-1.891,3.66C140.996,264.192,140.665,264.783,140.392,265.321z
	 M7.461,163.959c3.894,4.027,9.478,6.247,16.048,6.247c15.806,0,27.395-10.994,30.274-21.338c0.866-3.46,1.088-7.8,1.324-12.396
	c0.688-13.438,1.544-30.162,21.681-30.162c1.654,0,3.437,0.117,5.313,0.349l2.061-2.609c0.569-0.721,1.554-0.962,2.391-0.584
	c0.022,0.01,0.343,0.155,0.809,0.388C77.193,97.156,65.74,93.332,55.777,93.332c-10.168,0-23.06,3.939-26.729,22.704
	c-0.484,2.477-0.34,6.899-0.174,12.021c0.386,11.876,0.867,26.656-5.713,33.453c-2.325,2.402-5.337,3.62-8.953,3.62l0,0
	C12.146,165.129,9.911,164.743,7.461,163.959z M199.824,91.583h6.512c1.021-0.334,2.025-0.727,3.04-1.189
	c-0.351-1.137-1.985-2.319-4.546-3.228c-0.745-0.265-1.266-0.944-1.324-1.733c-0.033-0.451,0.086-0.89,0.325-1.253
	c-0.517-0.03-0.944-0.108-1.322-0.242c-0.68-0.241-1.2-0.683-1.502-1.241l-4.188-3.619c-0.725-0.626-0.903-1.679-0.426-2.51
	c0.401-0.715,0.625-1.679,0.519-1.941c0.002-0.002-0.124-0.078-0.485-0.138c-0.002,0-0.004,0-0.006,0
	c-0.932,0-2.688,1.633-4.549,5.211c-0.189,0.362-0.775,1.203-2.145,1.203c-2.016,0-8.273-2.627-12.744-4.626
	c0.219,0.932,0.584,1.741,1.146,2.024c2.33,1.167,4.803,2.222,6.98,3.153c4.516,1.928,6.918,2.999,7.918,4.392
	c1.277,1.784,3.24,3.174,4.973,4.399C198.648,90.704,199.27,91.144,199.824,91.583z M207.883,66.04
	c0.771,0.504,1.485,0.892,2.178,1.267c2.586,1.404,5.03,2.73,5.094,8.08c0.012,0.925,0.015,1.69-0.006,2.332
	c1.771-1.059,3.797-2.329,6.313-3.979c1.157-0.76,1.843-1.329,2.245-1.722c-0.41-0.068-0.979-0.123-1.736-0.123
	c-1.367,0-2.996,0.175-4.586,0.492c-0.833,0.164-1.676-0.21-2.109-0.937c-0.434-0.728-0.361-1.649,0.18-2.301
	c3.76-4.534,9.613-6.724,13.109-8.033c1.022-0.383,1.906-0.713,2.381-0.966c0.068-0.037,0.135-0.072,0.195-0.106
	c-0.963-0.301-2.611-0.696-5.416-1.128c-0.783-0.121-1.42-0.692-1.627-1.457c-0.205-0.765,0.061-1.579,0.676-2.076
	c5.574-4.501,11.479-5.156,16.227-5.682c3.172-0.352,5.678-0.629,6.609-1.932c0.021-0.03,0.043-0.06,0.063-0.089
	c-0.594-0.067-1.34-0.112-1.955-0.15c-1.729-0.105-3.882-0.236-6.062-0.765c-0.801-0.194-1.399-0.859-1.51-1.676
	c-0.111-0.816,0.289-1.617,1.011-2.017c1.784-0.991,3.632-1.858,5.536-2.601l-4.077,0.778c-0.485,0.092-0.989,0.002-1.413-0.255
	l-5.486-3.33c-0.467-0.11-1.539-0.35-3.291-0.674c-0.066,0.053-0.131,0.114-0.201,0.174c-0.547,0.47-1.375,1.18-2.873,1.47
	c-14.025,2.727-35.187,10.454-41.748,12.915l0.35,0.737l8.609,1.153c0.908,0.122,1.617,0.845,1.722,1.755l0.545,4.771
	c1.035,0.642,3.287,1.783,4.871,2.585C205.25,64.351,207.018,65.281,207.883,66.04z M253.455,36.698l-2.299,1.785
	c3.746-0.864,7.679-1.299,11.773-1.299c2.075,0,3.938,0.115,5.488,0.258c-0.591-0.303-1.009-0.891-1.077-1.583
	c-0.024-0.251-0.002-0.497,0.062-0.729c-3.161,0.415-6.195,0.778-9.184,1.099C256.624,36.393,255.041,36.552,253.455,36.698z
	 M251.324,584.959l5.578-7.887v7.887H251.324z M258.835,584.959V574.6h-1.288l-7.371,10.523v1.5h6.727v4.195h1.934v-4.195h2.135
	v-1.664H258.835z M236.949,579.146c0.203-1.39,0.586-2.409,1.148-3.059c0.414-0.477,0.887-0.715,1.418-0.715
	c0.453,0,0.84,0.128,1.16,0.387c0.444,0.375,0.809,1.012,1.09,1.91c0.375,1.212,0.562,2.723,0.562,4.535
	c0,2.445-0.18,4.341-0.539,5.684c-0.232,0.892-0.578,1.525-1.03,1.904c-0.452,0.38-0.892,0.568-1.313,0.568
	c-0.883,0-1.547-0.582-1.991-1.746c-0.539-1.383-0.808-3.168-0.808-5.355C236.645,581.909,236.746,580.538,236.949,579.146
	 M235.625,588.417c1.009,1.789,2.27,2.684,3.785,2.684c0.767,0,1.562-0.291,2.385-0.872c0.824-0.582,1.503-1.519,2.033-2.808
	c0.531-1.289,0.797-2.854,0.797-4.699c0-2.632-0.604-4.719-1.814-6.258c-0.97-1.242-2.063-1.862-3.283-1.862
	c-0.75,0-1.476,0.254-2.178,0.762c-0.908,0.641-1.634,1.615-2.182,2.924c-0.547,1.309-0.818,2.869-0.818,4.682
	C234.348,585.092,234.773,586.909,235.625,588.417 M220.628,579.146c0.203-1.39,0.587-2.409,1.149-3.059
	c0.414-0.477,0.886-0.715,1.418-0.715c0.453,0,0.839,0.128,1.16,0.387c0.444,0.375,0.808,1.012,1.09,1.91
	c0.375,1.212,0.562,2.723,0.562,4.535c0,2.445-0.181,4.341-0.539,5.684c-0.233,0.892-0.577,1.525-1.03,1.904
	c-0.453,0.38-0.892,0.568-1.313,0.568c-0.883,0-1.547-0.582-1.991-1.746c-0.539-1.383-0.809-3.168-0.809-5.355
	C220.325,581.909,220.426,580.538,220.628,579.146 M219.305,588.417c1.008,1.789,2.27,2.684,3.785,2.684
	c0.766,0,1.561-0.291,2.385-0.872c0.824-0.582,1.502-1.519,2.033-2.808c0.53-1.289,0.797-2.854,0.797-4.699
	c0-2.632-0.604-4.719-1.816-6.258c-0.969-1.242-2.062-1.862-3.281-1.862c-0.75,0-1.477,0.254-2.18,0.762
	c-0.906,0.641-1.633,1.615-2.18,2.924s-0.82,2.869-0.82,4.682C218.027,585.092,218.453,586.909,219.305,588.417 M211.411,587.76
	c-0.203,0.353-0.44,0.623-0.716,0.814c-0.273,0.19-0.579,0.317-0.92,0.381c-0.34,0.062-0.932,0.094-1.774,0.094h-4.147
	c0.483-0.438,1.699-1.719,3.645-3.844c1.297-1.414,2.234-2.754,2.812-4.021c0.375-0.804,0.562-1.608,0.562-2.413
	c0-1.125-0.433-2.102-1.295-2.931c-0.862-0.828-1.938-1.242-3.229-1.242c-1.211,0-2.221,0.388-3.029,1.16
	c-0.808,0.773-1.311,1.883-1.506,3.328h0.435c0.297-0.883,0.756-1.553,1.377-2.01s1.321-0.687,2.104-0.687
	c0.858,0,1.598,0.324,2.215,0.974c0.617,0.648,0.926,1.477,0.926,2.483c0,1.321-0.562,2.777-1.688,4.371
	c-1.127,1.594-3.066,3.648-5.824,6.164v0.435h9.375l1.113-3.06h-0.435V587.76z M180.915,575.795c0.789,0,1.341,0.059,1.653,0.176
	c0.39,0.164,0.685,0.402,0.884,0.715c0.2,0.312,0.381,0.888,0.545,1.724h0.457l-0.175-3.48h-12.246v0.435h0.562
	c0.655,0,1.125,0.156,1.405,0.469c0.203,0.234,0.306,0.855,0.306,1.863v10.324c0,0.772-0.045,1.284-0.135,1.534
	c-0.091,0.25-0.261,0.438-0.511,0.562c-0.336,0.181-0.69,0.27-1.065,0.27h-0.562v0.435h12.246l1.371-3.984h-0.469
	c-0.509,0.978-1.005,1.707-1.488,2.191c-0.375,0.367-0.767,0.612-1.172,0.737c-0.406,0.125-1.061,0.188-1.957,0.188h-2.696
	c-0.437,0-0.733-0.045-0.89-0.135c-0.158-0.091-0.268-0.211-0.329-0.363c-0.063-0.152-0.094-0.58-0.094-1.283v-5.238h3.492
	c0.663,0,1.155,0.078,1.478,0.234c0.32,0.156,0.551,0.371,0.69,0.646c0.108,0.219,0.22,0.715,0.327,1.487h0.436v-5.531h-0.436
	c-0.047,0.906-0.271,1.539-0.68,1.898c-0.305,0.273-0.91,0.41-1.815,0.41h-3.492v-6.281h4.359V575.795z M165.251,574.565
	c-0.086,0.375-0.23,0.668-0.434,0.879c-0.156,0.147-0.34,0.223-0.551,0.223c-0.141,0-0.375-0.086-0.703-0.258
	c-1.117-0.562-2.25-0.844-3.398-0.844c-1.477,0-2.838,0.364-4.084,1.096c-1.247,0.729-2.225,1.761-2.936,3.088
	c-0.711,1.328-1.066,2.785-1.066,4.371c0,1.969,0.539,3.68,1.617,5.133c1.445,1.953,3.484,2.93,6.117,2.93
	c1.461,0,2.723-0.327,3.785-0.983s1.992-1.691,2.789-3.105l-0.363-0.233c-0.945,1.312-1.813,2.189-2.602,2.631
	c-0.789,0.44-1.699,0.662-2.73,0.662c-1.188,0-2.244-0.281-3.17-0.845c-0.926-0.562-1.619-1.37-2.08-2.426
	c-0.461-1.055-0.691-2.301-0.691-3.738c0-1.741,0.244-3.198,0.732-4.37c0.488-1.173,1.158-2.025,2.01-2.562
	c0.852-0.534,1.805-0.802,2.859-0.802c1.258,0,2.336,0.354,3.235,1.065c0.897,0.712,1.589,1.875,2.073,3.492h0.363l-0.363-5.401
	L165.251,574.565L165.251,574.565z M129.244,575.362c0.461,0,0.805,0.034,1.031,0.104c0.461,0.148,0.811,0.31,1.049,0.48
	c0.238,0.171,0.588,0.526,1.049,1.065v11.052c0,0.891-0.086,1.461-0.258,1.711c-0.281,0.405-0.762,0.608-1.441,0.608h-0.551v0.435
	h5.531v-0.435h-0.562c-0.616,0-1.074-0.164-1.371-0.492c-0.211-0.241-0.316-0.852-0.316-1.827v-9.785l10.477,12.797h0.422v-13.396
	c0-0.891,0.086-1.461,0.259-1.711c0.28-0.405,0.757-0.608,1.429-0.608h0.562v-0.435h-5.531v0.435h0.551
	c0.625,0,1.082,0.164,1.371,0.491c0.219,0.242,0.328,0.853,0.328,1.828v9.164l-9.714-11.918h-4.313v0.436H129.244z M124.08,590.385
	c-0.375,0-0.729-0.094-1.066-0.281c-0.25-0.141-0.413-0.308-0.491-0.504c-0.103-0.258-0.153-0.789-0.153-1.594V577.74
	c0-0.953,0.098-1.556,0.293-1.806c0.297-0.383,0.771-0.573,1.418-0.573h0.575v-0.435h-6.81v0.435h0.563
	c0.375,0,0.734,0.094,1.078,0.28c0.242,0.142,0.401,0.31,0.479,0.505c0.103,0.258,0.152,0.789,0.152,1.594v10.266
	c0,0.953-0.093,1.555-0.281,1.805c-0.297,0.384-0.772,0.574-1.429,0.574h-0.563v0.435h6.81v-0.435H124.08z M110.151,574.565
	c-0.078,0.366-0.183,0.61-0.312,0.731c-0.127,0.121-0.295,0.182-0.498,0.182c-0.178,0-0.487-0.098-0.924-0.293
	c-0.947-0.414-1.841-0.62-2.685-0.62c-1.352,0-2.465,0.411-3.34,1.235s-1.312,1.808-1.312,2.947c0,0.656,0.148,1.259,0.445,1.805
	c0.297,0.547,0.732,1.047,1.307,1.5c0.574,0.453,1.541,1.062,2.9,1.822c1.358,0.762,2.19,1.26,2.496,1.494
	c0.453,0.345,0.787,0.715,1.002,1.113c0.215,0.397,0.321,0.793,0.321,1.184c0,0.703-0.282,1.312-0.848,1.828
	c-0.568,0.516-1.339,0.773-2.316,0.773c-0.842,0-1.618-0.188-2.325-0.562s-1.232-0.846-1.576-1.412
	c-0.344-0.565-0.617-1.42-0.82-2.561h-0.434v5.448h0.434c0.054-0.366,0.138-0.608,0.252-0.727c0.113-0.117,0.267-0.176,0.462-0.176
	c0.204,0,0.686,0.123,1.448,0.369c0.761,0.245,1.263,0.389,1.506,0.428c0.406,0.07,0.838,0.104,1.299,0.104
	c1.47,0,2.67-0.436,3.604-1.307c0.933-0.87,1.399-1.908,1.399-3.111c0-0.633-0.146-1.237-0.438-1.815s-0.711-1.08-1.254-1.506
	c-0.543-0.427-1.558-1.037-3.041-1.834c-1.821-0.978-2.973-1.759-3.457-2.345c-0.336-0.397-0.504-0.84-0.504-1.323
	c0-0.634,0.265-1.197,0.797-1.693c0.531-0.496,1.203-0.745,2.015-0.745c0.72,0,1.414,0.186,2.086,0.552
	c0.672,0.368,1.19,0.863,1.554,1.488c0.362,0.625,0.614,1.465,0.756,2.521h0.435v-5.496L110.151,574.565L110.151,574.565z
	 M304.939,437.918c15.301,0,21.701,13.5,21.701,27.2s-6.4,27.2-21.701,27.2c-15.299,0-21.699-13.5-21.699-27.2
	S289.641,437.918,304.939,437.918 M304.939,427.719c-21.399,0-34.199,17-34.199,37.399s12.8,37.399,34.199,37.399
	c21.4,0,34.201-17,34.201-37.399S326.34,427.719,304.939,427.719 M211.141,500.819h13.898l24.4-71.4h-12.701l-18.299,56.5h-0.201
	l-17.898-56.5h-13L211.141,500.819z M114.441,500.819h52.1v-10.801h-39.6v-20.899h36v-10.2h-36V440.22h38.9v-10.801h-51.4V500.819z
	 M26.042,500.819h12.5v-29.4h18.4c11.5,0,14.2,5.801,14.2,18.9c0,3.5,0,7.399,1.9,10.5h13.4c-2.7-2.9-3.9-10.5-3.9-18.801
	c0-11.3-6.3-14.5-10.6-15.101v-0.199c2.3-0.801,11.8-4.301,11.8-18c0-12.101-8-19.301-23.6-19.301h-34.1V500.819L26.042,500.819z
	 M38.542,439.619h20.3c6.5,0,12.4,1.8,12.4,10.899c0,7.5-4.3,11.399-12.2,11.399h-20.5V439.619z M244.291,410.819h12.5v-27.4h19
	c20.4,0.101,24.3-13.1,24.3-21.899c0-8.899-3.899-22.101-24.3-22.101h-31.5V410.819L244.291,410.819z M256.791,349.619h18.5
	c6.6,0,12.3,2.399,12.3,11.8c0,9-6.899,11.801-12.5,11.801h-18.3V349.619z M180.691,347.918c15.3,0,21.699,13.5,21.699,27.2
	s-6.399,27.2-21.699,27.2c-15.301,0-21.7-13.5-21.7-27.2S165.39,347.918,180.691,347.918 M180.691,337.719
	c-21.4,0-34.2,17-34.2,37.399s12.8,37.399,34.2,37.399c21.398,0,34.199-17,34.199-37.399S202.09,337.719,180.691,337.719
	 M65.591,410.819h12.5v-27.4h19c20.4,0.101,24.301-13.1,24.301-21.899c0-8.899-3.9-22.101-24.301-22.101h-31.5V410.819z
	 M78.091,349.619h18.5c6.6,0,12.301,2.399,12.301,11.8c0,9-6.9,11.801-12.5,11.801h-18.3L78.091,349.619L78.091,349.619z"/>
</svg>
