<?xml version="1.0" encoding="utf-8"?>
<!-- Generator: Adobe Illustrator 16.0.0, SVG Export Plug-In . SVG Version: 6.00 Build 0)  -->
<!DOCTYPE svg PUBLIC "-//W3C//DTD SVG 1.1//EN" "http://www.w3.org/Graphics/SVG/1.1/DTD/svg11.dtd">
<svg version="1.1" id="Layer_1" xmlns="http://www.w3.org/2000/svg" xmlns:xlink="http://www.w3.org/1999/xlink" x="0px" y="0px"
	 width="313.098px" height="253.104px" viewBox="0 0 313.098 253.104" enable-background="new 0 0 313.098 253.104"
	 xml:space="preserve">
<path fill="#FFFFFF" d="M225.282,247.24l5.577-7.888v7.888H225.282z M232.793,247.24v-10.359h-1.288l-7.371,10.522v1.5h6.727v4.195
	h1.936v-4.195h2.136v-1.663H232.793z M210.907,241.428c0.202-1.391,0.586-2.409,1.147-3.06c0.413-0.478,0.887-0.716,1.418-0.716
	c0.452,0,0.84,0.129,1.159,0.388c0.444,0.375,0.81,1.013,1.091,1.91c0.375,1.212,0.562,2.723,0.562,4.534
	c0,2.444-0.182,4.342-0.539,5.685c-0.231,0.893-0.578,1.524-1.03,1.904c-0.451,0.38-0.892,0.567-1.312,0.567
	c-0.883,0-1.547-0.582-1.99-1.746c-0.539-1.384-0.809-3.168-0.809-5.354C210.603,244.19,210.704,242.819,210.907,241.428
	 M209.583,250.698c1.009,1.788,2.27,2.684,3.785,2.684c0.767,0,1.562-0.291,2.385-0.872c0.824-0.581,1.503-1.519,2.033-2.808
	s0.797-2.854,0.797-4.699c0-2.632-0.604-4.719-1.814-6.258c-0.97-1.242-2.062-1.862-3.283-1.862c-0.75,0-1.476,0.255-2.178,0.763
	c-0.908,0.642-1.634,1.615-2.182,2.924c-0.547,1.31-0.818,2.869-0.818,4.683C208.306,247.373,208.731,249.19,209.583,250.698
	 M194.586,241.428c0.203-1.391,0.587-2.409,1.148-3.06c0.414-0.478,0.887-0.716,1.418-0.716c0.453,0,0.84,0.129,1.16,0.388
	c0.443,0.375,0.809,1.013,1.09,1.91c0.375,1.212,0.562,2.723,0.562,4.534c0,2.444-0.181,4.342-0.539,5.685
	c-0.233,0.893-0.577,1.524-1.03,1.904s-0.892,0.567-1.312,0.567c-0.883,0-1.547-0.582-1.991-1.746
	c-0.538-1.384-0.809-3.168-0.809-5.354C194.283,244.19,194.384,242.819,194.586,241.428 M193.263,250.698
	c1.008,1.788,2.271,2.684,3.785,2.684c0.766,0,1.561-0.291,2.385-0.872s1.502-1.519,2.033-2.808c0.53-1.289,0.797-2.854,0.797-4.699
	c0-2.632-0.604-4.719-1.815-6.258c-0.97-1.242-2.062-1.862-3.28-1.862c-0.75,0-1.479,0.255-2.182,0.763
	c-0.904,0.642-1.633,1.615-2.18,2.924c-0.547,1.31-0.82,2.869-0.82,4.683C191.985,247.373,192.411,249.19,193.263,250.698
	 M185.369,250.041c-0.203,0.354-0.44,0.623-0.717,0.813c-0.272,0.189-0.578,0.316-0.92,0.381c-0.34,0.062-0.933,0.095-1.773,0.095
	h-4.147c0.483-0.438,1.699-1.72,3.646-3.845c1.297-1.413,2.232-2.754,2.812-4.021c0.375-0.804,0.562-1.607,0.562-2.412
	c0-1.125-0.435-2.103-1.295-2.932c-0.862-0.828-1.938-1.242-3.229-1.242c-1.211,0-2.222,0.389-3.029,1.16
	c-0.809,0.772-1.312,1.883-1.506,3.328h0.436c0.297-0.884,0.756-1.554,1.377-2.011s1.32-0.688,2.104-0.688
	c0.857,0,1.599,0.324,2.215,0.975c0.617,0.647,0.927,1.478,0.927,2.482c0,1.321-0.562,2.776-1.688,4.371
	c-1.127,1.594-3.065,3.647-5.824,6.164v0.435h9.375l1.113-3.06h-0.436L185.369,250.041L185.369,250.041z M154.873,238.076
	c0.789,0,1.341,0.059,1.652,0.176c0.391,0.164,0.686,0.401,0.885,0.715c0.199,0.312,0.381,0.889,0.545,1.725h0.457l-0.176-3.479
	h-12.245v0.436h0.562c0.655,0,1.125,0.156,1.405,0.47c0.203,0.233,0.306,0.854,0.306,1.862v10.324c0,0.771-0.045,1.283-0.135,1.533
	c-0.091,0.25-0.261,0.438-0.511,0.562c-0.336,0.182-0.69,0.271-1.065,0.271h-0.562v0.436h12.245l1.371-3.983h-0.469
	c-0.51,0.979-1.006,1.707-1.488,2.19c-0.375,0.367-0.768,0.611-1.172,0.736c-0.406,0.125-1.062,0.188-1.957,0.188h-2.695
	c-0.438,0-0.733-0.045-0.891-0.135c-0.159-0.092-0.269-0.211-0.33-0.362c-0.062-0.152-0.094-0.58-0.094-1.283v-5.238h3.492
	c0.663,0,1.155,0.078,1.479,0.234c0.32,0.155,0.552,0.371,0.689,0.646c0.107,0.219,0.221,0.715,0.327,1.486h0.437v-5.53H156.5
	c-0.047,0.905-0.271,1.538-0.682,1.897c-0.305,0.272-0.908,0.409-1.813,0.409h-3.492v-6.28h4.359L154.873,238.076L154.873,238.076z
	 M139.209,236.847c-0.086,0.375-0.23,0.668-0.435,0.879c-0.155,0.146-0.34,0.224-0.551,0.224c-0.141,0-0.375-0.086-0.703-0.259
	c-1.117-0.562-2.25-0.844-3.397-0.844c-1.478,0-2.838,0.363-4.084,1.096c-1.247,0.729-2.226,1.762-2.937,3.089
	s-1.065,2.784-1.065,4.37c0,1.97,0.539,3.681,1.616,5.134c1.445,1.953,3.484,2.93,6.117,2.93c1.461,0,2.724-0.326,3.785-0.982
	c1.062-0.655,1.992-1.69,2.789-3.104l-0.363-0.232c-0.944,1.312-1.812,2.188-2.602,2.631c-0.789,0.44-1.699,0.662-2.73,0.662
	c-1.188,0-2.244-0.28-3.17-0.845c-0.926-0.562-1.619-1.37-2.08-2.427c-0.461-1.056-0.69-2.301-0.69-3.737
	c0-1.741,0.244-3.198,0.731-4.37c0.488-1.173,1.158-2.024,2.011-2.562c0.852-0.534,1.805-0.802,2.858-0.802
	c1.258,0,2.336,0.354,3.235,1.064c0.896,0.712,1.589,1.875,2.073,3.491h0.362l-0.362-5.4L139.209,236.847L139.209,236.847z
	 M103.202,237.644c0.461,0,0.805,0.034,1.03,0.104c0.461,0.147,0.812,0.311,1.05,0.479c0.237,0.171,0.588,0.525,1.049,1.064v11.052
	c0,0.892-0.086,1.462-0.258,1.712c-0.281,0.404-0.763,0.607-1.441,0.607h-0.551v0.436h5.53v-0.436h-0.562
	c-0.616,0-1.074-0.164-1.371-0.492c-0.211-0.241-0.316-0.853-0.316-1.827v-9.784l10.478,12.797h0.422V239.96
	c0-0.892,0.086-1.461,0.259-1.711c0.28-0.405,0.757-0.607,1.43-0.607h0.562v-0.436h-5.531v0.436h0.552
	c0.625,0,1.081,0.164,1.37,0.49c0.22,0.242,0.328,0.854,0.328,1.828v9.164l-9.714-11.918h-4.312v0.437L103.202,237.644
	L103.202,237.644z M98.038,252.666c-0.375,0-0.729-0.094-1.066-0.281c-0.25-0.141-0.413-0.308-0.491-0.504
	c-0.103-0.258-0.152-0.789-0.152-1.594v-10.267c0-0.953,0.098-1.557,0.293-1.807c0.297-0.383,0.771-0.572,1.418-0.572h0.574v-0.436
	h-6.81v0.436h0.563c0.375,0,0.733,0.094,1.077,0.279c0.242,0.143,0.401,0.311,0.479,0.506c0.103,0.258,0.152,0.788,0.152,1.594
	v10.267c0,0.953-0.094,1.555-0.281,1.805c-0.297,0.385-0.772,0.574-1.429,0.574h-0.563v0.436h6.81v-0.436H98.038L98.038,252.666z
	 M84.109,236.847c-0.078,0.365-0.183,0.609-0.312,0.73c-0.127,0.121-0.295,0.183-0.498,0.183c-0.178,0-0.487-0.099-0.924-0.294
	c-0.947-0.413-1.841-0.619-2.686-0.619c-1.352,0-2.465,0.41-3.34,1.234c-0.875,0.823-1.312,1.809-1.312,2.946
	c0,0.656,0.147,1.26,0.444,1.806c0.297,0.547,0.732,1.047,1.308,1.5c0.573,0.453,1.541,1.062,2.899,1.821
	c1.358,0.763,2.19,1.261,2.496,1.494c0.453,0.346,0.787,0.716,1.002,1.113c0.215,0.396,0.321,0.793,0.321,1.184
	c0,0.703-0.282,1.312-0.848,1.828c-0.568,0.517-1.34,0.772-2.316,0.772c-0.842,0-1.618-0.188-2.325-0.562s-1.231-0.846-1.576-1.411
	c-0.344-0.565-0.616-1.421-0.819-2.562H75.19v5.447h0.435c0.054-0.365,0.138-0.607,0.252-0.728c0.112-0.116,0.267-0.176,0.462-0.176
	c0.204,0,0.686,0.123,1.448,0.369c0.761,0.244,1.263,0.389,1.506,0.428c0.405,0.069,0.838,0.104,1.299,0.104
	c1.47,0,2.67-0.437,3.604-1.308c0.934-0.87,1.399-1.907,1.399-3.11c0-0.633-0.146-1.236-0.438-1.814s-0.711-1.08-1.254-1.506
	c-0.543-0.428-1.558-1.037-3.041-1.834c-1.82-0.979-2.973-1.76-3.457-2.346c-0.336-0.396-0.504-0.84-0.504-1.322
	c0-0.635,0.266-1.197,0.797-1.693s1.203-0.745,2.016-0.745c0.72,0,1.414,0.187,2.086,0.553c0.672,0.368,1.189,0.862,1.554,1.487
	c0.362,0.625,0.614,1.466,0.756,2.521h0.436v-5.495L84.109,236.847L84.109,236.847z M278.897,100.199
	c15.301,0,21.7,13.5,21.7,27.199c0,13.7-6.398,27.2-21.7,27.2c-15.299,0-21.699-13.5-21.699-27.2
	C257.198,113.699,263.599,100.199,278.897,100.199 M278.897,90c-21.398,0-34.199,17-34.199,37.398s12.801,37.398,34.199,37.398
	c21.399,0,34.2-17,34.2-37.398C313.098,107,300.298,90,278.897,90 M185.099,163.101h13.898l24.399-71.399h-12.701l-18.299,56.5
	h-0.201l-17.897-56.5h-13L185.099,163.101z M88.399,163.101h52.101v-10.802h-39.601V131.4h36V121.2h-36v-18.699h38.9V91.7h-51.4
	V163.101L88.399,163.101z M0,163.101h12.5v-29.399H30.9c11.5,0,14.2,5.801,14.2,18.899c0,3.5,0,7.398,1.9,10.5H60.4
	c-2.699-2.899-3.899-10.5-3.899-18.802c0-11.3-6.3-14.5-10.601-15.101v-0.199c2.301-0.801,11.801-4.301,11.801-18
	c0-12.102-8-19.301-23.601-19.301H0V163.101L0,163.101z M12.5,101.9h20.3c6.5,0,12.4,1.801,12.4,10.898
	c0,7.5-4.301,11.399-12.2,11.399H12.5V101.9z M218.249,73.101h12.5V45.7h19c20.399,0.102,24.3-13.101,24.3-21.898
	c0-8.899-3.899-22.102-24.3-22.102h-31.5V73.101L218.249,73.101z M230.749,11.9h18.5c6.6,0,12.3,2.399,12.3,11.801
	c0,9-6.899,11.801-12.5,11.801h-18.3V11.9L230.749,11.9z M154.649,10.199c15.301,0,21.699,13.5,21.699,27.199
	s-6.398,27.2-21.699,27.2s-21.699-13.501-21.699-27.2S139.348,10.199,154.649,10.199 M154.649,0c-21.399,0-34.199,17-34.199,37.398
	s12.8,37.398,34.199,37.398c21.397,0,34.199-17,34.199-37.398C188.849,17,176.048,0,154.649,0 M39.549,73.101h12.5V45.7h19
	C91.449,45.802,95.35,32.6,95.35,23.802C95.35,14.903,91.45,1.7,71.049,1.7h-31.5V73.101z M52.049,11.9h18.5
	c6.6,0,12.301,2.399,12.301,11.801c0,9-6.899,11.801-12.5,11.801h-18.3L52.049,11.9L52.049,11.9z"/>
</svg>
