<?xml version="1.0" encoding="utf-8"?>
<!-- Generator: Adobe Illustrator 16.0.0, SVG Export Plug-In . SVG Version: 6.00 Build 0)  -->
<!DOCTYPE svg PUBLIC "-//W3C//DTD SVG 1.1//EN" "http://www.w3.org/Graphics/SVG/1.1/DTD/svg11.dtd">
<svg version="1.1" id="Layer_1" xmlns="http://www.w3.org/2000/svg" xmlns:xlink="http://www.w3.org/1999/xlink" x="0px" y="0px"
	 width="247.485px" height="201.167px" viewBox="0 0 247.485 201.167" enable-background="new 0 0 247.485 201.167"
	 xml:space="preserve">
<path d="M191.326,175.003h9.01c1.424-3.873,5.139-5.059,8.933-5.059c7.271,0,10.513,5.454,10.513,11.54
	c0,6.719-2.608,12.173-10.275,12.173c-5.85,0-9.644-3.398-10.197-9.327h-9.01c0.395,11.066,8.694,16.837,19.365,16.837
	c13.595,0,19.128-10.988,19.128-19.84c0-10.593-6.323-18.497-17.31-18.497c-3.716,0-7.746,1.502-10.197,4.189l-0.158-0.158
	l2.846-14.07h21.896v-8.062h-28.614L191.326,175.003z M133.543,161.013h13.596v39.047h9.881v-55.331h-7.351
	c-1.345,6.641-8.537,9.249-16.126,9.17V161.013z M93.152,143.624c-15.888,0-19.128,16.203-19.128,28.771s3.241,28.772,19.128,28.772
	c15.888,0,19.129-16.204,19.129-28.772S109.041,143.624,93.152,143.624 M93.152,193.658c-7.904,0-10.117-9.723-10.117-21.263
	s2.213-21.263,10.117-21.263c7.905,0,10.118,9.723,10.118,21.263S101.057,193.658,93.152,193.658 M53.868,191.999H26.914
	c1.581-4.901,8.3-8.3,14.702-12.727c6.323-4.427,12.331-9.881,12.331-18.654c0-7.114-4.269-16.994-17.785-16.994
	c-12.331,0-19.05,9.09-19.05,21.342h9.012c0.237-7.746,2.371-13.833,9.485-13.833c7.747,0,9.406,5.849,9.327,9.801
	c-0.158,8.616-9.485,12.964-16.678,18.181c-7.43,4.98-12.094,11.856-12.173,20.946h37.783V191.999z M220.453,79.202
	c12.094,0,17.152,10.671,17.152,21.5c0,10.829-5.059,21.5-17.152,21.5c-12.095,0-17.152-10.671-17.152-21.5
	C203.3,89.873,208.358,79.202,220.453,79.202 M220.453,71.14c-16.916,0-27.033,13.438-27.033,29.562
	c0,16.125,10.117,29.562,27.033,29.562c16.915,0,27.032-13.438,27.032-29.562C247.485,84.577,237.368,71.14,220.453,71.14
	 M146.309,128.92h10.987l19.287-56.437h-10.039l-14.465,44.66h-0.158l-14.149-44.66h-10.275L146.309,128.92z M69.875,128.92h41.182
	v-8.536H79.755v-16.521h28.456v-8.062H79.755V81.02h30.748v-8.537H69.875V128.92z M0,128.92h9.881v-23.238h14.544
	c9.09,0,11.224,4.584,11.224,14.938c0,2.767,0,5.85,1.502,8.3h10.592c-2.134-2.292-3.083-8.3-3.083-14.86
	c0-8.932-4.979-11.461-8.379-11.935v-0.159c1.818-0.632,9.328-3.398,9.328-14.228c0-9.564-6.324-15.255-18.655-15.255H0V128.92z
	 M9.881,80.546h16.045c5.138,0,9.802,1.423,9.802,8.616c0,5.928-3.399,9.011-9.643,9.011H9.881V80.546z M172.513,57.781h9.88V36.123
	h15.019c16.125,0.079,19.208-10.354,19.208-17.311c0-7.035-3.083-17.469-19.208-17.469h-24.898V57.781z M182.393,9.406h14.624
	c5.216,0,9.722,1.897,9.722,9.327c0,7.114-5.454,9.327-9.881,9.327h-14.465V9.406z M122.241,8.062
	c12.094,0,17.152,10.671,17.152,21.5s-5.059,21.5-17.152,21.5s-17.152-10.671-17.152-21.5S110.147,8.062,122.241,8.062 M122.241,0
	c-16.916,0-27.033,13.438-27.033,29.562s10.118,29.562,27.033,29.562c16.916,0,27.033-13.437,27.033-29.562S139.157,0,122.241,0
	 M31.262,57.781h9.88V36.123h15.018c16.125,0.079,19.208-10.354,19.208-17.311c0-7.035-3.083-17.469-19.208-17.469H31.262V57.781z
	 M41.143,9.406h14.623c5.217,0,9.722,1.897,9.722,9.327c0,7.114-5.454,9.327-9.88,9.327H41.143V9.406z"/>
</svg>
