<?xml version="1.0" encoding="utf-8"?>
<!-- Generator: Adobe Illustrator 16.0.0, SVG Export Plug-In . SVG Version: 6.00 Build 0)  -->
<!DOCTYPE svg PUBLIC "-//W3C//DTD SVG 1.1//EN" "http://www.w3.org/Graphics/SVG/1.1/DTD/svg11.dtd">
<svg version="1.1" id="Layer_1" xmlns="http://www.w3.org/2000/svg" xmlns:xlink="http://www.w3.org/1999/xlink" x="0px" y="0px"
	 width="231.047px" height="203.985px" viewBox="0 0 231.047 203.985" enable-background="new 0 0 231.047 203.985"
	 xml:space="preserve">
<path d="M87.282,31.038c2.473,0,5.544-1.577,6.372-4.517c0.181-0.713,0.223-1.518,0.267-2.371c0.143-2.756,0.401-4.385,3.138-4.194
	c-0.97,1.892-1.557,3.792-1.195,6.472c0.14,1.171,0.503,2.223,1.168,3.363c-0.675,1.574-1.84,3.706-2.495,4.375
	c-0.441,0.45-0.82,0.732-1.154,0.982c-1.106,0.825-1.529,1.392-0.945,3.353c0.472,1.583,0.509,2.248,0.38,3.446
	c-0.052,0.485-0.176,0.727-0.285,0.939c-0.25,0.489-0.386,1.025,0.311,1.642c0.045,0.04,0.086,0.072,0.128,0.097
	c-0.01,0.018-0.02,0.036-0.029,0.056l-0.812,1.749c-0.103,0.22-0.09,0.476,0.033,0.685c0.123,0.208,0.34,0.344,0.582,0.362
	l0.669,0.052c1.326,0.104,2.218,0.152,3.292,0.012c0.312-0.041,0.563-0.275,0.626-0.583c0.19-0.926-0.492-2.486-1.444-3.328
	c-0.343-0.513-0.694-2.213,0.265-4.629c0.484-1.222,1.372-1.638,2.311-2.079c0.596-0.28,1.206-0.566,1.658-1.062
	c-0.036,0.172-0.094,0.313-0.151,0.451c-0.55,1.338,0.312,1.828,1.884,2.579c0.139,0.066,0.262,0.121,0.379,0.172
	c0.591,0.261,1.019,0.449,3.217,2.432c1.083,0.977,1.562,1.986,1.579,2.169c-0.018,0.074-0.023,0.151-0.016,0.227
	c0.042,0.494,0.37,0.708,0.574,0.803c-0.099,0.079-0.178,0.183-0.226,0.304c-0.088,0.22-0.209,0.435-0.328,0.643
	c-0.186,0.328-0.361,0.638-0.409,0.977c-0.052,0.36,0.167,0.704,0.514,0.81c0.519,0.159,1.266,0.246,2.103,0.246
	c0.71,0,1.424-0.062,2.01-0.177c0.331-0.064,0.575-0.344,0.595-0.68c0.053-0.878-0.263-1.871-0.965-3.036
	c-0.03-0.05-0.066-0.097-0.107-0.138c-1.974-1.996-5.445-6.413-4.452-8.841c0.583-1.427,0.967-2.587,1.204-3.736
	c0.073,0.04,0.151,0.078,0.235,0.112l0.176,0.073c0.685,0.283,1.602,0.662,2.852,1.097c0.099,0.073,0.217,0.123,0.348,0.139
	c0.413,0.051,0.696,0.535,1.115,1.326c0.553,1.047,1.311,2.48,3.146,2.48c0.313,0,0.592-0.197,0.696-0.492
	c0.109-0.31,0.052-0.668-0.152-0.938c-0.125-0.164-0.34-0.609-0.464-0.914c0.07-0.07,0.152-0.141,0.246-0.215
	c0.902,0.158,1.827,0.255,2.761,0.29l-0.269,0.353c-0.193,0.254-0.201,0.605-0.019,0.868l0.196,0.282
	c0.12,0.172,0.308,0.285,0.515,0.311c0.432,0.053,0.945,0.185,1.488,0.323c0.883,0.226,1.795,0.459,2.681,0.459
	c1.031,0,1.846-0.336,2.422-0.999c0.186-0.214,0.232-0.515,0.12-0.775c-0.111-0.26-0.362-0.433-0.646-0.446
	c-1.104-0.048-1.571-0.326-2.035-0.664c0.657-0.107,1.314-0.243,1.968-0.405c1.221,1.415,1.536,3.604,1.711,4.819
	c0.073,0.506,0.117,0.812,0.211,1.036c0.602,1.442,0.942,2.54,1.014,3.264c0.071,0.725-0.375,1.561-0.552,1.82
	c-0.2,0.29-0.168,0.681,0.077,0.934c0.024,0.024,0.072,0.07,0.146,0.125c-0.312,0.5-0.383,1.146-0.398,1.36
	c-0.029,0.401,0.269,0.752,0.669,0.789c0.048,0.004,1.194,0.107,2.41,0.107c0.549,0,1.029-0.021,1.429-0.063
	c0.322-0.033,0.587-0.212,0.726-0.491c0.259-0.517-0.024-1.122-0.355-1.674c-0.285-0.52-0.699-1.054-1.014-1.438
	c-0.796-2.151-0.795-3.346-0.793-4.501c0-0.684,0.001-1.333-0.163-2.102c0.004-0.327,0.034-0.875,0.089-1.595
	c0.41,0.166,0.815,0.326,1.203,0.48c0.893,0.354,1.664,0.659,2.198,0.899c0.771,0.388,0.736,0.521,0.678,0.741
	c-0.12,0.449,0.063,0.884,0.275,1.388c0.396,0.94,0.845,2.007-0.306,3.233c-0.106,0.113-0.175,0.258-0.194,0.412
	c-0.054,0.428,0.209,0.713,0.439,0.904c-0.042,0.071-0.073,0.15-0.091,0.233c-0.064,0.322-0.297,0.435-0.304,0.439
	c-0.212,0.08-0.375,0.251-0.443,0.466c-0.068,0.215-0.035,0.45,0.091,0.637c0.536,0.794,2.306,2.019,3.557,2.018
	c0.152,0,0.298-0.017,0.434-0.051c0.211-0.052,0.387-0.194,0.482-0.387c0.503-1.011,0.295-2.188-0.005-3.311
	c-0.016-0.061-0.04-0.12-0.071-0.174c-0.498-0.878-0.65-3.972-0.707-5.136l-0.01-0.189c0.024-0.185,0.052-0.361,0.076-0.53
	c0.222-1.477,0.43-2.873-1.868-4.073c-0.149-0.078-0.291-0.145-0.429-0.21c-0.443-0.209-0.793-0.374-1.354-0.935
	c-0.929-0.932-1.747-1.641-2.382-2.16c0.773-1.515,0.43-4.167,0.168-6.184c-0.084-0.646-0.156-1.203-0.156-1.494
	c0-0.334-0.026-0.721-0.055-1.13c-0.069-1.014-0.165-2.403,0.292-2.854c0.035-0.035,0.066-0.072,0.094-0.113
	c0.194-0.288,0.663-0.511,0.954-0.537c0.001,0.001,0.002,0.002,0.004,0.004c0.171,0.503,0.223,2.644-0.122,4.372
	c-0.043,0.217,0.013,0.441,0.152,0.612c0.088,0.107,0.203,0.186,0.331,0.23l0.049,0.025c0.216,0.116,0.542,0.29,0.887,0.29
	c0.297,0,0.565-0.131,0.736-0.36c0.088-0.117,0.147-0.248,0.19-0.386c0.071,0.3,0.195,0.538,0.449,0.665
	c0.462,0.336,0.964,0.507,1.492,0.507c0.686,0,1.263-0.301,1.583-0.541c0.421-0.115,0.85-0.29,1.042-0.7
	c0.197-0.421,0.015-0.8-0.074-0.983c-0.024-0.05-0.061-0.126-0.063-0.149c0.214-2.249,0.497-3.573,0.668-3.852
	c0.147-0.238,0.265-0.342,0.4-0.462c0.505-0.446,0.726-0.851,0.701-2.07l-0.003-0.137c-0.022-1.074-0.051-2.41,0.038-3.47
	c0.019-0.225,0.06-0.425,0.097-0.613c0.098-0.5,0.208-1.067-0.075-1.719c-0.138-0.318-0.478-0.496-0.819-0.43
	c-0.523,0.103-0.866,0.343-1.104,0.586c-0.958-1.217-2.265-2.853-4.08-2.925c-0.235-0.009-0.426,0.081-0.57,0.235
	c-0.203-0.173-0.432-0.352-0.69-0.517c0.625-0.11,1.242-0.226,1.85-0.348c1.71-0.343,3.256-0.711,4.725-1.126
	c1.768-0.501,3.276-1.027,4.615-1.609c0.37-0.161,0.542-0.588,0.387-0.96c-0.153-0.373-0.579-0.551-0.953-0.402
	c-1.294,0.515-2.756,0.972-4.468,1.4c-1.437,0.357-2.951,0.668-4.63,0.951c-1.525,0.256-3.104,0.473-4.693,0.644
	c-0.785,0.084-1.571,0.158-2.354,0.217c-0.429,0.031-0.859,0.059-1.288,0.079l-0.498-0.189c-0.1-0.038-0.206-0.053-0.313-0.046
	l-1.427,0.1c-0.405-0.039-0.557-0.11-0.716-0.186c-0.144-0.067-0.322-0.152-0.583-0.194c-0.468-0.077-0.958-0.114-1.499-0.114
	c-1.224,0-2.453,0.192-3.643,0.378c-0.824,0.128-1.613,0.252-2.331,0.299c0.003-0.011,0.005-0.021,0.007-0.031
	c0.048-0.245,0.08-0.598,0.099-0.875c0.017-0.01,0.033-0.021,0.05-0.032c0.295-0.196,0.55-0.586,0.094-1.329
	c-0.002-0.001-0.003-0.003-0.004-0.005c0.047-0.118,0.075-0.265,0.043-0.436c-0.053-0.287-0.188-0.541-0.309-0.765
	c-0.017-0.033-0.034-0.064-0.052-0.097c0.065-0.196,0.112-0.505-0.114-0.798C115.473,0.297,114.704,0,113.724,0
	c-0.617,0-1.27,0.118-1.792,0.324c-1.115,0.441-1.81,1.875-1.665,2.817c0.006,0.038,0.008,0.084,0.011,0.138
	c0.019,0.313,0.052,0.858,0.379,1.368c-0.007,0.012-0.013,0.024-0.02,0.037l-0.225,0.463c-2.292,0.801-2.663,3.566-2.965,5.808
	c-0.213,1.582-0.433,3.218-1.215,3.54c-0.229,0.094-0.395,0.297-0.443,0.54s0.029,0.657,0.205,0.831l0.207,0.369h-0.235
	c-0.242,0-0.502-0.17-0.774-0.177c-0.311-0.008-0.637-0.098-0.97-0.098c-0.974,0-2.234,0.021-3.346,0.499
	c-0.673,0.289-1.521,0.702-1.992,0.948c-1.908-1.193-4.048-1.881-5.935-1.881c-3.058,0-5.159,1.751-5.764,4.814
	c-0.109,0.552-0.082,1.375-0.051,2.331c0.055,1.655,0.137,4.156-0.69,5.01c-0.202,0.208-0.455,0.305-0.797,0.305c0,0,0,0,0,0
	c-0.474,0-1.084-0.186-1.813-0.553c-0.282-0.142-0.623-0.089-0.848,0.132c-0.225,0.221-0.285,0.561-0.149,0.845
	C83.634,30.08,85.254,31.038,87.282,31.038z M124.064,7.299l0.693,0.417c-0.122,0.154-0.182,0.354-0.154,0.557
	c0.023,0.171,0.104,0.325,0.225,0.438c-0.738,0.111-1.607,0.336-2.43,0.993c-0.229,0.183-0.328,0.484-0.252,0.767
	c0.051,0.188,0.171,0.345,0.332,0.441c-0.562,0.245-1.212,0.604-1.71,1.165c-0.171-0.146-0.36-0.247-0.534-0.34
	c-0.102-0.055-0.214-0.114-0.336-0.191c-0.191-0.156-0.51-0.323-1.145-0.641c-0.206-0.103-0.483-0.242-0.664-0.337l-0.073-0.634
	c-0.038-0.336-0.301-0.603-0.636-0.647l-0.229-0.03c1.635-0.576,4.178-1.418,6.011-1.771c0.259-0.05,0.439-0.154,0.572-0.252
	C123.885,7.261,123.994,7.284,124.064,7.299z M118.383,16.235c-0.071,0-0.148-0.272-0.229-0.328
	c-0.278-0.195-0.595-0.499-0.78-0.755c-0.103-0.142-0.243-0.3-0.442-0.417c0.114-0.072,0.21-0.188,0.269-0.298
	c0.038-0.073,0.075-0.148,0.11-0.208c0.043,0.077,0.098,0.141,0.168,0.201l0.691,0.587c0.085,0.124,0.206,0.225,0.353,0.292
	c0.039,0.271,0.225,0.664,0.485,0.755c0.009,0.003,0.017,0.172,0.024,0.172H118.383z M155.499,150.235h9.37l-18.002,52h-10.256
	l-17.559-52h9.591l13.207,41h0.147L155.499,150.235z M34,177.72v-0.147c1-0.59,8.663-3.082,8.663-13.189
	c0-8.928-5.945-14.148-17.455-14.148H0v52h9v-21h13.848c8.484,0,10.477,3.934,10.477,13.598c0,2.582,0,5.402,1.402,7.402h9.886
	c-1.992-2-2.835-7.498-2.835-13.623C41.777,180.276,37,178.163,34,177.72z M24.397,174.235H9v-17h15.25
	c4.795,0,9.148,1.602,9.148,8.316C33.398,171.084,30.226,174.235,24.397,174.235z M75,195.235h28v7H65v-52h38v8H75v13h26v8H75
	V195.235z M205.815,148.799c-15.788,0-25.231,12.542-25.231,27.593s9.443,27.593,25.231,27.593s25.231-12.542,25.231-27.593
	S221.604,148.799,205.815,148.799z M205.815,196.459c-11.288,0-16.01-9.96-16.01-20.067s4.722-20.067,16.01-20.067
	s16.01,9.96,16.01,20.067S217.104,196.459,205.815,196.459z M139.379,109.992c0-15.05-9.443-27.593-25.232-27.593
	s-25.232,12.542-25.232,27.593c0,15.051,9.443,27.593,25.232,27.593S139.379,125.042,139.379,109.992z M114.147,130.059
	c-11.288,0-16.01-9.96-16.01-20.067s4.722-20.067,16.01-20.067c11.288,0,16.009,9.96,16.009,20.067S125.435,130.059,114.147,130.059
	z M70.397,99.808c0-6.565-2.877-16.573-17.928-16.573H30v53h8v-20h14.469C67.52,116.235,70.397,106.301,70.397,99.808z
	 M51.953,109.235H38v-18h14.101c4.869,0,9.075,2.064,9.075,9C61.175,106.875,56.084,109.235,51.953,109.235z M202.238,99.808
	c0-6.565-2.878-16.573-17.929-16.573H161v53h9v-20h14.31C199.36,116.235,202.238,106.301,202.238,99.808z M170,109.235v-18h13.941
	c4.869,0,9.074,2.064,9.074,9c0,6.641-5.091,9-9.223,9H170z"/>
</svg>
