<?xml version="1.0" encoding="utf-8"?>
<!-- Generator: Adobe Illustrator 16.0.0, SVG Export Plug-In . SVG Version: 6.00 Build 0)  -->
<!DOCTYPE svg PUBLIC "-//W3C//DTD SVG 1.1//EN" "http://www.w3.org/Graphics/SVG/1.1/DTD/svg11.dtd">
<svg version="1.1" id="Layer_1" xmlns="http://www.w3.org/2000/svg" xmlns:xlink="http://www.w3.org/1999/xlink" x="0px" y="0px"
	 width="313.098px" height="253.104px" viewBox="0 0 313.098 253.104" enable-background="new 0 0 313.098 253.104"
	 xml:space="preserve">
<path d="M225.282,247.24l5.578-7.887v7.887H225.282z M232.793,247.24v-10.359h-1.288l-7.371,10.523v1.5h6.727v4.195h1.935v-4.195
	h2.136v-1.664H232.793z M210.907,241.428c0.203-1.391,0.586-2.409,1.148-3.06c0.413-0.477,0.887-0.715,1.418-0.715
	c0.452,0,0.84,0.128,1.159,0.387c0.444,0.375,0.81,1.013,1.091,1.91c0.375,1.212,0.562,2.723,0.562,4.535
	c0,2.444-0.181,4.341-0.539,5.684c-0.231,0.893-0.578,1.525-1.03,1.904c-0.451,0.38-0.892,0.568-1.312,0.568
	c-0.883,0-1.547-0.582-1.991-1.746c-0.539-1.384-0.808-3.168-0.808-5.355C210.603,244.19,210.704,242.819,210.907,241.428
	 M209.583,250.698c1.009,1.789,2.27,2.684,3.785,2.684c0.767,0,1.562-0.291,2.385-0.872c0.824-0.581,1.503-1.519,2.033-2.808
	c0.531-1.289,0.797-2.854,0.797-4.699c0-2.632-0.604-4.719-1.814-6.258c-0.97-1.242-2.062-1.862-3.283-1.862
	c-0.75,0-1.476,0.255-2.178,0.763c-0.908,0.641-1.634,1.615-2.182,2.924c-0.547,1.309-0.818,2.869-0.818,4.682
	C208.306,247.373,208.731,249.19,209.583,250.698 M194.586,241.428c0.203-1.391,0.587-2.409,1.149-3.06
	c0.414-0.477,0.886-0.715,1.418-0.715c0.453,0,0.839,0.128,1.16,0.387c0.443,0.375,0.808,1.013,1.09,1.91
	c0.375,1.212,0.562,2.723,0.562,4.535c0,2.444-0.181,4.341-0.539,5.684c-0.233,0.893-0.577,1.525-1.03,1.904
	c-0.453,0.38-0.892,0.568-1.312,0.568c-0.883,0-1.547-0.582-1.991-1.746c-0.538-1.384-0.809-3.168-0.809-5.355
	C194.283,244.19,194.384,242.819,194.586,241.428 M193.263,250.698c1.008,1.789,2.271,2.684,3.785,2.684
	c0.766,0,1.561-0.291,2.385-0.872s1.502-1.519,2.033-2.808c0.53-1.289,0.797-2.854,0.797-4.699c0-2.632-0.604-4.719-1.815-6.258
	c-0.97-1.242-2.062-1.862-3.281-1.862c-0.75,0-1.478,0.255-2.181,0.763c-0.905,0.641-1.633,1.615-2.18,2.924s-0.82,2.869-0.82,4.682
	C191.985,247.373,192.411,249.19,193.263,250.698 M185.369,250.041c-0.203,0.354-0.44,0.623-0.716,0.814
	c-0.273,0.189-0.579,0.316-0.92,0.381c-0.34,0.062-0.933,0.094-1.774,0.094h-4.147c0.483-0.438,1.699-1.719,3.646-3.844
	c1.297-1.414,2.233-2.754,2.812-4.021c0.375-0.804,0.562-1.607,0.562-2.412c0-1.125-0.434-2.103-1.295-2.932
	c-0.862-0.828-1.938-1.242-3.229-1.242c-1.211,0-2.222,0.389-3.029,1.16c-0.809,0.773-1.312,1.883-1.506,3.328h0.435
	c0.297-0.883,0.756-1.553,1.377-2.01s1.321-0.688,2.104-0.688c0.857,0,1.598,0.324,2.215,0.975c0.617,0.647,0.926,1.477,0.926,2.482
	c0,1.321-0.562,2.777-1.688,4.371c-1.127,1.594-3.066,3.648-5.824,6.164v0.435h9.375l1.113-3.06h-0.436L185.369,250.041
	L185.369,250.041z M154.873,238.076c0.789,0,1.341,0.059,1.653,0.176c0.39,0.164,0.685,0.402,0.884,0.715
	c0.2,0.312,0.381,0.889,0.545,1.725h0.457l-0.175-3.48h-12.246v0.436h0.562c0.655,0,1.125,0.156,1.405,0.469
	c0.203,0.234,0.306,0.855,0.306,1.863v10.324c0,0.771-0.045,1.283-0.135,1.533c-0.091,0.25-0.261,0.438-0.511,0.562
	c-0.336,0.181-0.69,0.27-1.065,0.27h-0.562v0.436h12.246l1.371-3.984h-0.469c-0.51,0.979-1.006,1.707-1.488,2.191
	c-0.375,0.367-0.768,0.611-1.172,0.736c-0.406,0.125-1.062,0.188-1.957,0.188h-2.696c-0.437,0-0.733-0.045-0.89-0.135
	c-0.159-0.092-0.269-0.211-0.33-0.363c-0.063-0.152-0.094-0.58-0.094-1.283v-5.238h3.492c0.663,0,1.155,0.078,1.479,0.234
	c0.32,0.156,0.551,0.371,0.689,0.646c0.108,0.219,0.221,0.715,0.327,1.486h0.437v-5.53H156.5c-0.047,0.905-0.271,1.538-0.681,1.897
	c-0.305,0.273-0.909,0.41-1.814,0.41h-3.492v-6.281h4.359L154.873,238.076L154.873,238.076z M139.209,236.847
	c-0.086,0.375-0.23,0.668-0.434,0.879c-0.156,0.146-0.34,0.223-0.551,0.223c-0.141,0-0.375-0.086-0.703-0.258
	c-1.117-0.562-2.25-0.844-3.398-0.844c-1.477,0-2.838,0.363-4.084,1.096c-1.247,0.729-2.225,1.761-2.936,3.088
	c-0.711,1.328-1.066,2.785-1.066,4.371c0,1.969,0.539,3.68,1.617,5.133c1.445,1.953,3.484,2.93,6.117,2.93
	c1.461,0,2.723-0.326,3.785-0.982s1.992-1.691,2.789-3.105l-0.363-0.232c-0.945,1.312-1.813,2.188-2.602,2.631
	c-0.789,0.44-1.699,0.662-2.73,0.662c-1.188,0-2.244-0.281-3.17-0.845c-0.926-0.562-1.619-1.37-2.08-2.427
	c-0.461-1.055-0.691-2.301-0.691-3.737c0-1.741,0.244-3.198,0.732-4.37c0.488-1.173,1.158-2.025,2.01-2.562
	c0.852-0.534,1.805-0.802,2.859-0.802c1.258,0,2.336,0.354,3.235,1.065c0.897,0.712,1.589,1.875,2.073,3.491h0.363l-0.363-5.4
	L139.209,236.847L139.209,236.847z M103.202,237.644c0.461,0,0.805,0.034,1.031,0.104c0.461,0.148,0.811,0.311,1.049,0.48
	c0.238,0.171,0.588,0.525,1.049,1.064v11.052c0,0.892-0.086,1.462-0.258,1.712c-0.281,0.404-0.762,0.607-1.441,0.607h-0.551v0.436
	h5.531v-0.436h-0.562c-0.616,0-1.074-0.164-1.371-0.492c-0.211-0.241-0.316-0.852-0.316-1.827v-9.784l10.477,12.797h0.422V239.96
	c0-0.891,0.086-1.461,0.259-1.711c0.28-0.405,0.757-0.607,1.429-0.607h0.562v-0.436h-5.531v0.436h0.551
	c0.625,0,1.082,0.164,1.371,0.49c0.219,0.242,0.328,0.854,0.328,1.828v9.164l-9.714-11.918h-4.313v0.437L103.202,237.644
	L103.202,237.644z M98.038,252.666c-0.375,0-0.729-0.094-1.066-0.281c-0.25-0.141-0.413-0.308-0.491-0.504
	c-0.103-0.258-0.153-0.789-0.153-1.594v-10.266c0-0.953,0.098-1.557,0.293-1.807c0.297-0.383,0.771-0.572,1.418-0.572h0.575v-0.436
	h-6.81v0.436h0.563c0.375,0,0.734,0.094,1.078,0.279c0.242,0.143,0.401,0.311,0.479,0.506c0.103,0.258,0.152,0.788,0.152,1.594
	v10.266c0,0.953-0.093,1.555-0.281,1.805c-0.297,0.385-0.772,0.574-1.429,0.574h-0.563v0.436h6.81v-0.436H98.038L98.038,252.666z
	 M84.109,236.847c-0.078,0.365-0.183,0.609-0.312,0.73c-0.127,0.121-0.295,0.183-0.498,0.183c-0.178,0-0.487-0.099-0.924-0.294
	c-0.947-0.413-1.841-0.619-2.685-0.619c-1.352,0-2.465,0.41-3.34,1.234s-1.312,1.809-1.312,2.947c0,0.656,0.148,1.259,0.445,1.805
	c0.297,0.547,0.732,1.047,1.307,1.5c0.574,0.453,1.541,1.062,2.9,1.822c1.358,0.762,2.19,1.26,2.496,1.494
	c0.453,0.345,0.787,0.715,1.002,1.113c0.215,0.396,0.321,0.793,0.321,1.184c0,0.703-0.282,1.312-0.848,1.828
	c-0.568,0.516-1.339,0.772-2.316,0.772c-0.842,0-1.618-0.188-2.325-0.562s-1.232-0.846-1.576-1.412
	c-0.344-0.565-0.617-1.42-0.82-2.561H75.19v5.447h0.434c0.054-0.365,0.138-0.607,0.252-0.727c0.113-0.117,0.267-0.176,0.462-0.176
	c0.204,0,0.686,0.123,1.448,0.369c0.761,0.244,1.263,0.389,1.506,0.428c0.406,0.069,0.838,0.104,1.299,0.104
	c1.47,0,2.67-0.436,3.604-1.307c0.933-0.87,1.399-1.908,1.399-3.111c0-0.633-0.146-1.236-0.438-1.814s-0.711-1.08-1.254-1.506
	c-0.543-0.428-1.558-1.037-3.041-1.834c-1.821-0.979-2.973-1.76-3.457-2.346c-0.336-0.396-0.504-0.84-0.504-1.322
	c0-0.635,0.265-1.197,0.797-1.693c0.531-0.496,1.203-0.745,2.015-0.745c0.72,0,1.414,0.186,2.086,0.552
	c0.672,0.368,1.19,0.863,1.554,1.488c0.362,0.625,0.614,1.465,0.756,2.521h0.435v-5.495L84.109,236.847L84.109,236.847z
	 M278.897,100.199c15.301,0,21.7,13.5,21.7,27.2s-6.399,27.2-21.7,27.2c-15.299,0-21.699-13.5-21.699-27.2
	S263.599,100.199,278.897,100.199 M278.897,90c-21.399,0-34.199,17-34.199,37.399c0,20.398,12.8,37.398,34.199,37.398
	s34.2-17,34.2-37.398C313.098,107,300.298,90,278.897,90 M185.099,163.101h13.898l24.4-71.4h-12.701l-18.299,56.5h-0.201
	l-17.898-56.5h-13L185.099,163.101z M88.399,163.101h52.1v-10.802h-39.6V131.4h36v-10.2h-36v-18.699h38.9V91.7h-51.4V163.101z
	 M0,163.101h12.5v-29.4h18.4c11.5,0,14.2,5.801,14.2,18.9c0,3.5,0,7.398,1.9,10.5h13.4c-2.7-2.9-3.9-10.5-3.9-18.802
	c0-11.3-6.3-14.5-10.6-15.101v-0.199c2.3-0.801,11.8-4.301,11.8-18c0-12.101-8-19.301-23.6-19.301H0V163.101L0,163.101z M12.5,101.9
	h20.3c6.5,0,12.4,1.8,12.4,10.898c0,7.5-4.3,11.399-12.2,11.399H12.5V101.9z M218.249,73.101h12.5V45.7h19
	c20.4,0.102,24.3-13.1,24.3-21.898c0-8.899-3.899-22.102-24.3-22.102h-31.5V73.101L218.249,73.101z M230.749,11.9h18.5
	c6.6,0,12.3,2.399,12.3,11.8c0,9-6.899,11.801-12.5,11.801h-18.3V11.9z M154.649,10.199c15.3,0,21.699,13.5,21.699,27.2
	c0,13.699-6.399,27.2-21.699,27.2c-15.301,0-21.7-13.501-21.7-27.2C132.949,23.699,139.348,10.199,154.649,10.199 M154.649,0
	c-21.4,0-34.2,17-34.2,37.399c0,20.398,12.8,37.398,34.2,37.398c21.397,0,34.199-17,34.199-37.398C188.849,17,176.048,0,154.649,0
	 M39.549,73.101h12.5V45.7h19c20.4,0.102,24.301-13.1,24.301-21.898c0-8.899-3.9-22.102-24.301-22.102h-31.5V73.101z M52.049,11.9
	h18.5c6.6,0,12.301,2.399,12.301,11.8c0,9-6.9,11.801-12.5,11.801h-18.3L52.049,11.9L52.049,11.9z"/>
</svg>
