<?xml version="1.0" encoding="utf-8"?>
<!-- Generator: Adobe Illustrator 16.0.0, SVG Export Plug-In . SVG Version: 6.00 Build 0)  -->
<!DOCTYPE svg PUBLIC "-//W3C//DTD SVG 1.1//EN" "http://www.w3.org/Graphics/SVG/1.1/DTD/svg11.dtd">
<svg version="1.1" id="Layer_1" xmlns="http://www.w3.org/2000/svg" xmlns:xlink="http://www.w3.org/1999/xlink" x="0px" y="0px"
	 width="241.189px" height="214.663px" viewBox="0 0 241.189 214.663" enable-background="new 0 0 241.189 214.663"
	 xml:space="preserve">
<path d="M156.35,202.143l-0.1,0.334c0.566,0.018,0.982,0.095,1.251,0.229c0.268,0.135,0.519,0.384,0.754,0.744l-2.429,8.514
	c-0.217,0.759-0.412,1.27-0.586,1.535c-0.121,0.174-0.305,0.315-0.552,0.424c-0.162,0.072-0.484,0.114-0.966,0.126l-0.126,0.334
	h3.846l0.09-0.334c-0.554-0.042-0.904-0.121-1.052-0.239c-0.147-0.117-0.221-0.29-0.221-0.519c0-0.308,0.081-0.749,0.243-1.327
	l2.176-7.628l4.072,10.327h0.324l2.88-10.093c0.198-0.704,0.394-1.197,0.587-1.48c0.138-0.198,0.349-0.361,0.632-0.487
	c0.199-0.09,0.502-0.133,0.911-0.126l0.108-0.334h-3.935l-0.1,0.334c0.077,0.006,0.152,0.009,0.226,0.009
	c0.427,0,0.719,0.063,0.875,0.189s0.234,0.301,0.234,0.523c0,0.325-0.083,0.782-0.253,1.372l-2.049,7.168l-3.781-9.596H156.35z
	 M148.22,203.384c0.439,0.629,0.658,1.353,0.658,2.171c0,1.107-0.243,2.3-0.73,3.579c-0.488,1.279-1.089,2.331-1.806,3.155
	c-0.571,0.656-1.12,1.119-1.647,1.39c-0.526,0.271-1.064,0.406-1.611,0.406c-0.908,0-1.582-0.329-2.021-0.988
	c-0.44-0.659-0.66-1.416-0.66-2.271c0-1.197,0.277-2.47,0.831-3.818c0.451-1.095,0.959-1.981,1.526-2.659
	c0.564-0.677,1.135-1.164,1.709-1.462c0.575-0.298,1.163-0.446,1.766-0.446C147.118,202.44,147.779,202.755,148.22,203.384
	 M143.778,202.467c-0.866,0.403-1.683,0.979-2.447,1.729c-0.764,0.749-1.422,1.682-1.972,2.798c-0.551,1.116-0.826,2.246-0.826,3.39
	c0,0.646,0.152,1.31,0.455,1.995c0.305,0.687,0.773,1.238,1.408,1.657c0.636,0.418,1.426,0.627,2.37,0.627
	c1.312,0,2.582-0.379,3.811-1.138c1.227-0.758,2.222-1.857,2.983-3.299c0.761-1.441,1.141-2.818,1.141-4.131
	c0-0.74-0.177-1.454-0.531-2.144c-0.355-0.689-0.847-1.21-1.472-1.562c-0.627-0.353-1.345-0.528-2.157-0.528
	C145.565,201.862,144.646,202.063,143.778,202.467 M131.473,213.909c-0.165-0.057-0.286-0.139-0.361-0.243
	c-0.075-0.105-0.113-0.233-0.113-0.384c0-0.187,0.097-0.62,0.289-1.3l2.121-7.385c0.223-0.765,0.405-1.258,0.547-1.48
	s0.347-0.395,0.618-0.515c0.187-0.09,0.472-0.133,0.857-0.126l0.1-0.334h-4.73l-0.108,0.334c0.463,0,0.775,0.028,0.935,0.085
	c0.159,0.059,0.278,0.141,0.356,0.249s0.117,0.24,0.117,0.396c0,0.313-0.09,0.776-0.271,1.391l-2.129,7.385
	c-0.212,0.728-0.416,1.233-0.614,1.517c-0.126,0.18-0.322,0.321-0.588,0.424c-0.162,0.072-0.495,0.114-1.002,0.126l-0.126,0.334
	h5.037l0.1-0.334C131.982,214.013,131.638,213.967,131.473,213.909 M116.188,205.392h0.334c0.168-0.632,0.385-1.119,0.65-1.462
	s0.612-0.604,1.042-0.785c0.431-0.181,0.998-0.271,1.702-0.271h0.731l-2.537,8.693c-0.253,0.867-0.45,1.435-0.591,1.702
	c-0.142,0.268-0.299,0.453-0.474,0.555c-0.252,0.15-0.613,0.226-1.083,0.226h-0.235l-0.099,0.334h5.325l0.108-0.334h-0.415
	c-0.487,0-0.828-0.073-1.02-0.221c-0.193-0.147-0.289-0.336-0.289-0.564c0-0.246,0.153-0.899,0.46-1.959l2.419-8.432h0.966
	c0.849,0,1.376,0.085,1.58,0.253c0.271,0.223,0.406,0.554,0.406,0.993c0,0.373-0.057,0.798-0.171,1.272h0.343l1.002-3.249h-9.298
	L116.188,205.392z M111.353,201.862c-0.253,0.283-0.433,0.454-0.542,0.515s-0.235,0.09-0.379,0.09c-0.145,0-0.378-0.06-0.704-0.181
	c-0.74-0.282-1.408-0.424-2.004-0.424c-1.27,0-2.529,0.361-3.777,1.083c-1.249,0.723-2.232,1.716-2.948,2.979
	s-1.074,2.563-1.074,3.899c0,0.873,0.202,1.688,0.604,2.446c0.404,0.759,0.99,1.347,1.76,1.766c0.771,0.418,1.656,0.627,2.655,0.627
	c1.125,0,2.092-0.248,2.898-0.745c0.806-0.496,1.54-1.271,2.202-2.324h-0.424c-0.559,0.776-1.166,1.352-1.819,1.725
	c-0.653,0.374-1.398,0.56-2.234,0.56c-1.107,0-2.007-0.354-2.699-1.061c-0.692-0.707-1.038-1.654-1.038-2.84
	c0-1.161,0.241-2.308,0.722-3.439c0.584-1.372,1.391-2.434,2.419-3.187c0.807-0.59,1.748-0.885,2.826-0.885
	c0.403,0,0.771,0.059,1.102,0.177c0.331,0.117,0.604,0.279,0.821,0.486c0.216,0.208,0.379,0.454,0.487,0.736
	c0.108,0.283,0.177,0.605,0.208,0.966l0.036,0.993h0.325l0.912-3.963H111.353z M91.324,209.698h-3.079l3.548-4.83L91.324,209.698z
	 M93.265,201.862l-7.312,9.948c-0.674,0.915-1.182,1.512-1.521,1.792c-0.34,0.279-0.732,0.429-1.178,0.446l-0.099,0.334h3.62
	l0.099-0.334c-0.361-0.012-0.62-0.087-0.776-0.226c-0.156-0.138-0.234-0.304-0.234-0.496c0-0.145,0.036-0.3,0.108-0.465
	c0.073-0.166,0.25-0.438,0.533-0.817l1.246-1.688h3.502l-0.145,1.553c-0.06,0.691-0.124,1.131-0.189,1.317
	c-0.097,0.265-0.232,0.454-0.406,0.569c-0.247,0.168-0.566,0.252-0.957,0.252h-0.208l-0.1,0.334h4.821l0.099-0.334
	c-0.464,0-0.793-0.042-0.988-0.126c-0.196-0.084-0.352-0.214-0.465-0.389c-0.09-0.126-0.136-0.31-0.136-0.551
	c0-0.149,0.024-0.463,0.072-0.938l0.93-10.183H93.265z M80.242,202.792c0.836,0,1.375,0.03,1.616,0.091
	c0.343,0.096,0.624,0.26,0.843,0.491c0.22,0.232,0.33,0.547,0.33,0.943c0,0.241-0.033,0.548-0.099,0.921h0.343l0.902-3.096h-9.496
	l-0.108,0.334c0.457,0,0.762,0.026,0.916,0.081c0.154,0.054,0.27,0.137,0.348,0.248c0.078,0.111,0.118,0.245,0.118,0.401
	c0,0.337-0.088,0.804-0.262,1.398l-2.158,7.377c-0.223,0.77-0.416,1.278-0.578,1.525c-0.115,0.174-0.292,0.312-0.532,0.415
	c-0.157,0.072-0.47,0.114-0.939,0.126l-0.118,0.334h4.839l0.107-0.334c-0.644-0.042-1.048-0.123-1.214-0.243
	s-0.248-0.292-0.248-0.515c0-0.217,0.096-0.653,0.289-1.309l1.065-3.692h1.625c0.668,0,1.124,0.101,1.367,0.302
	c0.244,0.202,0.366,0.486,0.366,0.854c0,0.234-0.045,0.532-0.136,0.894h0.361l1.272-4.459H80.72
	c-0.379,0.728-0.748,1.203-1.105,1.426c-0.358,0.223-0.898,0.334-1.621,0.334h-1.607l1.444-4.848H80.242z M206.215,192.478
	l6.147-9.479l-0.993,9.479h0.334l6.147-9.479c0.602-0.926,0.999-1.498,1.191-1.714c0.337-0.374,0.629-0.626,0.876-0.76
	c0.247-0.131,0.529-0.21,0.85-0.233l0.089-0.334h-3.629l-0.072,0.334c0.35,0.036,0.596,0.118,0.74,0.248
	c0.145,0.129,0.217,0.278,0.217,0.447c0,0.18-0.054,0.399-0.162,0.658s-0.373,0.71-0.795,1.354l-3.872,5.887
	c0.258-2.228,0.452-3.987,0.583-5.281c0.128-1.294,0.202-1.992,0.22-2.094c0.061-0.355,0.141-0.606,0.239-0.754
	c0.1-0.147,0.222-0.255,0.366-0.32c0.198-0.091,0.583-0.139,1.155-0.145l0.1-0.334h-4.956l-0.072,0.334
	c0.655,0.041,1.083,0.153,1.281,0.334c0.199,0.181,0.298,0.439,0.298,0.776c0,0.084-0.003,0.187-0.009,0.307l-4.649,7.177
	l0.678-6.608c0.084-0.878,0.239-1.432,0.465-1.657s0.646-0.334,1.259-0.328l0.1-0.334h-4.586l-0.1,0.334
	c0.518,0.011,0.876,0.107,1.074,0.289c0.199,0.18,0.299,0.445,0.299,0.794c0,0.21-0.021,0.512-0.062,0.902l-1.058,10.201H206.215z
	 M197.515,181.197c0.439,0.63,0.66,1.354,0.66,2.172c0,1.107-0.244,2.301-0.732,3.579c-0.486,1.278-1.089,2.331-1.805,3.155
	c-0.572,0.656-1.12,1.119-1.647,1.391c-0.527,0.271-1.064,0.406-1.611,0.406c-0.909,0-1.583-0.33-2.022-0.989
	s-0.658-1.415-0.658-2.271c0-1.197,0.276-2.47,0.83-3.819c0.452-1.094,0.96-1.98,1.525-2.658c0.566-0.677,1.136-1.164,1.711-1.462
	c0.574-0.298,1.163-0.446,1.765-0.446C196.414,180.255,197.076,180.569,197.515,181.197 M193.074,180.282
	c-0.866,0.402-1.683,0.979-2.446,1.729c-0.765,0.749-1.423,1.682-1.974,2.798c-0.55,1.117-0.825,2.247-0.825,3.39
	c0,0.645,0.151,1.31,0.456,1.995c0.304,0.687,0.773,1.238,1.408,1.657c0.635,0.417,1.425,0.627,2.369,0.627
	c1.312,0,2.583-0.379,3.81-1.138c1.228-0.758,2.223-1.858,2.983-3.299c0.763-1.441,1.143-2.818,1.143-4.13
	c0-0.74-0.178-1.455-0.533-2.145c-0.354-0.688-0.845-1.21-1.472-1.562c-0.625-0.352-1.345-0.527-2.156-0.527
	C194.861,179.677,193.941,179.879,193.074,180.282 M178.092,180.787c0.583-0.103,1.08-0.153,1.489-0.153
	c0.759,0,1.324,0.178,1.697,0.532s0.561,0.836,0.561,1.444c0,0.584-0.152,1.146-0.456,1.688c-0.305,0.542-0.726,0.948-1.264,1.219
	c-0.54,0.271-1.137,0.406-1.793,0.406c-0.415,0-0.963-0.087-1.643-0.263L178.092,180.787z M174.896,180.291
	c0.585,0.03,0.962,0.114,1.134,0.253c0.172,0.138,0.257,0.312,0.257,0.522c0,0.283-0.12,0.844-0.361,1.68l-2.022,6.969
	c-0.289,0.993-0.558,1.6-0.808,1.818c-0.249,0.221-0.693,0.331-1.331,0.331l-0.099,0.334h4.864l0.091-0.334
	c-0.613-0.036-1.002-0.118-1.164-0.244s-0.244-0.286-0.244-0.479c0-0.254,0.115-0.776,0.344-1.57l0.974-3.341
	c0.874,0.205,1.593,0.308,2.158,0.308c0.909,0,1.754-0.183,2.537-0.547c0.782-0.364,1.371-0.838,1.77-1.422
	c0.396-0.583,0.595-1.186,0.595-1.805c0-0.783-0.312-1.446-0.938-1.991c-0.625-0.544-1.57-0.816-2.834-0.816h-4.82L174.896,180.291z
	 M160.44,179.677c-0.168,0.265-0.305,0.432-0.41,0.501s-0.233,0.104-0.384,0.104c-0.133,0-0.34-0.058-0.623-0.173
	c-0.704-0.289-1.492-0.433-2.365-0.433c-1.186,0-2.317,0.262-3.394,0.785c-0.783,0.38-1.506,0.897-2.172,1.558
	c-0.665,0.658-1.22,1.466-1.665,2.419c-0.446,0.954-0.669,1.96-0.669,3.02c0,0.789,0.191,1.582,0.573,2.379
	c0.383,0.798,0.974,1.438,1.774,1.922c0.801,0.485,1.846,0.728,3.133,0.728c0.56,0,1.092-0.059,1.599-0.176
	c0.504-0.117,1.169-0.354,1.994-0.709l0.902-3.096c0.229-0.782,0.395-1.255,0.496-1.418c0.151-0.246,0.332-0.421,0.542-0.523
	c0.211-0.103,0.548-0.156,1.012-0.162l0.091-0.353h-5.093l-0.099,0.353h0.253c0.565,0,0.975,0.087,1.228,0.262
	c0.156,0.114,0.234,0.279,0.234,0.496c0,0.259-0.063,0.605-0.189,1.038l-0.894,3.151c-0.541,0.186-0.946,0.307-1.214,0.36
	c-0.269,0.055-0.552,0.081-0.854,0.081c-1.216,0-2.115-0.415-2.699-1.245c-0.584-0.831-0.875-1.817-0.875-2.962
	c0-1.721,0.473-3.276,1.416-4.666c1.187-1.758,2.716-2.636,4.587-2.636c0.914,0,1.633,0.227,2.152,0.681
	c0.521,0.455,0.781,0.977,0.781,1.566c0,0.217-0.027,0.551-0.081,1.002h0.343l0.912-3.854H160.44z M134.058,179.957l-0.1,0.334
	c0.565,0.018,0.982,0.095,1.25,0.229s0.52,0.384,0.754,0.744l-2.428,8.514c-0.217,0.758-0.412,1.271-0.587,1.535
	c-0.12,0.174-0.304,0.314-0.552,0.424c-0.162,0.072-0.484,0.114-0.966,0.127l-0.126,0.334h3.846l0.091-0.334
	c-0.554-0.043-0.904-0.122-1.053-0.239c-0.146-0.118-0.221-0.291-0.221-0.52c0-0.308,0.082-0.749,0.244-1.327l2.176-7.628
	l4.071,10.327h0.325l2.879-10.093c0.199-0.704,0.395-1.197,0.587-1.48c0.139-0.198,0.35-0.36,0.632-0.487
	c0.199-0.09,0.503-0.132,0.912-0.126l0.108-0.334h-3.937l-0.1,0.334c0.079,0.006,0.153,0.008,0.226,0.008
	c0.429,0,0.72,0.063,0.877,0.189c0.156,0.128,0.234,0.302,0.234,0.524c0,0.325-0.085,0.782-0.253,1.372l-2.05,7.168l-3.782-9.596
	H134.058z M124.465,187.513h-3.079l3.548-4.83L124.465,187.513z M126.405,179.677l-7.312,9.948
	c-0.674,0.914-1.181,1.512-1.522,1.792c-0.339,0.279-0.732,0.429-1.177,0.447l-0.099,0.334h3.619l0.1-0.334
	c-0.361-0.013-0.62-0.088-0.776-0.227c-0.157-0.138-0.235-0.304-0.235-0.496c0-0.145,0.036-0.3,0.108-0.465
	c0.072-0.166,0.25-0.438,0.533-0.817l1.246-1.688h3.503l-0.146,1.553c-0.06,0.691-0.123,1.131-0.188,1.317
	c-0.097,0.266-0.232,0.455-0.406,0.569c-0.247,0.168-0.566,0.253-0.957,0.253h-0.208l-0.1,0.334h4.821l0.099-0.334
	c-0.464,0-0.793-0.043-0.988-0.127s-0.351-0.214-0.465-0.388c-0.09-0.127-0.135-0.311-0.135-0.552c0-0.149,0.023-0.463,0.071-0.938
	l0.931-10.183H126.405z M106.927,186.05c0.277-0.018,0.512-0.026,0.705-0.026c0.998,0,1.722,0.207,2.17,0.623
	c0.449,0.415,0.673,0.992,0.673,1.732c0,0.97-0.363,1.736-1.088,2.303c-0.726,0.564-1.558,0.849-2.496,0.849
	c-0.368,0-0.876-0.043-1.526-0.128L106.927,186.05z M108.525,180.67c0.337-0.072,0.614-0.108,0.831-0.108
	c0.818,0,1.415,0.173,1.787,0.52c0.373,0.345,0.56,0.829,0.56,1.448c0,0.818-0.306,1.5-0.917,2.045s-1.542,0.817-2.794,0.817
	c-0.174,0-0.458-0.007-0.848-0.02L108.525,180.67z M105.601,180.299c0.463,0,0.777,0.064,0.943,0.194
	c0.166,0.129,0.249,0.307,0.249,0.529c0,0.252-0.094,0.69-0.28,1.317l-2.193,7.411c-0.241,0.818-0.434,1.343-0.578,1.571
	c-0.103,0.168-0.274,0.304-0.515,0.405c-0.168,0.079-0.487,0.124-0.957,0.137l-0.118,0.334h4.487c1.047,0,1.818-0.053,2.311-0.154
	c0.693-0.144,1.284-0.37,1.774-0.677c0.491-0.307,0.893-0.737,1.206-1.291s0.47-1.134,0.47-1.742c0-0.548-0.175-1.05-0.524-1.508
	s-0.894-0.824-1.634-1.102c1.149-0.271,1.978-0.69,2.487-1.259c0.509-0.569,0.763-1.205,0.763-1.909c0-0.458-0.144-0.891-0.429-1.3
	c-0.286-0.41-0.716-0.729-1.29-0.958c-0.576-0.228-1.23-0.342-1.964-0.342h-4.37l-0.126,0.334
	C105.402,180.297,105.499,180.299,105.601,180.299 M83.391,182.395c0.217-0.734,0.415-1.234,0.596-1.499
	c0.133-0.198,0.339-0.358,0.623-0.479c0.192-0.09,0.491-0.132,0.894-0.126l0.099-0.334h-4.829l-0.109,0.334
	c0.464,0,0.775,0.026,0.935,0.081c0.159,0.054,0.277,0.137,0.352,0.247c0.076,0.112,0.113,0.246,0.113,0.403
	c0,0.312-0.088,0.77-0.262,1.372l-2.167,7.393c-0.229,0.776-0.421,1.288-0.578,1.535c-0.114,0.168-0.292,0.306-0.532,0.415
	c-0.156,0.072-0.472,0.114-0.948,0.127l-0.117,0.334h4.803l0.072-0.334c-0.602-0.043-0.981-0.122-1.137-0.239
	c-0.157-0.118-0.235-0.291-0.235-0.52c0-0.277,0.087-0.716,0.262-1.318l1.11-3.746h5.678l-1.101,3.746
	c-0.229,0.789-0.422,1.3-0.578,1.535c-0.108,0.168-0.284,0.306-0.524,0.415c-0.156,0.072-0.469,0.114-0.939,0.127l-0.126,0.334
	h4.767l0.099-0.334c-0.603-0.043-0.983-0.122-1.142-0.239c-0.16-0.118-0.239-0.291-0.239-0.52c0-0.265,0.09-0.704,0.271-1.318
	l2.157-7.393c0.205-0.711,0.406-1.207,0.605-1.49c0.138-0.198,0.352-0.36,0.641-0.487c0.205-0.09,0.514-0.132,0.93-0.126
	l0.108-0.334h-4.929l-0.09,0.334c0.458,0,0.764,0.026,0.92,0.081c0.157,0.054,0.273,0.137,0.349,0.247
	c0.074,0.112,0.112,0.246,0.112,0.403c0,0.324-0.084,0.782-0.253,1.372l-0.894,3.023h-5.651L83.391,182.395z M65.845,192.478
	c0.199-0.481,0.475-0.722,0.831-0.722c0.157,0,0.352,0.045,0.587,0.135c0.686,0.259,1.186,0.422,1.499,0.487
	c0.313,0.066,0.65,0.1,1.011,0.1c0.728,0,1.399-0.159,2.013-0.479c0.614-0.318,1.085-0.769,1.413-1.35
	c0.328-0.58,0.493-1.181,0.493-1.801c0-0.548-0.133-1.063-0.397-1.549c-0.265-0.483-0.847-1.158-1.747-2.022
	c-0.9-0.862-1.475-1.485-1.725-1.867c-0.25-0.384-0.375-0.784-0.375-1.206c0-0.481,0.195-0.905,0.587-1.272
	c0.391-0.367,0.9-0.551,1.525-0.551c0.789,0,1.424,0.231,1.905,0.695s0.722,1.06,0.722,1.787c0,0.223-0.012,0.514-0.036,0.876h0.307
	l0.939-4.062h-0.343c-0.168,0.295-0.316,0.487-0.442,0.578c-0.126,0.09-0.276,0.135-0.452,0.135c-0.102,0-0.195-0.009-0.28-0.027
	c-0.036-0.012-0.229-0.087-0.578-0.226c-0.494-0.204-0.833-0.324-1.02-0.36c-0.301-0.066-0.621-0.1-0.957-0.1
	c-0.999,0-1.818,0.304-2.456,0.911c-0.637,0.608-0.956,1.34-0.956,2.194c0,0.535,0.138,1.047,0.415,1.535
	c0.168,0.295,0.551,0.743,1.146,1.344c1.228,1.259,1.983,2.138,2.266,2.637c0.187,0.337,0.28,0.71,0.28,1.119
	c0,0.633-0.205,1.19-0.614,1.675s-1.008,0.727-1.796,0.727c-0.849,0-1.536-0.259-2.063-0.776c-0.526-0.518-0.79-1.188-0.79-2.014
	c0-0.289,0.021-0.652,0.063-1.092h-0.307l-1.012,4.541H65.845z M58.021,187.513h-3.078l3.548-4.83L58.021,187.513z M59.962,179.677
	l-7.312,9.948c-0.674,0.914-1.182,1.512-1.521,1.792c-0.339,0.279-0.732,0.429-1.178,0.447l-0.1,0.334h3.62l0.099-0.334
	c-0.361-0.013-0.62-0.088-0.776-0.227c-0.156-0.138-0.234-0.304-0.234-0.496c0-0.145,0.036-0.3,0.108-0.465
	c0.072-0.166,0.25-0.438,0.533-0.817l1.246-1.688h3.503l-0.145,1.553c-0.06,0.691-0.123,1.131-0.189,1.317
	c-0.096,0.266-0.232,0.455-0.406,0.569c-0.248,0.168-0.566,0.253-0.957,0.253h-0.208l-0.099,0.334h4.82l0.1-0.334
	c-0.463,0-0.793-0.043-0.988-0.127c-0.196-0.084-0.352-0.214-0.465-0.388c-0.09-0.127-0.135-0.311-0.135-0.552
	c0-0.149,0.023-0.463,0.072-0.938l0.93-10.183H59.962z M34.843,179.957l-0.09,0.334c0.488,0.041,0.821,0.099,1.001,0.171
	c0.181,0.072,0.371,0.211,0.569,0.415l-2.663,9.127c-0.211,0.723-0.412,1.192-0.604,1.408c-0.265,0.301-0.696,0.452-1.292,0.452
	H31.52l-0.099,0.334h4.036l0.1-0.334c-0.626-0.043-1.021-0.122-1.183-0.239c-0.163-0.118-0.244-0.288-0.244-0.511
	s0.093-0.655,0.28-1.3l2.185-7.574l1.147,9.958h0.36l7.141-9.958l-2.022,7.096c-0.265,0.921-0.472,1.516-0.619,1.782
	c-0.147,0.269-0.314,0.45-0.501,0.546c-0.241,0.134-0.59,0.2-1.047,0.2H40.81l-0.09,0.334h5.154l0.082-0.334h-0.217
	c-0.493,0-0.854-0.088-1.083-0.263c-0.162-0.12-0.243-0.298-0.243-0.532c0-0.259,0.066-0.614,0.199-1.065l2.266-7.764
	c0.193-0.668,0.371-1.119,0.537-1.354c0.166-0.235,0.348-0.392,0.546-0.47c0.115-0.042,0.497-0.085,1.147-0.126v-0.334h-2.988
	l-7.105,9.857l-1.128-9.857H34.843z M19.923,192.478c0.199-0.481,0.476-0.722,0.831-0.722c0.157,0,0.352,0.045,0.587,0.135
	c0.685,0.259,1.186,0.422,1.498,0.487c0.313,0.066,0.65,0.1,1.011,0.1c0.729,0,1.399-0.159,2.013-0.479
	c0.614-0.318,1.084-0.769,1.413-1.35c0.328-0.58,0.492-1.181,0.492-1.801c0-0.548-0.132-1.063-0.397-1.549
	c-0.265-0.483-0.848-1.158-1.748-2.022c-0.899-0.862-1.474-1.485-1.724-1.867c-0.25-0.384-0.374-0.784-0.374-1.206
	c0-0.481,0.195-0.905,0.586-1.272c0.392-0.367,0.9-0.551,1.526-0.551c0.788,0,1.423,0.231,1.905,0.695s0.722,1.06,0.722,1.787
	c0,0.223-0.012,0.514-0.036,0.876h0.308l0.938-4.062h-0.343c-0.168,0.295-0.315,0.487-0.442,0.578
	c-0.126,0.09-0.278,0.135-0.452,0.135c-0.103,0-0.196-0.009-0.28-0.027c-0.036-0.012-0.229-0.087-0.578-0.226
	c-0.494-0.204-0.833-0.324-1.021-0.36c-0.3-0.066-0.619-0.1-0.957-0.1c-0.999,0-1.817,0.304-2.455,0.911
	c-0.638,0.608-0.957,1.34-0.957,2.194c0,0.535,0.138,1.047,0.415,1.535c0.168,0.295,0.551,0.743,1.146,1.344
	c1.228,1.259,1.983,2.138,2.266,2.637c0.186,0.337,0.28,0.71,0.28,1.119c0,0.633-0.205,1.19-0.614,1.675
	c-0.41,0.484-1.009,0.727-1.796,0.727c-0.849,0-1.537-0.259-2.063-0.776c-0.526-0.518-0.79-1.188-0.79-2.014
	c0-0.289,0.021-0.652,0.063-1.092h-0.308l-1.011,4.541H19.923z M120.918,165.327h-3.078l3.548-4.83L120.918,165.327z
	 M122.859,157.491l-7.312,9.948c-0.674,0.915-1.182,1.513-1.521,1.791c-0.34,0.281-0.733,0.43-1.178,0.447l-0.099,0.335h3.62
	l0.099-0.335c-0.361-0.012-0.62-0.087-0.776-0.226c-0.156-0.138-0.234-0.304-0.234-0.496c0-0.145,0.035-0.3,0.108-0.466
	c0.072-0.164,0.25-0.437,0.533-0.815l1.246-1.689h3.503l-0.145,1.554c-0.06,0.691-0.124,1.131-0.19,1.317
	c-0.096,0.266-0.231,0.455-0.406,0.568c-0.247,0.169-0.566,0.253-0.957,0.253h-0.208l-0.1,0.335h4.82l0.1-0.335
	c-0.463,0-0.793-0.041-0.988-0.126c-0.195-0.084-0.351-0.213-0.465-0.389c-0.091-0.126-0.136-0.31-0.136-0.55
	c0-0.151,0.024-0.464,0.072-0.938l0.93-10.184H122.859z M214.845,77.187c11.786,0,16.716,10.399,16.716,20.953
	c0,10.553-4.93,20.953-16.716,20.953c-11.787,0-16.717-10.399-16.717-20.953C198.128,87.586,203.058,77.187,214.845,77.187
	 M214.845,69.33c-16.485,0-26.346,13.095-26.346,28.81c0,15.714,9.86,28.81,26.346,28.81c16.484,0,26.345-13.096,26.345-28.81
	C241.189,82.425,231.329,69.33,214.845,69.33 M142.587,125.641h10.708l18.796-55.001h-9.783l-14.097,43.524h-0.154l-13.789-43.524
	h-10.015L142.587,125.641z M68.097,125.641h40.134v-8.319H77.726v-16.1h27.732v-7.857H77.726V78.959h29.966v-8.32H68.097V125.641z
	 M0,125.641h9.629v-22.647h14.174c8.859,0,10.939,4.468,10.939,14.56c0,2.695,0,5.7,1.463,8.088h10.323
	c-2.08-2.233-3.004-8.088-3.004-14.481c0-8.705-4.853-11.17-8.166-11.632v-0.154c1.772-0.617,9.09-3.313,9.09-13.866
	c0-9.321-6.163-14.868-18.18-14.868H0V125.641z M9.629,78.497h15.638c5.007,0,9.552,1.387,9.552,8.396
	c0,5.778-3.312,8.782-9.398,8.782H9.629V78.497z M168.124,56.311h9.63V35.204h14.636c15.715,0.077,18.719-10.092,18.719-16.87
	c0-6.856-3.004-17.024-18.719-17.024h-24.266V56.311z M177.754,9.167h14.251c5.084,0,9.475,1.849,9.475,9.09
	c0,6.933-5.315,9.09-9.629,9.09h-14.097V9.167z M119.131,7.857c11.786,0,16.716,10.4,16.716,20.954
	c0,10.553-4.93,20.953-16.716,20.953s-16.716-10.399-16.716-20.953C102.415,18.257,107.345,7.857,119.131,7.857 M119.131,0
	c-16.485,0-26.345,13.096-26.345,28.811c0,15.714,9.86,28.81,26.345,28.81s26.346-13.096,26.346-28.81
	C145.477,13.096,135.616,0,119.131,0 M30.467,56.311h9.629V35.204h14.636c15.715,0.077,18.719-10.092,18.719-16.87
	c0-6.856-3.004-17.024-18.719-17.024H30.467V56.311z M40.096,9.167h14.251c5.084,0,9.475,1.849,9.475,9.09
	c0,6.933-5.315,9.09-9.629,9.09H40.096V9.167z"/>
</svg>
