<?xml version="1.0" encoding="utf-8"?>
<!-- Generator: Adobe Illustrator 16.0.0, SVG Export Plug-In . SVG Version: 6.00 Build 0)  -->
<!DOCTYPE svg PUBLIC "-//W3C//DTD SVG 1.1//EN" "http://www.w3.org/Graphics/SVG/1.1/DTD/svg11.dtd">
<svg version="1.1" id="Layer_1" xmlns="http://www.w3.org/2000/svg" xmlns:xlink="http://www.w3.org/1999/xlink" x="0px" y="0px"
	 width="300px" height="157.907px" viewBox="0 35.547 300 157.907" enable-background="new 0 35.547 300 157.907"
	 xml:space="preserve">
<path fill="#1E1E1E" d="M267.23,131.555c14.66,0,20.791,12.937,20.791,26.062c0,13.127-6.132,26.062-20.791,26.062
	c-14.661,0-20.792-12.937-20.792-26.062C246.438,144.491,252.57,131.555,267.23,131.555 M267.23,121.782
	c-20.506,0-32.77,16.288-32.77,35.835s12.264,35.837,32.77,35.837c20.505,0,32.768-16.288,32.768-35.837
	C300,138.07,287.735,121.782,267.23,121.782 M177.355,191.823h13.317l23.38-68.412h-12.169l-17.534,54.136h-0.192l-17.151-54.136
	H154.55L177.355,191.823z M84.701,191.823h49.921v-10.348H96.678v-20.026h34.494v-9.771H96.678v-17.919h37.273v-10.348h-49.25
	V191.823z M0,191.823h11.976v-28.17h17.63c11.019,0,13.606,5.559,13.606,18.109c0,3.354,0,7.091,1.821,10.062h12.839
	c-2.587-2.777-3.737-10.062-3.737-18.013c0-10.827-6.036-13.894-10.157-14.468v-0.191c2.203-0.766,11.306-4.12,11.306-17.247
	c0-11.593-7.665-18.491-22.612-18.491H0V191.823z M11.976,133.184h19.451c6.227,0,11.881,1.726,11.881,10.445
	c0,7.186-4.12,10.922-11.689,10.922H11.976V133.184z M209.119,105.589h11.977V79.334h18.206
	c19.546,0.097,23.284-12.552,23.284-20.984c0-8.527-3.738-21.176-23.284-21.176h-30.184L209.119,105.589L209.119,105.589z
	 M221.096,46.949h17.727c6.322,0,11.785,2.3,11.785,11.306c0,8.624-6.611,11.306-11.977,11.306h-17.535V46.949z M148.179,45.32
	c14.661,0,20.792,12.935,20.792,26.062s-6.133,26.062-20.792,26.062s-20.792-12.935-20.792-26.062
	C127.386,58.255,133.52,45.32,148.179,45.32 M148.179,35.547c-20.504,0-32.769,16.289-32.769,35.836
	c0,19.546,12.264,35.836,32.769,35.836c20.506,0,32.77-16.289,32.77-35.836C180.949,51.836,168.684,35.547,148.179,35.547
	 M37.895,105.589h11.978V79.334h18.205c19.547,0.097,23.284-12.552,23.284-20.984c0-8.527-3.736-21.176-23.284-21.176H37.895
	V105.589z M49.873,46.949h17.725c6.324,0,11.786,2.3,11.786,11.306c0,8.624-6.611,11.306-11.976,11.306H49.873V46.949z"/>
</svg>
