<?xml version="1.0" encoding="utf-8"?>
<!-- Generator: Adobe Illustrator 16.0.0, SVG Export Plug-In . SVG Version: 6.00 Build 0)  -->
<!DOCTYPE svg PUBLIC "-//W3C//DTD SVG 1.1//EN" "http://www.w3.org/Graphics/SVG/1.1/DTD/svg11.dtd">
<svg version="1.1" id="Layer_1" xmlns="http://www.w3.org/2000/svg" xmlns:xlink="http://www.w3.org/1999/xlink" x="0px" y="0px"
	 width="143px" height="143px" viewBox="0 0 143 143" enable-background="new 0 0 143 143" xml:space="preserve">
<path fill="#1E1E1E" d="M135.82,0H8.179C3.804,0,0,2.804,0,7.179v127.643C0,139.193,3.804,143,8.179,143H77V87H58V66h19V49.554
	c0-18.532,11.039-28.624,27.57-28.624c7.92,0,14.43,0.59,16.43,0.853v19.368l-11.367,0.005c-8.99,0-10.633,4.272-10.633,10.542V66
	h21.701l-2.792,21H99v56h36.82c4.373,0,7.18-3.807,7.18-8.18V7.179C143,2.804,140.193,0,135.82,0z"/>
</svg>
