<?xml version="1.0" encoding="utf-8"?>
<!-- Generator: Adobe Illustrator 16.0.0, SVG Export Plug-In . SVG Version: 6.00 Build 0)  -->
<!DOCTYPE svg PUBLIC "-//W3C//DTD SVG 1.1//EN" "http://www.w3.org/Graphics/SVG/1.1/DTD/svg11.dtd">
<svg version="1.1" id="master" xmlns="http://www.w3.org/2000/svg" xmlns:xlink="http://www.w3.org/1999/xlink" x="0px" y="0px"
	 width="135.808px" height="69.257px" viewBox="0 0 135.808 69.257" enable-background="new 0 0 135.808 69.257"
	 xml:space="preserve">
<g>
	<g>
		<path fill="#6D6E71" d="M15.818,43.487c-0.019-0.041-0.042-0.076-0.062-0.107c-0.024-0.033-0.053-0.064-0.088-0.096
			c0,0-0.248,0.109-0.351,0.258c-0.202,0.285,0.2,0.92,0.2,0.92c-0.337-0.111-0.546-0.395-0.555-0.588
			c-0.008-0.26,0.236-0.842,0.236-0.842c0.076-0.232,0.156-0.564,0.235-0.908c0.08-0.336,0.155-0.682,0.269-1.086
			c0.229-0.793,0.562-1.688,0.752-2.486c0.143-0.588,0.25-1.105,0.285-1.455c0.086-0.857,0.189-2.469,0.248-3.527
			c0.033-0.566,0.022-0.424,0.022-0.471c0-0.137,0.079-1.57,0.762-2.167c0.45-0.391,0.874-0.325,1.392-0.572
			c0,0-0.74-0.303-1.651-0.101c0,0-1.573,1.237-2.321,6.752c0,0-0.919,5.133-0.949,5.656c-0.014,0.271,0.242,1.57,0.242,1.57
			s0.799,0.346,0.967,0.312c0.104-0.037,0.244-0.045,0.48-0.109c0.234-0.068,0.38-0.084,0.783,0.049
			C15.756,44.06,15.947,43.728,15.818,43.487"/>
		<path fill="#6D6E71" d="M22.509,25.068l0.947,0.035c0.282,0.01,0.453-0.074,0.437-0.26c-0.014-0.15-0.414-0.229-0.414-0.229
			l-0.688,0.106C22.791,24.722,22.71,25.014,22.509,25.068"/>
		<path fill="#6D6E71" d="M31.462,30.071c0-0.077-0.14-1.243-0.14-2.133c-0.004-0.456-0.011-0.837-0.015-0.964
			c-0.013-0.27-0.28-0.146-0.333-0.042c-0.132,0.242-0.189,0.19-0.189,0.19s-0.082-0.015-0.098,0.221
			c-0.035-0.172-0.055-0.157-0.105-0.208c-0.194-0.186-0.301,0.462-0.301,0.462s-0.018,0.133-0.027,0.455
			c-0.002,0.067-0.006,0.15-0.006,0.235c0,0.33,0.029,0.94,0.231,1.39c0.038,0.074,0.084,0.101,0.144,0.106
			c0,0-0.064,0.456,0.08,0.678c0.269,0.417,0.414,0.321,0.414,0.321C31.598,30.386,31.465,30.237,31.462,30.071"/>
		<path fill="#6D6E71" d="M20.916,28.573c0.107-0.103,0.246-0.16,0.396-0.158c0.308,0.007,0.552,0.266,0.547,0.576
			c-0.003,0.183-0.095,0.334-0.228,0.435c-0.055-0.018-0.1-0.026-0.111-0.035c-0.05-0.029-0.333-0.011-0.598-0.003
			c-0.006-0.007-0.014-0.011-0.021-0.017c-0.103-0.108-0.157-0.252-0.155-0.4C20.752,28.819,20.808,28.677,20.916,28.573
			 M20.213,28.98c0,0.242,0.088,0.466,0.23,0.654c-0.242,0.225-0.521,0.528-0.574,0.598c-0.104,0.136-0.318,0.196-0.318,0.196
			s-0.229,1.385,0.289,1.199c0,0,0.082-0.332,0.361-0.271c0.467,0.102,0.592-0.076,0.781-0.221c0.126-0.096,0.503-0.018,0.503-0.018
			c0.294-0.064,0.642,0.08,0.701-0.188c-0.002-0.037-0.011-0.066-0.011-0.066c-0.234-0.195-0.901-0.102-0.901-0.102
			s0.103-0.041,0.245-0.061c0.048-0.01,0.141,0.002,0.148-0.076c0,0,0.058,0.002,0.363,0.094c0.246,0.078,0.262-0.045,0.277-0.094
			c-0.006-0.093-0.075-0.158-0.075-0.158s-0.323-0.134-0.478-0.161c-0.151-0.023-0.574,0.033-0.574,0.033s0.016-0.018,0.261-0.069
			c0.089-0.02,0.177-0.02,0.169-0.096c0,0,0.176,0.017,0.412,0.132c0.162,0.08,0.242,0.077,0.287,0.052
			c0.016-0.026,0.055-0.06,0.061-0.084c0-0.019,0-0.038,0-0.055c-0.02-0.137-0.146-0.19-0.146-0.19s-0.503-0.179-0.639-0.192
			c-0.135-0.019-0.574,0.093-0.574,0.093c0.111-0.079,0.234-0.089,0.376-0.114c0.198-0.038,0.173-0.146,0.173-0.146
			s0.042,0.062,0.439,0.18c0.109,0.034,0.394,0.18,0.311-0.08c-0.021-0.034-0.072-0.093-0.125-0.138
			c0.126-0.178,0.206-0.394,0.211-0.63c0.012-0.612-0.473-1.121-1.076-1.135c-0.074,0-0.145,0.027-0.219,0.041
			c0,0,0.002,0,0.002-0.003C20.818,28.31,20.467,28.687,20.213,28.98"/>
		<path fill="#6D6E71" d="M20.962,43.694c-0.544-0.396-1.986,0.281-1.986,0.281s-0.262,0.607,0.271,0.598
			c0.289-0.006,0.785,0.025,1.178-0.061c0.314-0.064,0.798,0.059,1.214,0.064C22.263,44.405,20.962,43.694,20.962,43.694"/>
		<path fill="#6D6E71" d="M12.497,40.532c-0.116,0.689-0.378,1.891-0.419,2.324c-0.037,0.434-0.053,1.203-0.053,1.203
			c0.163,0.098,0.367,0.172,0.441,0.211l0.806-6.584C13.272,37.687,12.616,39.845,12.497,40.532"/>
		<path fill="#6D6E71" d="M22.816,24.626l0.662-0.011c0.473,0.033,0.615-0.167,0.438-0.36c-0.093-0.102-0.766-0.095-0.766-0.095
			l-0.445,0.155C22.705,24.315,22.93,24.363,22.816,24.626"/>
		<path fill="#6D6E71" d="M47.065,41.938h-1.94v-5.066c0-0.025,0.004-0.051,0.004-0.072c0.041-0.502,0.457-0.898,0.968-0.898
			c0.509,0,0.925,0.396,0.965,0.898c0.001,0.021,0.004,0.047,0.004,0.072V41.938z M43.709,35.249c-0.805,0-1.461-0.652-1.461-1.459
			c0-0.805,0.656-1.459,1.461-1.459c0.807,0,1.461,0.654,1.461,1.459C45.17,34.597,44.516,35.249,43.709,35.249 M42.283,41.938
			h-1.938v-5.066c0-0.025,0.003-0.051,0.005-0.072c0.039-0.502,0.453-0.898,0.962-0.898c0.512,0,0.928,0.396,0.969,0.898
			c0,0.021,0.002,0.047,0.002,0.072V41.938z M42.742,19.859h0.002c0.018-0.243,0.123-0.455,0.28-0.617
			c0.175-0.177,0.418-0.285,0.685-0.285c0.513,0,0.932,0.397,0.967,0.902v0.151h0.002v5.318h-1.936V19.859z M8.957,41.938H7.024
			v-5.066c0-0.025,0-0.051,0.002-0.072c0.038-0.502,0.457-0.898,0.966-0.898c0.51,0,0.926,0.396,0.963,0.898
			c0.002,0.021,0.002,0.047,0.002,0.072V41.938z M5.596,35.249c-0.805,0-1.461-0.652-1.461-1.459c0-0.805,0.656-1.459,1.461-1.459
			c0.808,0,1.459,0.654,1.459,1.459C7.055,34.597,6.403,35.249,5.596,35.249 M4.179,41.938H2.242v-5.066
			c0-0.025,0-0.051,0.004-0.072c0.037-0.502,0.455-0.898,0.965-0.898c0.508,0,0.924,0.396,0.963,0.898
			c0,0.021,0.005,0.047,0.005,0.072V41.938z M4.629,20.011h0.002v-0.151c0.037-0.505,0.455-0.902,0.965-0.902
			c0.27,0,0.509,0.108,0.685,0.285c0.16,0.162,0.265,0.374,0.281,0.617h0.005v5.47H4.629V20.011z M47.762,30.742l-0.238-13.858
			h0.975l-4.209-8.343C44.709,8.33,45,7.894,45,7.391c0-0.709-0.58-1.289-1.291-1.289s-1.289,0.58-1.289,1.289
			c0,0.503,0.289,0.939,0.707,1.15l-4.207,8.343h0.975l-0.07,4.057l-0.255-0.977c-0.842-3.269-3.808-5.682-7.334-5.682
			c-0.063,0-0.128,0.002-0.187,0.005c-0.584-2.759-2.672-4.967-5.359-5.722V5.843h0.404l-1.989-3.938
			c0.33-0.168,0.556-0.507,0.556-0.897C25.66,0.451,25.209,0,24.653,0s-1.007,0.451-1.007,1.008c0,0.391,0.223,0.729,0.553,0.897
			l-1.988,3.938h0.406v2.723c-2.688,0.755-4.773,2.963-5.359,5.722c-0.062-0.003-0.125-0.005-0.188-0.005
			c-3.527,0-6.488,2.413-7.334,5.682L9.48,20.94l-0.07-4.057h0.973L6.179,8.541c0.419-0.211,0.706-0.647,0.706-1.15
			c0-0.709-0.574-1.289-1.289-1.289c-0.711,0-1.286,0.58-1.286,1.289c0,0.503,0.287,0.939,0.707,1.15l-4.209,8.343h0.976
			L1.545,30.742H0.258L0,44.603h11.184l-0.239-13.861v-6.31c0-1.002,0.261-2.511,0.542-3.507c0.096-0.332,0.197-0.653,0.305-0.961
			c0.779-2.167,2.85-3.715,5.279-3.715c0.721,0,1.41,0.139,2.04,0.381c-0.032-0.251-0.054-0.506-0.054-0.769
			c0-3.098,2.494-5.614,5.597-5.614c3.099,0,5.595,2.517,5.595,5.614c0,0.263-0.018,0.518-0.053,0.769
			c0.631-0.242,1.318-0.381,2.04-0.381c2.431,0,4.501,1.548,5.278,3.715c0.111,0.308,0.21,0.629,0.305,0.961
			c0.284,0.996,0.543,2.505,0.543,3.507v6.31l-0.238,13.861h11.182l-0.256-13.861H47.762z"/>
		<path fill="#6D6E71" d="M26.646,27.248c0.088,0.006,0.217-0.009,0.336-0.057c0.199-0.088,0.484-0.342,0.605-0.604
			c0.047-0.278-0.145-0.488-0.271-0.546c-0.102-0.045-0.165-0.039-0.271-0.004c-0.103,0.033-0.33,0.152-0.33,0.152
			c0.073-0.072,0.039-0.22,0.039-0.22c0.17,0.116,0.879-0.196,0.74-1.015c-0.027-0.17-0.053-0.214-0.051-0.304
			c0.004-0.138,0.021-0.248,0-0.352c-0.026-0.146,0.054-0.419,0.037-0.552c-0.014-0.135-0.219-0.102-0.301-0.066
			c-0.285,0.128-0.295,0.589-0.326,0.733c0,0-0.041-0.01-0.09-0.035c-0.064-0.024-0.072-0.073-0.145-0.143
			c-0.036-0.032-0.172-0.196-0.229-0.275c-0.059-0.077-0.465-0.522-0.646-0.689c-0.175-0.158-0.293-0.011-0.302,0.103
			c-0.014,0.129,0.334,0.616,0.334,0.616c0.283,0.381,0.363,0.414,0.363,0.414l-0.076,0.059c0,0,0.033-0.045-0.362-0.473
			c-0.048-0.049-0.411-0.56-0.554-0.705c-0.148-0.154-0.305,0.002-0.331,0.057c-0.091,0.193,0.5,0.898,0.5,0.898
			c0.253,0.364,0.465,0.5,0.465,0.5l-0.086,0.075c0.051-0.044-0.456-0.575-0.456-0.575c-0.207-0.214-0.371-0.484-0.527-0.604
			c-0.205-0.147-0.273,0.19-0.168,0.34c0.039,0.052,0.112,0.194,0.256,0.394c0.137,0.181,0.617,0.639,0.617,0.639l-0.047,0.036
			c-0.121-0.153-0.497-0.531-0.759-0.713c-0.261-0.182-0.334,0.053-0.269,0.181c0.06,0.12,0.342,0.461,0.407,0.537
			c0.069,0.077,0.58,0.447,0.615,0.501c0.06,0.094,0.2,0.289,0.231,0.329c0.062,0.083,0.244,0.345,0.355,0.434
			c0,0,0.221,0.146,0.357,0.08C26.186,26.746,26.305,27.145,26.646,27.248"/>
		<path fill="#6D6E71" d="M33.527,34.841c0,0-0.615,0.408-1.508-0.107c-0.9-0.514-1.223-0.764-1.299-0.826
			c0,0,0.889,0.42,1.475,0.291c0.586-0.121,0.817-0.244,1.36-0.238c0,0-0.892,0.268-0.838,0.746
			C32.738,34.888,33.117,34.937,33.527,34.841 M27.246,32.577c0.084,0.033,0.263,0.031,0.316,0.012c0,0,0.447-0.15,0.516-0.17
			c0.166-0.055,0.164-0.029,0.207-0.152c0.043,0.279,0.209,0.402,0.479,0.439c0.327,0.045,0.514-0.209,0.756-0.203
			c0,0,0.271,0.023,0.318,0.018c0.027,0.096,0.055,0.166,0.055,0.166c0.256,0.205,0.426-0.074,0.324-0.275
			c0,0,0.146,0.154,0.372,0.168c0.293,0.014,0.928-0.156,1.239-0.26c0.339-0.117,0.996-0.369,1.082-0.58
			c0.065-0.156-0.264-0.738-0.389-1.085c-0.055-0.141-0.072-0.159-0.146-0.358c0.058,0.151,0.205,0.461,0.381,0.805
			c0.025,0.055,0.055,0.107,0.08,0.166c0.128,0.238,0.262,0.488,0.39,0.701c0.146,0.256,0.282,0.467,0.371,0.561
			c0.298,0.316,0.558,0.473,0.731,0.785c-0.278-0.406-0.574-1.773-0.731-2.291c-0.159-0.52-0.681-1.462-0.815-1.708
			c-0.135-0.248-0.357-1.057-0.39-1.328c-0.044-0.354,0.009-0.795,0.009-0.795s0.572,1.708,0.629,1.953
			c0.056,0.247,0.652,2.1,0.774,2.36c0.123,0.257,0.897,2.402,1.101,2.63c0.062,0.045,0.242,0.246,0.406,0.445
			c0.215,0.254,0.432,0.541,0.662,0.908c-0.22-0.297-0.531-0.404-0.531-0.404c-0.242-0.18-0.229-0.287-0.25-0.404
			c-0.05-0.277-0.287-0.545-0.287-0.545c-0.115-0.09-0.215-0.215-0.31-0.355c-0.092-0.145-0.179-0.309-0.267-0.467
			c0,0-0.551-0.496-0.896-0.664c-0.386-0.188-0.584-0.295-0.861-0.176c-0.862,0.385-1.758,0.426-1.836,0.414
			c-0.779-0.125-0.297,0.242-0.297,0.242c0.428,0.086,0.387,0.24,1.412,0.289c0.954,0.047,1.082,0.062,1.598,0.16
			c0.513,0.098,0.789,0.391,0.789,0.391c-0.522-0.17-0.893-0.25-1.625-0.113c-1.129,0.201-2.174-0.727-2.174-0.727
			c-0.703-0.322-0.615,0.111-0.518,0.217c0.148,0.164,0.273,0.242,0.273,0.242c-0.485-0.17-0.265,0.15-0.265,0.15
			c0.327,0.168,0.547,0.357,0.547,0.357c1.324,1.219,2.267,1.422,2.843,1.326c0.082-0.016,0.254-0.082,0.33-0.062
			c-0.215,0.088-0.283,0.162-0.355,0.223c-0.284,0.234-0.961,0.354-1.483,0.426c-0.673,0.092-1.372-0.068-1.593-0.24
			c-0.148-0.121-0.193-0.531,0.105-0.621c0.403-0.121,0.502-0.254,0.521-0.488c0.013-0.162-0.367-0.562-0.367-0.562
			c-0.61-0.344-0.84-0.117-0.84-0.117l0.209-1.18h-0.054l-0.422-0.004c-0.157,0-0.123-0.006-0.301,0.008
			c-0.107,0.008-0.223,0.023-0.34,0.004c-0.021-0.004-0.043-0.012-0.062-0.018l-0.451-0.002c0.011-0.062,0.02-0.111,0.029-0.17l0,0
			c-0.094-0.049-0.166-0.092-0.166-0.092s-0.115,0.002-0.217,0.039c-0.121,0.043-0.34,0.107-0.34,0.107L27.246,32.577z
			 M32.041,28.772c0.051,0.229,0.119,0.689,0.209,1.083c-0.053,0.064-0.27,0.255-0.463,0.419
			C32.229,29.901,32.088,29.01,32.041,28.772 M31.884,26.054c0.583,0.14,0.804,0.051,1.007,0c-0.051,0.224-0.521,0.215-0.521,0.215
			c0.098,0.048,0.271,0.241,0.361,0.388c0.196,0.317-0.272,0.139-0.272,0.139C32.428,26.367,31.884,26.054,31.884,26.054
			 M35.939,38.251c-0.13-0.893-0.146-1.104-0.423-1.543c0,0,0.618,0.602,0.667,1.725c0.047,1.117-0.066,4.008-0.146,4.791
			c0,0-0.487,0.617-0.828-0.439c0,0,0.341,0.211,0.471-0.615C35.81,41.337,36.07,39.146,35.939,38.251 M33.551,42.548
			c0.061-0.23,0.076-3.076,0.076-3.076c0.09,1.068,0.457,3.531,0.457,3.531C33.656,42.958,33.49,42.774,33.551,42.548 M33.029,37.47
			c0.004-0.203-0.031-0.334-0.092-0.35c-0.033,0.02-0.304,0.26-0.475,0.758c-0.155,0.492-0.305,0.865-0.781,2.096
			c-0.789,2.049-1.382,2.389-1.382,2.389c0.126-0.441-0.188-1.004-0.188-1.004c0.715-0.762,2.847-4.688,3.166-5.057
			c0.319-0.361,0.395-0.219,0.395-0.219C33.31,36.372,33.123,36.901,33.029,37.47 M30.287,38.271
			c-0.143-0.605-0.858-1.939-0.41-1.977c0.191-0.018,1.259,0.932,1.757,0.932c0.497,0,0.627-0.23,0.72-0.393
			c0.368-0.668,0.562-0.76,0.562-0.76c-0.133,0.158-0.249,0.355-0.455,0.764c-0.172,0.348-0.379,0.73-0.578,1.154
			c-0.575,1.223-1.825,2.881-1.825,2.881C30.346,40.261,30.378,38.647,30.287,38.271 M25.77,42.267
			c-0.056,0.307-0.115,0.656-0.145,0.811c-0.249,1.391,0.055,1.893,0.055,1.893s0.461-0.367,0.698-1.76
			c0.125-0.715,0.575-3.271,0.987-5.596c-0.121-1.107-0.188-2.154,0.086-2.404c0.166-0.152,0.486-0.408,0.397-0.336
			c0.157-0.883,0.259-1.471,0.259-1.471l1.284,0.482c-0.526,0.207-0.868,0.486-1.26,0.768c-0.761,1.182-0.455,2.738-0.371,3.26
			c0.097,0.613-0.19,1.527-0.19,1.527c0.133,1.471,0.377,2.332,0.377,2.332s0.306,0.768,0.861,0.957c0,0-0.592-0.092-0.688-0.283
			c0,0-0.15,0.148-0.209,0.299c0,0-0.559,0.379-0.359,0.729c-0.199,0.199-0.21,0.234-0.46,0.393
			c-0.246,0.158-0.29,0.193-0.713,0.365c-0.14,0.059-0.327,0.174-0.384,0.273c-0.02,0.076,0.039,0.09,0.057,0.062
			c0.081-0.104,0.208-0.158,0.208-0.158c-0.178,0.096-0.171,0.201-0.114,0.246l0.027,0.01c0.036,0.01,0.102,0,0.173-0.135
			c0.031-0.064,0.099-0.121,0.249-0.172c-0.039,0.025-0.32,0.141-0.199,0.32c0.178,0.078,0.27-0.156,0.307-0.195
			c0.125-0.125,0.234-0.127,0.42-0.174c-0.4,0.115-0.44,0.186-0.33,0.371c0.09,0.096,0.336,0.109,0.554,0.023
			c0.363-0.004,0.894-0.291,1.226-0.307c0.131-0.012,0.131,0.002,0.34,0.068c0.121,0.039,0.474,0.039,0.537-0.08
			c0.223-0.424-0.519-0.896-0.65-0.961c-0.13-0.064-0.448-0.291-0.448-0.291s0.427,0.24,0.784,0.359
			c0.264,0.104,0.436,0.135,0.491,0.141c0.499,0.064,0.745-0.182,1.217-0.219c1.124-1.02,1.338-1.543,1.69-3.102
			c0.146-0.621,0.396-1.574,0.459-2.312c-0.043,0.977-0.039,1.25-0.02,1.607c0.031,0.594,0.092,2.555,0.047,2.875
			c-0.047,0.32-0.216,0.396-0.216,0.396s0.285,0.738,0.929,0.822c0.151,0.016,0.326,0,0.52-0.074c0,0,0.64,0.482,1.574,0.172
			c0.147-0.051,0.304-0.123,0.473-0.221c0.109-0.064,0.124-5.1,0.068-5.768c-0.037-0.453-0.08-0.578-0.215-0.793
			c-0.17-0.365-0.488-0.666-0.488-0.666s-0.189-0.115-0.163-0.439c0.042-0.51,0.11-0.465,0.28-0.246
			c0.311,0.422,0.295,0.818,0.371,1.352c0,0,0.151,0.205,0.365,0.578c0.121,0.215,0.069,0.605,0.09,0.93
			c0,0,0.031,4.486,0.014,4.926c0.059-0.162,0.197-0.33,0.197-0.33s0.015-5.537-0.138-6.713c-0.04-0.303-0.183-0.443-0.218-0.703
			c-0.105-0.793-0.133-1.004-0.336-1.307c0,0,0.234,0.189,0.451,0.723c0.146,0.363,0.264,0.881,0.385,1.609
			c0.074,0.41,0.227,1.053,0.227,1.053c0.123-1.863-0.24-2.643-0.24-2.643c-0.116-0.32-0.311-0.787-0.508-1.102
			c-0.205-0.342-0.414-0.604-0.467-0.684c-0.787-1.283-0.893-1.684-1.689-3.227c-0.797-1.544-0.6-2.842-0.6-2.842
			s0.15,0.555,0.35,0.721c0.068,0.054,0.242,0.419,0.168,0.898c-0.025,0.141,0.02,0.598,0.428,1.422
			c0.498,1.002,0.936,1.779,1.229,2.143c0.271,0.336,0.416,0.293,0.416,0.293c-0.146-1.186-1.164-4.998-1.164-4.998
			s0.385,0.231,0.553,0.908c0.058,0.226,0.166,0.971,0.369,1.766c0.273,1.09,1.082,3.975,1.133,4.055
			c-0.293-1.924-0.206-1.924-0.393-2.693c-0.113-0.468-0.065-1.128-0.156-1.774c-0.139-1.001-0.178-1.331-0.191-1.522
			c-0.113-1.916-0.715-2.04-0.715-2.04c0.271-0.727-0.077-0.915-0.077-0.915c-0.158-0.106-0.501-0.223-0.624-0.167
			c-0.252,0.164-0.189-0.206-0.439-0.084c-0.156,0.076-0.549,0.206-0.549,0.206c0.739-0.569,0.43-0.742,0.43-0.742
			c-0.676,0.928-1.616,0.835-1.616,0.835c-0.283,0.027-0.56,0.023-0.722,0.005c-0.115-0.014-0.183,0.087-0.23,0.206
			c-0.016-0.021-0.033-0.048-0.057-0.061c0.058-0.083,0.104-0.164-0.047-0.274c-0.056-0.039-0.092-0.083-0.119-0.126
			c0,0-0.123-0.262-0.014-0.455c0.086-0.145,0.209-0.25,0.209-0.447c-0.203-0.013-0.498,0.063-0.609,0.188
			c-0.114,0.122-0.19,0.225-0.34,0.362c-0.125,0.126-0.203,0.282-0.271,0.539c-0.058,0.236,0.237,0.361,0.237,0.361
			s-0.605-0.08-0.245-0.588c-0.058,0.057-0.293,0.146-0.437,0.255c-0.145,0.112-0.227,0.407-0.314,0.562
			c-0.09,0.158-0.238,0.475-0.327,0.577c-0.088,0.102-0.364,0.648-0.343,0.832c0.082-0.128,0.378-0.259,0.378-0.259
			c0.142-0.05,0.243-0.068,0.382-0.05c0.143,0.017,0.143,0.05,0.389-0.178c0.239-0.225,0.312-0.504,0.606-0.696
			c0.187-0.12,0.437-0.221,0.606-0.313c0.012,0.066,0.051,0.117,0.106,0.135c0.048,0.014,0.095-0.002,0.135-0.034
			c-0.022,0.212-0.057,0.572-0.063,0.916c-0.002,0.18,0,0.353,0.019,0.501c0.069,0.596,0.19,0.873,0.263,1.153
			c0,0-0.381-0.621-0.426-0.951c0,0-0.027,2.083,0.186,2.518c-0.139,0.114-0.266,0.219-0.305,0.244l-0.065,0.048
			c-0.074,0.057-0.241,0.178-0.241,0.178c-0.016,0.008-0.037,0.02-0.059,0.037c-0.164,0.1-0.51,0.305-0.584,0.332
			c-0.084,0.041-0.187,0.021-0.334,0.021c-0.149,0-0.224,0.094-0.316,0.186c0,0-0.396,0.074-0.497,0.012
			c-0.067-0.039-0.31-0.209-0.495-0.344c-0.089-0.064-0.162-0.119-0.199-0.152c0.182-0.055,0.33-0.154,0.357-0.3
			c0.014-0.09-0.023-0.178-0.079-0.262c0.006,0,0.004,0,0.009-0.001l-0.628-0.348c0.458-0.051,0.55,0.054,0.753-0.126
			c0.237-0.212,0.577-0.511,0.873-0.753c0.297-0.246,0.219-0.698,0.276-0.995c0.036-1.094-1.046-0.519-1.046-0.519l-0.092,0.275
			c-0.018,0.053-0.176,0.094-0.215,0.068c0.784,0.523,0.344,1.148,0.344,1.148s0.341-0.617-0.31-0.807
			c-0.805-0.236-0.987-0.947-1.095-1.093c-0.25-0.33-0.464,0.065-0.669,0.127c-0.146,0.044-0.202,0.058-0.524-0.006
			c-0.213-0.022-0.328-0.189-0.393-0.303c-0.07-0.122-0.057-0.324-0.057-0.324s-0.229,0.219-0.043,0.527
			c0.186,0.309,0.34,0.835,0.389,1.017c0.051,0.182,0.207,0.701,1.089,1.758c0,0,0.043,0.039,0.104,0.097
			c-0.11,0.063-0.193,0.146-0.213,0.252c-0.027,0.167,0.084,0.338,0.281,0.457c-0.002,0.014-0.008,0.029-0.009,0.041
			c-0.197,0.086-0.399,0.189-0.456,0.227c-0.164,0.109-0.256,0.195-0.281,0.295c0,0.143,0.088,0.15,0.266,0.043
			c0.047-0.027,0.426-0.168,0.48-0.191c0.094-0.041,0.191-0.012,0.191-0.012s-0.717,0.316-0.842,0.389
			c-0.092,0.05-0.223,0.146-0.207,0.306c0.015,0.076,0.101,0.107,0.174,0.076c0.074-0.035,0.469-0.18,0.556-0.215
			c0.175-0.064,0.138-0.031,0.208-0.018c0,0-0.779,0.34-0.839,0.375c-0.058,0.035-0.089,0.119-0.089,0.188
			c0.009,0.088,0.089,0.143,0.166,0.111c0.058-0.02,0.414-0.184,0.516-0.229s0.189,0.014,0.189,0.014s-0.674,0.297-0.689,0.324
			c-0.01,0.008-0.035,0.047-0.025,0.074l-1.181-0.418l-0.21,1.18l1.633-0.02c0,0-0.646,3.686-1.152,6.551
			C26.378,40.567,26.439,41.292,25.77,42.267"/>
		<path fill="#6D6E71" d="M19.779,31.907c0.009-0.014,0.019-0.035,0.025-0.047C19.798,31.872,19.788,31.894,19.779,31.907"/>
		<path fill="#6D6E71" d="M17.774,28.042c0,0,0.069,0.894,0.386,1.053c0.355,0.179,0.584,0.609,1.072,0.372
			c0,0,1.791-1.677,1.792-2.385c-0.241-0.152-0.321-0.404-0.337-0.441c0.148,0.31,0.447,0.476,0.639,0.307
			c0.441-0.389,0.438-0.463,0.438-0.463c0.273,0.052,0.572-0.271,0.561-0.353c-0.009-0.091-0.054-0.173-0.113-0.214
			c0.291,0.2,0.41-0.203,0.41-0.203c0.14-0.082,0.179-0.182,0.179-0.182l-0.048-0.051c0.443,0.051,0.832-0.17,0.832-0.17
			c0.045-0.04,0.049-0.073,0.033-0.104c-0.033-0.065-0.16-0.104-0.16-0.104s-1.078,0.068-1.146,0.085
			c-0.235,0.057-0.125,0.272-0.132,0.41c-0.01,0.174-0.072,0.232-0.072,0.232c0.068-0.152,0.044-0.207-0.023-0.356
			c-0.062-0.137-0.172-0.086-0.131-0.177c0.043-0.096,0.123-0.194,0.365-0.229c0.189-0.023,0.432-0.376,0.446-0.638
			c0.002-0.069-0.021-0.104-0.06-0.116c-0.119-0.04-0.367,0.102-0.463,0.155c-0.084,0.055-0.459,0.145-0.459,0.145
			s0.148-0.03,0.309-0.118c0.156-0.088,0.458-0.269,0.547-0.269c0.088,0,0.411-0.068,0.512-0.068
			c0.538-0.178,0.283-0.403,0.164-0.412c-0.056-0.004-0.629,0.108-0.71,0.108c-0.101,0-1.06,0.45-1.179,0.507
			c-0.118,0.062-0.424,0.767-0.463,0.902c-0.041,0.134-0.194,0.536-0.194,0.536c-0.269-0.064-0.405,0.2-0.515,0.334
			c-0.129,0.149-0.651,0.823-0.742,0.921c-0.092,0.102-0.821,0.553-0.821,0.553c-0.192,0.34-0.065,0.593-0.083,0.559
			c0,0-0.167-0.185-0.113-0.477c0,0,0.071-0.2,0.018-0.344c-0.047-0.068-0.116-0.168-0.139-0.202
			c-0.045-0.061-0.086-0.109-0.106-0.134C18.267,27.012,17.672,26.633,17.774,28.042"/>
		<path fill="#6D6E71" d="M21.23,31.171c0.018,0.203,0.037,0.429,0.061,0.675c-0.623,0.078-1.222,0.188-1.695,0.281
			c-0.244,0.211-0.635,0.404-1.041,0.557l0.004-0.002c0.025,0.16,0.084,0.283,0.145,0.277c0,0,1.309-0.004,2.674-0.127
			c0.061,0.652,0.127,1.381,0.194,2.127v-0.004c0.067,0.158,0.196,1.361,0.128,1.475c0.003,0,0.003-0.008,0.003-0.008
			c0,0.006,0,0.008,0.002,0.012c-0.002,0-0.002-0.002-0.005-0.004c-1.241-1.766-3.046-2.461-4.091-2.732
			c-0.289-0.021-0.466-0.025-0.519,0.445c0,0-0.059,0.717-0.033,1.098c0.023,0.297,0.172,0.814,0.365,0.877s0.426,0.018,0.426,0.018
			c-0.057,0.014-0.234,0.127-0.347,0.203c-0.11,0.076-0.354,0.215-0.452,0.385c-0.099,0.17,0.366,0.051,0.366,0.051
			c0.021,0.141,0.252,0.09,0.252,0.09s0.021,0.342,0.771-0.059c0.424-0.227,0.632-0.43,0.957-0.531
			c-0.107,0.035-0.309,0.191-0.444,0.305c-0.253,0.203-0.424,0.375-0.663,0.562c-0.22,0.172-0.952,0.473-1.496,0.617
			c0.1,0.107,0.328,0.025,0.328,0.025c-0.003,1.324,2.021,0.217,2.021,0.217c-1.633,1.33-2.282,0.014-2.685,0.551
			c1.892,1.283,3.946-0.979,4.356-1.422c0.473-0.504,1.078-0.404,1.078-0.404s-0.008,0.498-0.062,1.131
			c0-0.004,0.002-0.014,0.002-0.018c0.171,1.912,0.314,3.488,0.335,3.709c0.063,0.625,0.063,0.854-0.161,0.965
			c-0.309,0.154-0.5,0.135-0.811-0.082c-0.194-0.137-0.36-0.297-0.506-0.465c-0.002,0-0.004,0.006-0.004,0.006l0.004-0.006
			c-0.213-0.248-0.367-0.502-0.469-0.691c0.266,0.172,0.478,0.182,0.613,0.154c0.016-0.004,0.049-0.012,0.049-0.012
			c0.08-0.023,0.127-0.053,0.131-0.059l0.092-0.066l-0.096-0.059c-0.018-0.012-0.033-0.023-0.051-0.033
			c0,0.002-0.002,0.002-0.002,0.002V41.2c-0.941-0.629-1.128-1.721-1.165-2.107c0.032,0.268,0.163,0.83,0.694,1.131
			c0.912-1.152,1.246-1.986,0.768-2.535c-0.215-0.248-0.994,0.186-1.479,0.521c-0.354,0.248-0.704,0.51-1.256,0.965
			c-0.498,0.414-1.539,1.443-1.539,1.443s1.132-1.49,0.531-1.418c-0.379,0.184-0.59,0.764-0.912,1.332
			c-0.264,0.529-0.25,0.645-0.744,0.877c-0.024,1.059,1.981-0.127,2.707-0.852c0.431-0.432,0.562-0.59,0.687-0.941l-0.038,0.102
			c-0.083,0.236-0.128,0.465-0.148,0.682c-0.275,0.24-0.164,0.16-0.401,0.324c-0.013,0.012-0.042,0.033-0.088,0.068
			c-0.341,0.256-1.529,1.16-2.572,1.609c-0.469,0.201,0.033,1.004,0.033,1.004c-0.087,0.539,0.683,1.084,0.683,1.084
			s0.379,0.127,0.715-0.092c0.377,0.143,0.981-0.102,1.547-0.422c0.725-0.412,1.379-0.949,1.379-0.949
			c-0.204-0.207-0.359-0.26-0.528-0.33c0,0-0.213-0.072-0.581,0c-0.372,0.07-0.887,0.279-1.742,0.832c0,0,0.812-0.729,1.543-1.514
			c0.213-0.232,0.01-0.729,0.01-1.217c0.045,0.826,0.449,1.385,0.455,1.395l0.181,0.246l-0.044-0.303
			c-0.036-0.24-0.01-0.541,0.021-0.764c0.242,0.727,0.495,1.193,0.723,1.504h0.002v0.004c0.229,0.311,0.431,0.471,0.576,0.582
			c0.438,0.342,1.113,0.799,1.58,1.109v0.002h0.002c0.299,0.197,0.512,0.336,0.518,0.34l0.053,0.033l0.042-0.047
			c0.013-0.012,1.146-1.178,1.72-1.881c0.232-0.287,0.652-0.805,0.799-2.332c0.08,0.211,0.17,0.496,0.191,0.742l0.014,0.17
			c-0.002,0.021-0.004,0.031-0.008,0.051l0.008-0.053l0.013,0.133l0.12-0.281c0.005-0.01,0.257-0.613,0.141-1.396
			c-0.081-0.553-0.344-1.193-1.006-1.783l-0.173-0.156l0.05,0.23c0,0.014,0.316,1.504-0.688,2.508l-0.078,0.08l0.104,0.045
			c0.014,0.008,0.362,0.148,0.755-0.262c-0.093,0.346-0.293,0.904-0.69,1.346c-0.254,0.281-0.435,0.346-0.773,0.262
			c-0.244-0.055-0.294-0.279-0.373-0.898c-0.052-0.412-0.752-5.422-1.206-8.67c1.384-0.186,2.695-0.486,2.695-0.486
			c0.063-0.01,0.096-0.154,0.077-0.324c-0.021-0.174-0.086-0.309-0.148-0.303c0,0-1.365,0.004-2.76,0.135
			c-0.033-0.234-0.064-0.449-0.092-0.644c0.05,0.002,0.103,0.006,0.144,0.002c-0.14,0.008-0.338-0.014-0.513-0.014
			C21.376,31.119,21.307,31.14,21.23,31.171"/>
		<path fill="#6D6E71" d="M13.156,43.091c0.102-0.291,0.051-1.346,0.051-1.346c0,0.168-0.035,0.768-0.438,1.412
			c-0.143,0.227-0.303,1.113-0.303,1.113s0.1,0.234,0.472,0.135C12.901,43.78,13.004,43.528,13.156,43.091"/>
		<path fill="#6D6E71" d="M19.163,30.359c0,0-0.823,0.343-1.101,0.515c-0.504,0.303-0.684,0.839-0.709,1.019
			c-0.043,0.326-0.074,0.664,0.734,0.379c1.455-0.51,1.435-0.613,1.435-0.613c-0.22-0.158,0.028-1.23,0.028-1.23
			C19.481,30.327,19.163,30.359,19.163,30.359"/>
	</g>
	<polygon fill="#6D6E71" points="29.787,7.737 33.572,7.735 33.576,7.741 32.734,11.419 32.727,11.436 32.73,11.429 32.729,11.438 
		32.738,11.419 35.078,8.469 35.086,8.469 37.447,11.433 36.59,7.744 36.595,7.741 40.383,7.737 36.963,6.109 39.328,3.146 
		35.923,4.8 35.087,1.103 34.257,4.795 30.852,3.136 30.845,3.144 33.208,6.102 33.208,6.105 	"/>
	<g>
		<path fill="#6D6E71" d="M33.627,57.718c-2.418,1.867-5.549,2.99-8.975,2.99c-3.422,0-6.557-1.123-8.976-2.99
			c-2.417,1.867-5.55,2.99-8.976,2.99c-0.26,0-0.469-0.006-0.728-0.018c0.853,0.992,1.781,1.914,2.785,2.758
			c2.647-0.344,4.976-1.367,6.918-2.867c2.419,1.865,5.554,2.992,8.976,2.992c3.426,0,6.557-1.127,8.975-2.992
			c1.945,1.5,4.277,2.521,6.922,2.865c1-0.844,1.93-1.764,2.781-2.756c-0.256,0.012-0.463,0.018-0.725,0.018
			C39.18,60.708,36.046,59.585,33.627,57.718"/>
		<path fill="#6D6E71" d="M43.333,60.69l0.013-0.016c-0.006,0.006-0.012,0.012-0.016,0.016H43.333z"/>
		<path fill="#6D6E71" d="M17.635,21.674c-0.117-0.017-0.176-0.086-0.336-0.053c-0.16,0.029-0.301,0.044-0.439,0.007
			c0,0,0.168-0.044,0.27-0.103c0.1-0.061,0.363-0.168,0.725,0.025C17.854,21.551,17.751,21.69,17.635,21.674 M17.54,21.94
			c-0.058,0.035-0.099,0.053-0.176,0.013c-0.097-0.045,0-0.147-0.248-0.184c0,0,0.041-0.04,0.163-0.07
			c0.193-0.058,0.339,0.028,0.339,0.028S17.604,21.903,17.54,21.94 M17.333,20.636c0,0-0.217,0.132-0.354,0.114
			c0,0-0.278,0.212-0.364,0.456c-0.047,0.129-0.077,0.184-0.149,0.255c-0.08,0.085-0.168,0.126-0.168,0.126
			c0,0.053-0.015,0.104-0.041,0.159c-0.057,0.108-0.142,0.256-0.217,0.331c-0.117,0.119-0.13,0.259-0.107,0.306
			c0.062,0.087,0,0.123-0.024,0.236c-0.022,0.086,0.032,0.286,0.028,0.373c-0.014,0.232-0.047,0.266-0.104,0.367
			c-0.061,0.106,0.032,0.226,0.032,0.226c-0.026,0.027-0.091,0.062-0.136,0.072c0.156,0.381,0.596,0.335,0.779,0.312
			c0.066-0.008,0.27,0.012,0.391,0.024c0.144,0.016,0.414,0.08,0.539,0.054c0.375-0.069,0.257-0.425,0.244-0.539
			c-0.027-0.118-0.24-0.28-0.24-0.28s0.184,0.078,0.35,0.081l-0.02-0.091c0,0-0.055-0.019-0.146-0.042
			c-0.107-0.024-0.346-0.032-0.346-0.032s0.334-0.064,0.559-0.034l-0.047-0.295c0.463,0.01,0.373-0.26,0.307-0.405
			c-0.039-0.082-0.109-0.265-0.158-0.446c-0.034-0.135-0.067-0.242-0.067-0.261c0-0.013,0.048-0.112,0.033-0.188
			c-0.058-0.298-0.045-0.802-0.045-0.802c-0.109,0-0.24-0.077-0.24-0.077S17.475,20.7,17.333,20.636"/>
		<path fill="#6D6E71" d="M33.627,51.991c-2.418,1.865-5.549,2.994-8.975,2.994c-3.422,0-6.557-1.129-8.976-2.994
			c-2.417,1.865-5.55,2.994-8.976,2.994c-1.68,0-3.267-0.27-4.754-0.768H1.945c0.489,1.154,1.064,2.262,1.717,3.316
			c0.988,0.205,1.982,0.314,3.039,0.314c3.426,0,6.559-1.127,8.976-2.994c2.419,1.867,5.554,2.994,8.976,2.994
			c3.426,0,6.557-1.127,8.975-2.994c2.419,1.867,5.553,2.994,8.979,2.994c1.057,0,2.047-0.109,3.039-0.314
			c0.651-1.055,1.227-2.162,1.715-3.316c-1.488,0.494-3.074,0.768-4.754,0.768C39.18,54.985,36.046,53.856,33.627,51.991"/>
		<path fill="#6D6E71" d="M14.438,23.148c0.013-0.102,0.019-0.126,0.039-0.221c0.047-0.231,0.156-0.413,0.156-0.413
			c-0.248,0.836,0.142,1.132,0.076,1.086c0,0-0.125-0.328,0.078-0.581c0,0-0.059,0.267,0.016,0.34c0,0,0.01-0.247,0.155-0.435
			c0.122-0.162,0.158-0.248,0.196-0.406c0.048-0.212,0.074-0.302,0.125-0.385c0,0-0.053,0.117-0.066,0.354
			c-0.005,0.144-0.009,0.159-0.05,0.274c-0.085,0.238-0.243,0.694,0.108,0.937c0,0-0.186-0.382,0.003-0.624
			c0,0-0.042,0.382,0.168,0.464c0,0-0.069-0.291,0.042-0.528c0.076-0.159,0.076-0.348,0.078-0.416c0,0,0.068,0.257,0,0.428
			c-0.059,0.139-0.041,0.334,0.061,0.431c0,0-0.072-0.122,0.055-0.296c0.129-0.172,0.203-0.379,0.16-0.559
			c-0.058-0.245-0.228-0.359,0.071-0.759c0,0-0.05,0.294-0.005,0.463c-0.01-0.047-0.014-0.112,0.01-0.202
			c0.059-0.237,0.125-0.171,0.059-0.43c-0.043-0.164,0.131-0.324,0.131-0.324s-0.02,0.026-0.023,0.118
			c0,0.042,0.033,0.104,0.049,0.145c0.02,0.055,0.026,0.174,0.026,0.174c0.051-0.083,0.032-0.28,0.026-0.418
			c-0.012-0.176,0.08-0.347,0.08-0.347s-0.018,0.065-0.008,0.251c0.006,0.124,0.043,0.224,0.043,0.317c0,0,0.092-0.022,0.104-0.264
			c0.014-0.205,0.081-0.282,0.063-0.449c0.114,0.135,0.047,0.445,0.047,0.445c0.16-0.198,0.084-0.294,0.059-0.459
			c-0.025-0.151,0.146-0.257,0.146-0.257c-0.072,0.07-0.049,0.239,0.039,0.248c0.08,0.009,0.223-0.102,0.223-0.102
			s0.279-0.062,0.279-0.302c0,0,0.116,0.27,0.295,0.046c0,0,0.002,0.09,0.067,0.142c0.231,0.076,0.129-0.338,0.129-0.338
			s0.058,0.034,0.104,0.102c0.121,0.166,0.055-0.133,0.055-0.133c-0.164-0.298-0.807-0.438-1.113-0.473
			c-0.304-0.036-0.648-0.053-0.996-0.036c-0.481,0.028-0.709,0.23-0.932,0.417c-0.213,0.178-0.414,0.572-0.618,1.447
			c-0.202,0.877-0.425,1.574-0.425,1.688C13.84,23.901,14.389,23.575,14.438,23.148"/>
		<path fill="#6D6E71" d="M19.354,33.333c-0.664-0.318-1.206-0.51-1.206-0.51c-1.001,0.248-0.376,0.645-0.237,0.705
			c0.457,0.188,1.138,0.543,1.854,0.998c0.735,0.469,1.774,1.148,1.802,0.459C21.203,34.331,20.193,33.731,19.354,33.333"/>
		<path fill="#6D6E71" d="M12.68,10.737c-1.104,0-2.104-0.426-2.855-1.113c0.909,1.139,2.333,1.855,3.905,1.855
			c2.741,0,4.96-2.221,4.96-4.963s-2.219-4.965-4.96-4.965c-1.56,0-2.996,0.732-3.905,1.859c0.751-0.69,1.752-1.113,2.855-1.113
			c2.328,0,4.216,1.889,4.216,4.219C16.896,8.846,15.008,10.737,12.68,10.737"/>
		<path fill="#6D6E71" d="M14.562,25.702c0,0-0.134-0.056-0.341-0.147c-0.172-0.079-0.406-0.165-0.543-0.419
			c-0.077-0.193,0.144-0.446,0.244-0.528C13.922,24.607,13.594,24.97,14.562,25.702 M15.396,29.351
			c0.345,0.822,0.947,0.646,0.947,0.646c-1.145,0.534-1.569,2.545-1.569,2.545C14.879,30.89,15.631,30.439,15.396,29.351
			 M14.057,24.792c-0.04-0.312,0.229-0.395,0.365-0.45c0,0-0.201,0.005-0.515,0.266c-0.101,0.082-0.272,0.241-0.374,0.362
			c-0.338,0.425-0.781,1.046-0.967,1.686c-0.37,1.28-0.402,1.818-0.438,2.559c-0.021,0.47-0.152,2.143-0.188,3.211
			c-0.023,0.703-0.059,1.152-0.064,1.484c-0.015,0.328-0.074,9.896-0.074,9.896l0.179-2.207l0.521-5.344c0,0,0.25-2.039,0.299-3.322
			c0.051-1.277,0.152-3.719,0.203-4.07c0.049-0.356,0.25-1.265,0.437-1.483l-0.251,7.95c0,0,0.064,1.732,0.083,2.357
			c0,0-0.065,3.887-0.065,4.059l0.504,2.66c0.151,0.078,0.389,0.1,0.674-0.117l-0.305-0.809l-0.436-2.373
			c0,0,0.131-0.016,0.234-0.121c0.105-0.1,0.168-0.352,0.168-0.352c0.033-0.809,0.809-5.424,1.078-6.232
			c0.269-0.809,0.371-2.896,2.387-4.144c0,0-0.232-0.234-0.637-0.302c-0.404-0.068-0.301-0.104-0.301-0.104
			c0.152-0.246-0.271-0.842-0.271-0.842c-0.482-0.785-0.76-0.913-1.144-1.358c-0.505-0.581-0.034-0.761-0.034-0.761
			c0.088,0.392,0.234,0.571,0.436,0.851c0.203,0.281,0.742,1.269,0.742,1.269s0.205-1.424-0.785-2.594
			c-0.242-0.285-0.477-0.521-0.684-0.718c-0.088-0.081-0.168-0.159-0.244-0.229c-0.113-0.104-0.342-0.335-0.358-0.363
			c-0.028-0.03-0.026-0.052-0.045-0.081c0.082,0.081,0.209,0.165,0.399,0.246c0.785,0.341,1.565,0.502,1.957,0.163
			c0.131-0.091,0.142-0.408,0.102-0.496c-0.062-0.143-0.165-0.205-0.062-0.5c0.035-0.1,0.071-0.215-0.195-0.229
			c-0.309-0.018-0.543-0.213-0.598-0.308c-0.033-0.053-0.06-0.246-0.06-0.246s-0.111,0.025-0.179-0.001c0,0-0.119,0.152-0.219,0.1
			c0,0-0.211,0.133-0.443,0.017l-0.327,0.1c0,0.221-0.14,0.471-0.14,0.471S14.157,24.677,14.057,24.792"/>
		<path fill="#6D6E71" d="M24.653,66.435c-3.423,0-6.558-1.125-8.976-2.992c-1.17,0.904-2.509,1.633-3.967,2.146h-0.003
			c0.907,0.559,1.854,1.061,2.835,1.506c0.395-0.244,0.775-0.51,1.135-0.785c2.418,1.861,5.553,2.947,8.976,2.947
			c3.425,0,6.558-1.086,8.979-2.947c0.358,0.275,0.735,0.541,1.131,0.785c0.979-0.445,1.926-0.945,2.834-1.506
			c-1.459-0.514-2.799-1.242-3.965-2.146C31.211,65.31,28.078,66.435,24.653,66.435"/>
		<path fill="#6D6E71" d="M31.876,21.157c-0.079-0.022-0.386,0.097-0.667-0.013c-0.277,0-0.582-0.317-0.582-0.317
			c-0.02-0.095-0.006-0.114,0.053-0.099c0.059,0.019,0.096,0.114,0.141,0.179c0.045,0.066,0.17,0.171,0.389,0.237
			c0-0.144-0.096-0.238-0.096-0.238s0.123,0.128,0.244,0.158c0.729,0.162,0.344-0.175,0.344-0.175
			c0.531,0.237,0.375,0.521,0.51,0.828c-0.064-0.096-0.081-0.236-0.135-0.346C31.979,21.179,31.876,21.157,31.876,21.157
			 M30.916,21.791c-0.102,0.003-0.176-0.052-0.176-0.052c0.174-0.13,0.468-0.232,0.629-0.225c0.295,0.014,0.42,0.23,0.42,0.23
			C31.285,21.549,31.02,21.784,30.916,21.791 M31.457,21.84c-0.081,0.081-0.02,0.212-0.207,0.226
			c-0.165,0.013-0.219-0.242-0.219-0.242s0.201-0.095,0.367-0.086c0.154,0.009,0.197,0.059,0.197,0.059S31.518,21.78,31.457,21.84
			 M32.873,23.269c-0.062-0.148-0.074-0.5-0.133-0.724c-0.031-0.12-0.157-0.299-0.279-0.468c0,0,0.126,0.156,0.365,0.302
			c0.217,0.132,0.395,0.411,0.399,0.537c0,0-0.065-0.115-0.213-0.093C32.904,22.836,32.84,23.063,32.873,23.269
			c0.22,0.258,0.275-0.095,0.275-0.095s0.098,0.078,0.047,0.214c0,0,0.139,0.153,0.306-0.047c0.108-0.131,0.12-0.602-0.384-0.962
			c-0.502-0.363-0.488-0.638-0.488-0.638s0.148,0.218,0.434,0.328c0.281,0.112,0.416,0.261,0.496,0.45c0,0-0.049-0.109-0.299-0.147
			c0,0,0.59,0.619,0.409,1.004c0,0,0.247-0.207,0.088-0.557c0,0,0.187,0.158,0.187,0.312c0,0,0.194-0.262-0.228-0.698
			c-0.22-0.231-0.198-0.347-0.245-0.433c-0.046-0.088-0.102-0.134-0.245-0.277c-0.141-0.141-0.149-0.301-0.228-0.497
			c0,0,0.048,0.126,0.205,0.214c0,0,0.061-0.395-0.078-0.565c0,0,0.15,0.166,0.189,0.322c0.039,0.155,0.141,0.337,0.211,0.432
			c0.071,0.095,0.152,0.237,0.119,0.487c-0.033,0.256,0.196,0.326,0.252,0.381c0.055,0.054,0.33,0.267,0.291,0.599
			c0,0,0.15-0.224-0.086-0.614c-0.234-0.395-0.137-0.487-0.119-0.528c0,0,0.047,0.259,0.26,0.346c0,0,0.054-0.143-0.291-0.552
			c-0.346-0.409-0.582-0.803-0.568-1.282c0,0,0.018,0.181,0.295,0.344c0,0-0.098-0.241-0.136-0.392
			c-0.039-0.15-0.109-0.715-0.999-0.883c-0.293-0.019-1.381,0.162-1.633,0.345c-0.25,0.182-0.539,0.524-0.508,0.918
			c0.006,0.072,0.198,0.474,0.246,0.509c0.004,0.047,0.004,0.093,0.006,0.139c0.002,0.064,0.002,0.114,0,0.126
			c-0.006,0.052-0.065,0.177-0.012,0.224c0.028,0.025,0.045,0.074,0.045,0.127c0,0.148-0.158,0.717-0.158,0.822
			c0,0.106,0.023,0.24,0.211,0.217c0.069-0.013,0.125-0.028,0.164-0.047c0.006,0.059,0.002,0.199-0.004,0.248
			c0.068-0.067,0.152-0.056,0.229-0.056c0.126,0,0.347,0.023,0.347,0.023s-0.185,0.041-0.313,0.067
			c-0.125,0.023-0.182,0.012-0.182,0.012l-0.025,0.121c0,0,0.273-0.019,0.398-0.116c0,0-0.068,0.135-0.166,0.175
			c-0.123,0.05-0.182-0.048-0.232-0.059c0,0,0.121,0.04,0.13,0.188c0.015,0.152-0.067,0.382,0.173,0.403
			c0.123,0.014,0.268,0.022,0.402,0.023c0.131,0,0.252-0.007,0.322-0.028C32.115,23.876,32.767,23.594,32.873,23.269"/>
		<path fill="#6D6E71" d="M44.854,48.247h-4.49v-2.74h-4.486v2.74h-4.489v-2.74h-4.49v2.74h-4.489v-2.74h-4.487v2.74H13.43v-2.74
			H8.941v2.74H4.453v-2.74H0.018c0.066,1.869,0.342,3.688,0.803,5.426c1.789,0.764,3.771,1.189,5.879,1.189
			c3.422,0,6.555-1.127,8.974-2.992c2.421,1.865,5.553,2.992,8.978,2.992h0.008c3.424,0,6.553-1.127,8.976-2.992
			c2.418,1.865,5.551,2.992,8.976,2.992c2.102,0,4.088-0.426,5.873-1.189c0.463-1.738,0.738-3.557,0.807-5.426h-4.436V48.247z"/>
		<path fill="#6D6E71" d="M15.25,25.662c-0.273-0.053-0.191,0.127-0.102,0.217c0.537,0.538,1.367,1.621,1.402,2.58
			c0,0,0.625,0.233,0.734-0.675c0.064-0.545-0.123-1.463-0.221-1.714c0,0,0.068,0.133,0.266,0.643
			c0.273,0.723,0.171,0.979,0.29,1.638c0.05-0.137,0.072-0.307,0.089-0.477c0.008-0.165,0.02-0.339,0.025-0.488
			c0.023-0.492,0.006-0.919-0.076-1.103c-0.1-0.234-0.154-0.348-0.199-0.402c-0.044-0.06-0.686-0.877-0.686-0.877
			c-0.036,0.191-0.12,0.332-0.23,0.432C16.299,25.734,15.777,25.765,15.25,25.662"/>
		<path fill="#6D6E71" d="M32.016,25.455c0.231,0.063,0.541,0.131,0.819,0.142c0.293-0.028,0.59-0.092,0.769-0.212
			c0.141-0.093,0.303-0.255,0.438-0.434c0.062-0.076,0.112-0.159,0.157-0.239c0.017-0.028,0.021-0.055,0.033-0.084
			c0.033-0.119,0.045-0.343-0.285-0.594c-0.131-0.094-0.281-0.425-0.293-0.449l0,0c-0.137,0.045-0.258-0.056-0.258-0.056
			c-0.175,0.052-0.26-0.06-0.26-0.06c-0.062,0.017-0.201-0.017-0.264-0.201c0.072,0.272-0.486,0.539-0.689,0.796
			c-0.172,0.216-0.287-0.055-0.394,0.069c0,0.168,0.071,0.222,0.065,0.312c0,0-0.006,0.286-0.023,0.371
			C31.794,24.994,31.732,25.385,32.016,25.455"/>
		<path fill="#6D6E71" d="M35.904,44.12c-0.041-0.193-0.121-0.17-0.32-0.09c-0.146,0.062-0.418-0.066-0.584-0.104
			c-0.16-0.037-0.183,0.016-0.323,0.045c-0.14,0.031-0.339-0.021-0.339-0.021c-0.406-0.053-0.373,0.396-0.373,0.396
			c0.015,0.053,0.041,0.1,0.068,0.143c0.098,0.074,0.187,0.092,0.25,0.123c0.055,0.029,0.047,0.062,0.076,0.113
			c0,0,0.521,0.377,0.814,0.051c0.068-0.148-0.316-0.393-0.275-0.371c0,0,0.196,0.094,0.314,0.236
			c0.119,0.143,0.308,0.24,0.432,0.113c0.111-0.17-0.298-0.445-0.298-0.445s0.192,0.096,0.31,0.24
			c0.125,0.154,0.232,0.205,0.282,0.004c-0.075-0.178-0.269-0.32-0.269-0.32s0.089,0.047,0.186,0.139
			c0.118,0.111,0.217,0.078,0.188-0.121C36.016,44.2,35.904,44.12,35.904,44.12"/>
	</g>
</g>
<g>
	<path fill="#6D6E71" d="M65.711,29.601l-0.832-2.609h-3.538l-0.864,2.609h-2.112l3.825-10.564h1.809l3.826,10.564H65.711z
		 M63.102,21.453l-1.216,3.826h2.448L63.102,21.453z"/>
	<path fill="#6D6E71" d="M75.674,29.601l-0.832-2.609h-3.538l-0.864,2.609h-2.112l3.825-10.564h1.809l3.826,10.564H75.674z
		 M73.064,21.453l-1.216,3.826h2.448L73.064,21.453z"/>
	<path fill="#6D6E71" d="M84.432,29.601l-2.417-4.226h-1.009v4.226h-2.017V19.036h3.521c1.537,0,2.241,0.192,2.865,0.785
		c0.576,0.528,0.864,1.296,0.864,2.289c0,0.816-0.192,1.473-0.576,1.985c-0.4,0.512-0.769,0.736-1.648,0.977l2.625,4.53H84.432z
		 M82.318,20.749h-1.312v2.913h1.312c1.281,0,1.841-0.448,1.841-1.504C84.159,21.149,83.631,20.749,82.318,20.749z"/>
	<path fill="#6D6E71" d="M95.603,29.601v-4.53h-5.427v4.53h-2.017V19.036h2.017v4.226h5.427v-4.226h2.017v10.564H95.603z"/>
	<path fill="#6D6E71" d="M107.406,29.041c-0.768,0.528-1.664,0.768-2.977,0.768c-1.329,0-2.193-0.224-2.993-0.768
		c-1.089-0.752-1.44-1.633-1.44-3.57v-6.435h2v6.547c0,1.568,0.816,2.353,2.497,2.353c1.537,0,2.354-0.833,2.354-2.353v-6.547h2.017
		v6.435C108.863,27.408,108.511,28.272,107.406,29.041z"/>
	<path fill="#6D6E71" d="M117.157,21.549c-1.121-0.496-2.033-0.752-2.737-0.752c-0.944,0-1.553,0.384-1.553,0.977
		c0,0.448,0.256,0.72,1.009,1.121c1.616,0.864,2.673,1.537,3.169,2.033c0.448,0.448,0.721,1.152,0.721,1.889
		c0,1.889-1.377,2.993-3.714,2.993c-0.32,0-0.641-0.016-0.944-0.064c-0.752-0.096-1.104-0.224-2.209-0.736
		c-0.145-0.064-0.384-0.176-0.688-0.32l0.849-1.856c0.769,0.416,1.088,0.576,1.505,0.736c0.528,0.192,1.104,0.304,1.521,0.304
		c0.928,0,1.536-0.417,1.536-1.057c0-0.448-0.24-0.752-0.928-1.136l-1.633-0.929c-1.873-1.072-2.449-1.776-2.449-2.929
		c0-0.528,0.16-1.072,0.416-1.473c0.176-0.272,0.448-0.544,0.784-0.784c0.769-0.528,1.425-0.704,2.657-0.704
		c0.704,0,1.329,0.08,1.985,0.272c0.512,0.16,0.8,0.272,1.504,0.608L117.157,21.549z"/>
	<path fill="#6D6E71" d="M63.902,44.601l-3.521-5.025v5.025h-2.017V34.036h2.017v4.93l3.313-4.93h2.321l-3.634,5.139l3.825,5.426
		H63.902z"/>
	<path fill="#6D6E71" d="M71.796,44.808c-3.297,0-5.618-2.271-5.618-5.49c0-3.264,2.273-5.473,5.618-5.473
		c3.329,0,5.603,2.209,5.603,5.473C77.398,42.536,75.077,44.808,71.796,44.808z M71.796,35.589c-2.001,0-3.474,1.6-3.474,3.729
		c0,2.146,1.473,3.73,3.474,3.73c1.985,0,3.458-1.584,3.458-3.73C75.254,37.188,73.781,35.589,71.796,35.589z"/>
	<path fill="#6D6E71" d="M88.256,44.601v-7.748c-0.08,0.545-0.064,0.625-0.4,1.506l-2.417,6.242H83.63l-2.209-6.131
		c-0.225-0.607-0.24-0.783-0.4-1.68v7.811h-1.825V34.036h2.417l2.817,7.539c0.112,0.305,0.16,0.416,0.208,0.816
		c0.064-0.496,0.097-0.561,0.192-0.816l2.929-7.539h2.417v10.564H88.256z"/>
	<path fill="#6D6E71" d="M101.872,44.601v-7.748c-0.08,0.545-0.064,0.625-0.4,1.506l-2.417,6.242h-1.809l-2.209-6.131
		c-0.225-0.607-0.24-0.783-0.4-1.68v7.811h-1.824V34.036h2.416l2.817,7.539c0.112,0.305,0.16,0.416,0.208,0.816
		c0.064-0.496,0.097-0.561,0.192-0.816l2.929-7.539h2.417v10.564H101.872z"/>
	<path fill="#6D6E71" d="M113.635,44.04c-0.768,0.527-1.664,0.768-2.977,0.768c-1.329,0-2.193-0.223-2.993-0.768
		c-1.089-0.752-1.44-1.633-1.44-3.57v-6.434h2v6.547c0,1.568,0.816,2.354,2.497,2.354c1.537,0,2.354-0.834,2.354-2.354v-6.547h2.017
		v6.434C115.092,42.407,114.739,43.272,113.635,44.04z"/>
	<path fill="#6D6E71" d="M124.464,44.696l-4.53-6.834c-0.031-0.049-0.096-0.193-0.224-0.416c-0.064-0.129-0.112-0.209-0.128-0.225
		c-0.064-0.129-0.096-0.193-0.145-0.369v7.748h-1.92V34.036h2.32l4.434,6.947c0.017,0.031,0.064,0.111,0.112,0.223
		c0.048,0.113,0.08,0.178,0.096,0.209l0.097,0.271l0.096,0.193v-7.844h1.905v10.66H124.464z"/>
	<path fill="#6D6E71" d="M129.165,44.601V34.036h6.435v1.713h-4.418v2.609h3.618v1.713h-3.618v2.816h4.626v1.713H129.165z"/>
</g>
</svg>
