<?xml version="1.0" encoding="utf-8"?>
<!-- Generator: Adobe Illustrator 16.0.0, SVG Export Plug-In . SVG Version: 6.00 Build 0)  -->
<!DOCTYPE svg PUBLIC "-//W3C//DTD SVG 1.1//EN" "http://www.w3.org/Graphics/SVG/1.1/DTD/svg11.dtd">
<svg version="1.1" id="Layer_1" xmlns="http://www.w3.org/2000/svg" xmlns:xlink="http://www.w3.org/1999/xlink" x="0px" y="0px"
	 width="555.631px" height="119.596px" viewBox="0 0 555.631 119.596" enable-background="new 0 0 555.631 119.596"
	 xml:space="preserve">
<path d="M59.799,119.596C26.826,119.596,0,92.771,0,59.798C0,26.825,26.826,0,59.799,0c32.973,0,59.798,26.825,59.798,59.798
	C119.598,92.771,92.772,119.596,59.799,119.596L59.799,119.596z M59.799,11C32.891,11,11,32.891,11,59.798
	c0,26.907,21.891,48.798,48.799,48.798c26.908,0,48.798-21.891,48.798-48.798C108.598,32.891,86.707,11,59.799,11L59.799,11z
	 M31.634,82.532c1.383,0,2.765-0.528,3.82-1.582l17.331-17.331c2.11-2.11,2.11-5.53,0-7.641L35.455,38.646
	c-2.11-2.109-5.531-2.109-7.641,0c-2.11,2.11-2.11,5.531,0,7.641l13.511,13.511L27.814,73.309c-2.11,2.109-2.11,5.53,0,7.641
	C28.869,82.003,30.251,82.532,31.634,82.532L31.634,82.532z M87.964,82.532c1.383,0,2.765-0.527,3.82-1.582
	c2.11-2.11,2.11-5.531,0-7.641L78.273,59.798l13.511-13.51c2.11-2.11,2.11-5.531,0-7.641c-2.11-2.109-5.53-2.109-7.641,0
	L66.812,55.978c-1.013,1.013-1.582,2.387-1.582,3.82c0,1.433,0.569,2.807,1.582,3.82L84.144,80.95
	C85.199,82.004,86.582,82.532,87.964,82.532L87.964,82.532z M59.799,54.367c1.383,0,2.765-0.527,3.82-1.582l17.331-17.331
	c2.11-2.11,2.11-5.531,0-7.641c-2.11-2.109-5.531-2.11-7.64,0L59.799,41.324L46.289,27.813c-2.11-2.109-5.531-2.109-7.641,0
	c-2.11,2.11-2.11,5.531,0,7.641l17.331,17.331C57.034,53.839,58.417,54.367,59.799,54.367L59.799,54.367z M42.467,93.366
	c1.382,0,2.765-0.527,3.82-1.583l13.512-13.511l13.51,13.511c2.11,2.109,5.531,2.109,7.641,0c2.11-2.11,2.11-5.53,0-7.64
	L63.62,66.812c-2.11-2.109-5.53-2.11-7.641,0L38.647,84.143c-2.11,2.109-2.11,5.529,0,7.64
	C39.702,92.838,41.084,93.366,42.467,93.366L42.467,93.366z M201.496,18.259l6.686,13.58c1.834,4.003,5.449,7.267,9.42,7.272h23.413
	l0.001,51.21c0,6.084,4.932,11.017,11.017,11.017s11.017-4.933,11.017-11.017l-0.001-51.21h23.413
	c3.967-0.005,7.586-3.269,9.42-7.272l6.687-13.58H201.496z M415.367,18.456c-4.111-0.003-7.917,2.014-9.637,5.532l-35.291,77.153
	h16.049c4.402,0,8.776-2.008,10.537-5.531l26.816-58.628l13.796,30.16h-21.591l36.697,30.827l-0.005-0.01
	c2.237,1.975,5.2,3.182,8.456,3.182l5.016-0.012c5.811,0.012,8.165-6.26,6.383-10.154l-30.641-66.987
	c-1.893-3.518-5.589-5.521-9.637-5.532l0,0H415.367z M168.43,18.457c-4.111-0.003-7.917,2.014-9.637,5.532l-35.291,77.153h16.049
	c4.402,0,8.776-2.008,10.537-5.531l26.816-58.627l13.796,30.16h-21.591l36.697,30.827l-0.005-0.01
	c2.237,1.975,5.2,3.182,8.456,3.182l5.016-0.012c5.811,0.012,8.165-6.26,6.383-10.154l-30.641-66.987
	c-1.893-3.518-5.589-5.521-9.637-5.532l0,0H168.43z M356.77,101.246c4.002-0.015,7.586-3.27,9.42-7.271l4.25-13.842h-40.488
	l-0.016-45.685c-0.033-3.959-3.27-7.585-7.271-9.42l-14.694-6.687l-0.007,71.95c0,6.084,4.924,10.965,11.01,10.965l0,0
	L356.77,101.246z M495.65,49.251c-2.496,0-4.52-2.096-4.52-4.682c0-2.585,2.023-4.681,4.52-4.681h42.201
	c3.967-0.018,7.584-3.292,9.42-7.323l6.681-14.113h-72.18c-5.979,0-10.628,5.008-10.628,11.036V59.39
	c0,6.127,4.836,11.05,10.92,11.05l49.035-0.019c2.504,0.016,4.553,2.226,4.57,4.846c0.014,2.622-2.002,4.732-4.506,4.717
	l-55.451,0.004l4.178,13.833c1.428,4.21,5.443,7.314,9.42,7.322h55.771c5.925,0,10.55-5.031,10.55-11.032V60.21
	c0-6.127-4.904-10.962-10.988-10.962L495.65,49.251z"/>
</svg>
