<?xml version="1.0" encoding="utf-8"?>
<!-- Generator: Adobe Illustrator 16.0.0, SVG Export Plug-In . SVG Version: 6.00 Build 0)  -->
<!DOCTYPE svg PUBLIC "-//W3C//DTD SVG 1.1//EN" "http://www.w3.org/Graphics/SVG/1.1/DTD/svg11.dtd">
<svg version="1.1" id="Layer_1" xmlns="http://www.w3.org/2000/svg" xmlns:xlink="http://www.w3.org/1999/xlink" x="0px" y="0px"
	 width="117.598px" height="117.598px" viewBox="0 0 117.598 117.598" enable-background="new 0 0 117.598 117.598"
	 xml:space="preserve">
<path d="M13.864,53.574h-0.65v-0.656h0.67c0.16,0,0.274,0.027,0.355,0.083c0.077,0.055,0.116,0.132,0.116,0.236v0.011
	c0,0.109-0.043,0.192-0.126,0.243C14.147,53.545,14.024,53.574,13.864,53.574z M25.246,60.391h-0.399v0.573h0.399
	c0.188,0,0.312-0.118,0.312-0.287C25.558,60.512,25.434,60.391,25.246,60.391z M14.509,54.645v-0.012
	c0-0.103-0.041-0.186-0.122-0.246c-0.083-0.062-0.211-0.09-0.384-0.09h-0.789v0.688h0.8c0.158,0,0.283-0.03,0.367-0.091
	C14.464,54.84,14.509,54.754,14.509,54.645z M42.552,54.654c0.087,0.094,0.186,0.166,0.303,0.221
	c0.118,0.055,0.248,0.081,0.391,0.081c0.141,0,0.271-0.024,0.389-0.077c0.117-0.055,0.216-0.126,0.301-0.218
	c0.083-0.091,0.145-0.195,0.189-0.317c0.047-0.12,0.071-0.247,0.071-0.381v-0.014c0-0.132-0.024-0.261-0.071-0.383
	c-0.045-0.121-0.112-0.227-0.194-0.318c-0.089-0.092-0.189-0.166-0.307-0.223c-0.117-0.055-0.246-0.08-0.393-0.08
	c-0.139,0-0.269,0.025-0.382,0.079c-0.118,0.052-0.218,0.125-0.302,0.213c-0.083,0.091-0.148,0.199-0.191,0.321
	c-0.043,0.119-0.066,0.247-0.066,0.382v0.009c0,0.136,0.023,0.264,0.068,0.385C42.402,54.454,42.469,54.561,42.552,54.654z
	 M39.899,53.757c0.096-0.081,0.143-0.187,0.143-0.323v-0.01c0-0.149-0.051-0.263-0.149-0.335c-0.098-0.07-0.234-0.106-0.409-0.106
	h-0.675v0.896h0.681C39.667,53.878,39.804,53.836,39.899,53.757z M17.505,53.29l-0.421,1.061h0.835L17.505,53.29z M21.93,54.654
	c0.187-0.164,0.284-0.396,0.284-0.699v-0.012c0-0.296-0.098-0.528-0.284-0.692c-0.189-0.167-0.438-0.249-0.746-0.249h-0.427v1.896
	h0.427C21.492,54.898,21.74,54.817,21.93,54.654z M28.85,60.375c-0.119,0-0.217,0.043-0.276,0.115
	c-0.082,0.09-0.104,0.19-0.104,0.607c0,0.418,0.022,0.52,0.104,0.611c0.06,0.072,0.157,0.115,0.276,0.115
	c0.113,0,0.21-0.043,0.27-0.115c0.081-0.092,0.106-0.193,0.106-0.611c0-0.417-0.025-0.518-0.106-0.607
	C29.06,60.418,28.963,60.375,28.85,60.375z M87.897,64.23c-0.883-0.652-2.385-1.146-4.263-1.146h-8.292v8h8.405
	c1.726,0,3.171-0.44,4.089-1.073c0.924-0.631,1.506-1.663,1.506-2.853v-0.114C89.343,65.933,88.778,64.881,87.897,64.23z
	 M114.761,58.76c-0.049,31.001-25.308,56.324-56.308,56.324h-0.088c-15.041,0-29.17-6.006-39.79-16.658
	C7.958,87.775,2.122,73.524,2.146,58.485C2.192,27.483,27.453,2.084,58.449,2.084h0.09c15.041,0,29.171,6.082,39.791,16.729
	C108.949,29.468,114.784,43.719,114.761,58.76z M49.218,55.813h1.032v-0.962l0.379-0.422l0.94,1.384h1.237l-1.461-2.123l1.414-1.604
	h-1.225l-1.285,1.513v-1.513h-1.032V55.813z M45.417,53.963c0,0.275,0.052,0.531,0.152,0.767c0.102,0.238,0.236,0.442,0.409,0.614
	c0.171,0.172,0.376,0.308,0.61,0.402c0.234,0.096,0.484,0.144,0.751,0.144c0.205,0,0.391-0.021,0.557-0.062
	c0.165-0.044,0.316-0.103,0.448-0.176c0.133-0.075,0.252-0.164,0.356-0.269c0.104-0.101,0.201-0.216,0.29-0.335l-0.778-0.554
	c-0.058,0.066-0.113,0.129-0.173,0.184s-0.119,0.104-0.186,0.143c-0.066,0.043-0.139,0.074-0.22,0.093
	c-0.079,0.023-0.167,0.034-0.261,0.034c-0.132,0-0.254-0.027-0.36-0.076c-0.109-0.054-0.203-0.122-0.281-0.215
	c-0.077-0.086-0.14-0.19-0.185-0.312c-0.042-0.125-0.063-0.256-0.063-0.395V53.94c0-0.135,0.021-0.263,0.063-0.382
	c0.045-0.122,0.107-0.227,0.185-0.317c0.078-0.089,0.172-0.157,0.281-0.21c0.106-0.052,0.229-0.077,0.36-0.077
	c0.178,0,0.333,0.04,0.461,0.118c0.128,0.077,0.245,0.184,0.353,0.317l0.778-0.602c-0.083-0.113-0.177-0.218-0.281-0.315
	c-0.106-0.095-0.222-0.176-0.351-0.245c-0.13-0.069-0.272-0.124-0.429-0.159c-0.158-0.038-0.33-0.058-0.521-0.058
	c-0.286,0-0.548,0.05-0.789,0.149c-0.239,0.101-0.446,0.237-0.617,0.414c-0.179,0.174-0.315,0.38-0.412,0.615
	c-0.102,0.239-0.149,0.49-0.149,0.76V53.963z M41.232,53.963c0,0.264,0.052,0.516,0.152,0.75c0.103,0.234,0.241,0.438,0.418,0.612
	c0.179,0.173,0.389,0.31,0.634,0.413c0.243,0.102,0.512,0.153,0.798,0.153c0.288,0,0.559-0.052,0.8-0.153
	c0.246-0.104,0.459-0.24,0.641-0.416c0.18-0.176,0.32-0.383,0.421-0.617c0.104-0.236,0.153-0.488,0.153-0.756V53.94
	c0-0.267-0.049-0.517-0.153-0.753c-0.101-0.233-0.237-0.438-0.416-0.611c-0.178-0.174-0.389-0.313-0.634-0.412
	c-0.246-0.101-0.509-0.152-0.799-0.152c-0.288,0-0.553,0.052-0.8,0.152c-0.245,0.099-0.459,0.24-0.641,0.417
	c-0.179,0.173-0.319,0.38-0.422,0.617c-0.101,0.233-0.152,0.485-0.152,0.751V53.963z M37.774,55.813h1.034v-1.129h0.442h0.01
	l0.752,1.129h1.19l-0.89-1.296c0.238-0.101,0.422-0.246,0.561-0.433c0.14-0.188,0.21-0.427,0.21-0.715v-0.011
	c0-0.365-0.113-0.656-0.333-0.868c-0.124-0.128-0.284-0.229-0.482-0.299s-0.442-0.108-0.732-0.108h-1.762V55.813z M34.255,55.813
	h3.018v-0.877h-2.001v-0.593h1.648v-0.814h-1.648v-0.564h1.976v-0.879h-2.992V55.813z M30.265,54.179
	c0,0.292,0.037,0.547,0.117,0.761c0.081,0.214,0.194,0.392,0.347,0.531c0.146,0.141,0.328,0.246,0.542,0.312
	c0.213,0.068,0.452,0.101,0.717,0.101c0.267,0,0.51-0.032,0.724-0.101c0.213-0.066,0.398-0.172,0.548-0.312
	c0.151-0.14,0.269-0.32,0.353-0.539c0.083-0.217,0.125-0.478,0.125-0.778v-2.067h-1.056v2.1c0,0.262-0.06,0.459-0.184,0.58
	c-0.124,0.124-0.288,0.186-0.497,0.186c-0.211,0-0.373-0.063-0.499-0.193c-0.124-0.129-0.184-0.329-0.184-0.598v-2.074h-1.053
	V54.179z M26.564,52.992h1.119v2.821h1.034v-2.821h1.116v-0.906h-3.27V52.992z M25.482,54.749v0.011c0,0.081-0.036,0.145-0.11,0.191
	c-0.074,0.043-0.179,0.065-0.317,0.065c-0.434,0-0.837-0.149-1.208-0.449l-0.578,0.688c0.232,0.21,0.499,0.363,0.798,0.468
	c0.301,0.104,0.618,0.154,0.951,0.154c0.227,0,0.434-0.026,0.619-0.083c0.182-0.054,0.342-0.134,0.474-0.237
	c0.13-0.104,0.234-0.23,0.306-0.379c0.072-0.152,0.108-0.321,0.108-0.511v-0.013c0-0.173-0.032-0.323-0.096-0.448
	c-0.062-0.127-0.156-0.234-0.277-0.322c-0.118-0.09-0.267-0.164-0.438-0.227c-0.172-0.063-0.366-0.115-0.58-0.16
	c-0.124-0.029-0.232-0.058-0.315-0.085c-0.083-0.025-0.149-0.052-0.196-0.079c-0.049-0.027-0.084-0.056-0.103-0.088
	c-0.018-0.031-0.028-0.068-0.028-0.109v-0.012c0-0.066,0.032-0.124,0.093-0.171c0.063-0.044,0.157-0.069,0.279-0.069
	c0.168,0,0.341,0.029,0.521,0.095c0.179,0.06,0.354,0.153,0.524,0.273l0.517-0.731c-0.202-0.166-0.429-0.289-0.679-0.373
	c-0.252-0.085-0.535-0.126-0.855-0.126c-0.226,0-0.425,0.029-0.604,0.087c-0.178,0.058-0.327,0.141-0.453,0.246
	c-0.128,0.109-0.222,0.234-0.288,0.379c-0.067,0.146-0.1,0.305-0.1,0.479v0.01c0,0.192,0.038,0.354,0.111,0.482
	c0.072,0.131,0.172,0.237,0.296,0.324c0.128,0.087,0.277,0.159,0.444,0.212c0.171,0.056,0.355,0.106,0.557,0.153
	c0.128,0.027,0.23,0.056,0.31,0.083c0.081,0.026,0.145,0.054,0.192,0.081c0.047,0.028,0.081,0.057,0.098,0.086
	C25.473,54.678,25.482,54.711,25.482,54.749z M19.726,55.813h1.417c0.333,0,0.634-0.044,0.895-0.141
	c0.269-0.093,0.492-0.222,0.672-0.391c0.182-0.167,0.32-0.364,0.414-0.595c0.098-0.229,0.145-0.479,0.145-0.747v-0.01
	c0-0.271-0.047-0.519-0.141-0.743c-0.094-0.227-0.232-0.423-0.412-0.584c-0.179-0.162-0.398-0.291-0.659-0.383
	c-0.26-0.088-0.559-0.135-0.894-0.135h-1.437V55.813z M17.014,52.059l-1.586,3.757h1.089l0.265-0.665h1.438l0.272,0.665h1.105
	l-1.587-3.757H17.014z M12.208,55.815h1.923c0.446,0,0.796-0.091,1.041-0.272c0.248-0.179,0.371-0.431,0.371-0.757v-0.01
	c0-0.252-0.067-0.449-0.202-0.588c-0.132-0.142-0.313-0.248-0.542-0.322c0.168-0.071,0.305-0.174,0.41-0.308
	c0.108-0.132,0.162-0.308,0.162-0.523v-0.011c0-0.128-0.021-0.243-0.062-0.341c-0.043-0.102-0.103-0.188-0.175-0.26
	c-0.11-0.113-0.25-0.194-0.416-0.252c-0.166-0.057-0.365-0.086-0.602-0.086h-1.908V55.815z M53.026,58.104L11.993,58.1L11.99,64.4
	h41.036V58.104z M100.343,68.711v-0.115c0-2.721-0.775-4.838-2.217-6.352c-1.442-1.516-3.449-2.674-5.907-3.479
	c1.79-0.767,3.249-1.87,4.413-3.306c1.162-1.439,1.711-3.324,1.711-5.664v-0.116c0-1.38-0.197-2.664-0.656-3.738
	c-0.457-1.071-1.055-2.071-1.858-2.877c-1.185-1.187-2.679-2.205-4.478-2.82c-1.797-0.613-3.96-1.159-6.486-1.159H64.343v41h20.673
	c4.828,0,8.622-1.115,11.286-3.068C98.966,75.059,100.343,72.199,100.343,68.711z M86.034,54.981c0.9-0.578,1.309-1.698,1.309-2.885
	V51.98c0-1.111-0.379-2.186-1.222-2.782c-0.843-0.594-2.064-1.114-3.752-1.114h-7.026v8h6.798
	C83.865,56.084,85.134,55.555,86.034,54.981z M33.801,60.391h-0.318v1.416h0.318c0.146,0,0.243-0.046,0.317-0.134
	c0.079-0.098,0.093-0.254,0.093-0.583c0-0.328-0.014-0.466-0.093-0.563C34.044,60.438,33.946,60.391,33.801,60.391z M117.598,58.799
	c0,32.475-26.324,58.799-58.801,58.799C26.323,117.598,0,91.273,0,58.799C0,26.325,26.323,0,58.797,0
	C91.273,0,117.598,26.325,117.598,58.799z M111.17,81.076c2.991-7.045,4.514-14.547,4.527-22.266
	c0.012-7.728-1.49-15.254-4.466-22.316c-2.87-6.82-6.99-13.001-12.239-18.266S87.629,8.72,80.816,5.826
	c-7.055-2.994-14.549-4.742-22.277-4.742h-0.09c-7.717,0-15.204,1.724-22.254,4.702c-6.812,2.877-12.93,7.208-18.188,12.454
	c-5.253,5.248-9.385,11.363-12.271,18.168c-2.991,7.05-4.514,14.539-4.526,22.259C1.199,66.395,2.7,73.9,5.675,80.961
	c2.874,6.82,6.99,12.96,12.235,18.226c5.251,5.265,11.365,9.425,18.178,12.318c7.053,2.996,14.547,4.579,22.277,4.579h0.088
	c7.718,0,15.204-1.556,22.256-4.534c6.812-2.878,12.93-7.045,18.188-12.293C104.152,94.008,108.281,87.883,111.17,81.076z
	 M41.393,60.352c-0.164,0-0.285,0.115-0.285,0.316c0,0.192,0.113,0.316,0.285,0.316c0.16,0,0.275-0.113,0.275-0.316
	C41.668,60.467,41.553,60.352,41.393,60.352z M52.589,63.965H12.424l0.004-5.429l40.161,0.001V63.965z M17.183,61.24
	c-0.517-0.116-1.033-0.231-1.548-0.341l-1.484-0.592l-0.03,0.017l0.476,0.789h-1.214v0.252h1.215L14.12,62.15l0.03,0.02l1.484-0.59
	C16.149,61.467,16.666,61.352,17.183,61.24z M20.595,61.543c0-0.191-0.05-0.352-0.165-0.461c-0.094-0.085-0.218-0.138-0.416-0.164
	l-0.256-0.039c-0.09-0.012-0.16-0.047-0.202-0.085c-0.046-0.044-0.064-0.102-0.064-0.154c0-0.149,0.11-0.275,0.337-0.275
	c0.143,0,0.308,0.018,0.444,0.149l0.267-0.268c-0.184-0.178-0.401-0.252-0.7-0.252c-0.47,0-0.757,0.273-0.757,0.66
	c0,0.183,0.053,0.321,0.157,0.426c0.097,0.095,0.234,0.153,0.419,0.182l0.264,0.036c0.101,0.015,0.151,0.035,0.192,0.075
	c0.047,0.045,0.064,0.107,0.064,0.186c0,0.171-0.131,0.266-0.382,0.266c-0.201,0-0.387-0.043-0.525-0.182l-0.275,0.273
	c0.214,0.216,0.465,0.287,0.794,0.287C20.244,62.203,20.595,61.965,20.595,61.543z M22.357,60.013h-1.557v0.378h0.566v1.793h0.426
	v-1.793h0.564V60.013z M24.077,60.013h-1.43v2.171h1.43v-0.377h-1.008V61.28h0.858v-0.378h-0.858v-0.512h1.008V60.013z
	 M26.069,62.184l-0.486-0.936c0.21-0.078,0.397-0.266,0.397-0.571c0-0.36-0.261-0.664-0.706-0.664h-0.85v2.171h0.422v-0.865h0.308
	l0.421,0.865H26.069z M27.794,60.013H26.36v2.171h1.434v-0.377h-1.009V61.28h0.857v-0.378h-0.857v-0.512h1.009V60.013z
	 M29.648,61.098c0-0.374,0.004-0.646-0.216-0.865c-0.151-0.151-0.339-0.238-0.583-0.238c-0.249,0-0.438,0.087-0.591,0.238
	c-0.22,0.219-0.215,0.491-0.215,0.865c0,0.377-0.005,0.648,0.215,0.867c0.152,0.152,0.342,0.238,0.591,0.238
	c0.244,0,0.432-0.086,0.583-0.238C29.652,61.746,29.648,61.475,29.648,61.098z M31.894,61.543c0-0.191-0.052-0.352-0.169-0.461
	c-0.09-0.085-0.214-0.138-0.412-0.164l-0.258-0.039c-0.09-0.012-0.158-0.047-0.201-0.085c-0.045-0.044-0.063-0.102-0.063-0.154
	c0-0.149,0.108-0.275,0.335-0.275c0.143,0,0.308,0.018,0.446,0.149l0.267-0.268c-0.184-0.178-0.401-0.252-0.702-0.252
	c-0.47,0-0.756,0.273-0.756,0.66c0,0.183,0.052,0.321,0.156,0.426c0.098,0.095,0.234,0.153,0.42,0.182l0.265,0.036
	c0.099,0.015,0.147,0.035,0.19,0.075c0.047,0.045,0.067,0.107,0.067,0.186c0,0.171-0.134,0.266-0.384,0.266
	c-0.204,0-0.388-0.043-0.524-0.182l-0.275,0.273c0.215,0.216,0.465,0.287,0.792,0.287C31.543,62.203,31.894,61.965,31.894,61.543z
	 M32.636,60.013h-0.425v2.171h0.425V60.013z M34.635,61.09c0-0.324,0.025-0.625-0.22-0.87c-0.145-0.145-0.348-0.207-0.574-0.207
	h-0.785v2.171h0.785c0.227,0,0.43-0.064,0.574-0.207C34.66,61.734,34.635,61.418,34.635,61.09z M36.432,60.013H35v2.171h1.432
	v-0.377h-1.009V61.28h0.859v-0.378h-0.859v-0.512h1.009V60.013z M38.438,60.013h-0.423v1.331l-0.861-1.331h-0.378v2.171H37.2v-1.332
	l0.861,1.332h0.376V60.013z M40.252,60.013h-0.394l-0.445,0.385v0.427l0.445-0.383v1.742h0.394V60.013z M42.065,60.666
	c0-0.43-0.291-0.672-0.673-0.672c-0.388,0-0.681,0.25-0.681,0.678c0,0.402,0.282,0.645,0.574,0.645c0.05,0,0.109-0.008,0.162-0.027
	l-0.45,0.895h0.427l0.461-0.938C41.984,61.048,42.065,60.863,42.065,60.666z M43.71,60.013h-1.38v0.698h0.379v-0.342h0.57
	l-0.704,1.814h0.433l0.702-1.814V60.013z M45.355,61.556c0-0.261-0.124-0.411-0.279-0.493c0.145-0.078,0.249-0.211,0.249-0.445
	c0-0.366-0.276-0.623-0.661-0.623c-0.365,0-0.655,0.232-0.664,0.619h0.396c0.009-0.164,0.119-0.262,0.269-0.262
	c0.144,0,0.267,0.095,0.267,0.277c0,0.152-0.083,0.271-0.275,0.271H44.6v0.346h0.056c0.196,0,0.306,0.119,0.306,0.297
	c0,0.197-0.122,0.305-0.295,0.305c-0.155,0-0.288-0.09-0.294-0.284h-0.396c0.003,0.454,0.336,0.64,0.689,0.64
	C45.04,62.203,45.355,61.991,45.355,61.556z M50.927,61.113H49.83l0.479-0.785l-0.034-0.021l-1.481,0.592
	c-0.516,0.109-1.032,0.225-1.549,0.341c0.517,0.111,1.033,0.227,1.549,0.34l1.481,0.59l0.034-0.017l-0.479-0.788h1.098V61.113z"/>
</svg>
