<?xml version="1.0" encoding="utf-8"?>
<!-- Generator: Adobe Illustrator 16.0.0, SVG Export Plug-In . SVG Version: 6.00 Build 0)  -->
<!DOCTYPE svg PUBLIC "-//W3C//DTD SVG 1.1//EN" "http://www.w3.org/Graphics/SVG/1.1/DTD/svg11.dtd">
<svg version="1.1" id="Layer_1" xmlns="http://www.w3.org/2000/svg" xmlns:xlink="http://www.w3.org/1999/xlink" x="0px" y="0px"
	 width="147.71px" height="146.723px" viewBox="0 0 147.71 146.723" enable-background="new 0 0 147.71 146.723"
	 xml:space="preserve">
<path d="M147.71,77.592c-0.488-3.234-3.606-5.814-6.143-7.986c0.572-0.779,1.759,0.043,1.636-1.146
	c-2.295-4.141-6.963-3.893-10.977-3.443c-1.311,0.164-3.158,0.615-4.223-0.41c1.233-0.287,2.663-0.652,3.895-0.734
	c2.906-1.107,3.848-4.51,3.934-7.377c0.244-1.227,1.352-1.924,2.209-2.539c-1.35-2.172-4.014-3.031-6.387-3.154
	c-2.215-0.205-0.415-2.539-0.698-3.77l-0.164-0.574c-3.481,0.121-6.844,2.17-9.301,4.795c-0.124-0.533-0.246-1.148-0.204-1.764
	c-0.614-0.982-1.517-0.039-2.336-0.121c-4.797,1.924-9.504,5.529-10.036,11.061l0.284,4.877c-2.54-0.492-5.111-0.098-7.407-1.041
	c-0.149,0.055-0.253-0.061-0.325,0.02l-0.493-0.127c-0.403-0.229-0.518,0.092-0.991-0.203c0.246-4.756-0.453-10.285-4.797-12.988
	c-0.448-2.131-1.635-3.934-2.703-5.818c-0.901-1.148-2.127-3.359-3.891-2.99c-0.899-2.215-2.457-4.18-4.178-5.82
	c-0.736-0.287-1.678-1.352-2.417-0.287c-1.477-1.555-2.173-3.07-3.81-4.178c-0.778-0.736-1.066,0.492-1.766,0.287
	c-1.104-1.434-2.785-2.703-4.382-3.85c-1.559,1.023-3.113,2.498-4.22,3.975c-0.371-0.451-0.696-0.166-1.148-0.207l-4.055,4.549
	l-1.271-0.205c-1.597,1.803-3.444,3.891-4.549,5.9l-0.902-0.164c-1.677,1.434-3.031,3.439-3.972,5.365
	c-0.94,1.145-0.656,3.318-2.213,3.73c-2.539,3.562-3.564,8.439-3.156,12.863c-0.166,0.568-0.703,0.527-1.123,0.775l-0.363,0.049
	l1.857,7.084c0.41,1.188,1.106,2.459,1.352,3.605c-0.859,0.49-1.966,1.105-2.377,1.963c0.286,0.783,1.227,0.783,1.844,1.148
	c5.12,2.172,5.816,8.195,10.735,10.531c3.071,1.596,8.071,2.049,11.186,0.203c0.532,1.805-0.738,3.404-1.31,5.08
	c-0.289,0.41-0.7,1.109-0.25,1.559c3.4-0.285,7.537-0.285,11.144,0.287c0.575-0.164,0.368-0.82,0.575-1.191
	c-1.229-1.637-1.843-3.768-1.843-5.855c4.71,1.514,10.488,0.9,14.093-3.115c3.237-2.334,3.937-7.539,8.318-8.52
	c-0.614-1.027-1.97-1.559-2.952-2.377c1.402-2.199,2.377-3.75,3.215-6.17l0.185-0.098c1.477-0.533,3.73-0.287,5.533-0.164v0.164
	c-2.417,1.434-3.688,4.219-4.3,6.84c-0.492,3.359,0.12,7.129,2.497,9.59c1.062,0.326,1.433-0.986,2.333-1.107
	c1.069,1.885,1.763,4.096,3.812,5.324c1.6,0.82,1.147-1.391,1.844-1.965c1.927,2.211,5.453,1.432,6.514,4.709
	c1.312,0.451,1.807-1.475,2.665-2.254c0.82-1.719,0.452-3.645-0.122-5.365c-0.82-2.377-3.523-4.299-2.912-7.004
	c0.987-0.084,1.845,0.492,2.34,1.309c1.799,3.154,3.19,6.68,6.715,8.605c1.808,0.861,3.481,2.418,5.57,2.09
	c0.371-0.615-0.244-1.6,0.127-2.215c2.174,1.23,4.792,1.23,7.003,2.215c0.577-0.615,0-1.725,0-2.42l5.289,1.148l0.408-0.244
	c-0.126-3.729-0.408-6.883-1.438-10.367C145.661,77.348,146.77,78.211,147.71,77.592z M95.598,55.307
	c1.724,2.295,2.092,5.449,1.843,8.521c-0.283,0.533-1.35,0.41-1.312-0.287c0.291-2.09-1.145-3.688-1.965-5.406
	C94.41,57.068,94.697,56.043,95.598,55.307z M89.083,46.088c2.335,1.598,3.563,4.18,4.468,6.598c0.04,1.229-0.904,1.473-1.19,2.541
	c-1.022-1.15-2.459-2.541-3.891-2.828l-0.123,0.123c-0.45-0.533-0.741-1.434-1.149-2.172C87.324,48.709,88.101,47.318,89.083,46.088
	z M93.92,65.508c-1.025,0.982-2.582,1.312-3.195,2.705c-0.823-2.541-3.4-4.139-5.208-6.062c0.534-2.254,0.738-4.549,2.83-6.107
	C91.338,58.176,93.181,61.984,93.92,65.508z M83.388,39.164c1.805,1.064,2.129,3.279,3.523,4.67c0,1.066-1.639,1.312-1.145,2.623
	l-0.414,0.654c-1.145-1.229-2.537-2.539-4.054-3.277C81.542,42.031,82.365,40.516,83.388,39.164z M77.732,35.191h0.329
	c0.904,1.229,2.131,2.047,2.501,3.48l-1.967,4.18l-2.706-4.057C76.586,37.648,76.875,36.256,77.732,35.191z M77.449,46.826
	c-0.942,2.129-1.807,4.262-2.378,6.516c-0.614-0.412-1.188-0.861-2.006-0.82l-1.232,1.146c-0.777-2.416-2.049-4.549-3.478-6.678
	c0.571-2.582,1.924-4.916,3.767-7.049h0.41C74.579,41.908,75.771,44.613,77.449,46.826z M60.937,54.24
	c0.614-2.621,1.681-5.242,4.056-7.129c2.132,2.543,4.345,5.656,4.138,9.057c-1.31,1.844-2.869,3.729-3.398,5.982
	c-1.56-0.738-1.188-2.871-2.296-4.139C62.82,56.66,61.839,55.514,60.937,54.24z M61.757,61.738c-1.721,1.559-4.427,3.359-5.081,5.82
	c-1.311-0.738-2.417-1.928-3.894-2.172c-0.244-3.936,2.335-7.17,5.041-9.873c1.801,1.062,2.335,3.111,3.317,4.791L61.757,61.738z
	 M69.951,33.43l1.803-2.172c1.431,0.9,2.171,2.541,3.111,3.934l-0.776,1.434c-0.86-0.533-2.009-1.68-2.993-0.533
	C70.646,35.271,69.092,34.576,69.951,33.43z M67.084,35.559c0.982,0.656,2.046,1.803,2.17,3.074
	c-0.898,1.023-1.556,2.377-2.295,3.646c-0.287-1.352-1.845-2.5-2.089-3.646C65.566,37.607,66.139,36.336,67.084,35.559z
	 M62.125,40.064c1.064,0.945,1.597,2.215,2.132,3.525l-3.196,3.4c-0.452-1.025-1.066-2.09-1.884-2.869
	C60.362,42.973,60.854,41.09,62.125,40.064z M56.473,45.393c1.678,1.025,1.761,3.031,2.825,4.547
	c-0.861,1.27-0.49,3.688-2.706,3.605l-1.557,1.352c-0.776-0.656-1.269-1.842-2.089-2.58C54.381,50.104,54.096,47.152,56.473,45.393z
	 M50.735,54.201h0.366l1.971,2.662c-1.396,2.334-2.705,4.711-2.914,7.58c-1.719,0.408-1.146-1.477-1.351-2.418
	C49.012,59.279,49.711,56.617,50.735,54.201z M48.482,67.559c2.171-0.082,4.22,0.613,5.856,2.211
	c1.194,0.898,1.148,2.293,1.066,3.688c-1.845-0.533-4.67,2.662-5.448-0.697C49.261,71.082,48.686,69.398,48.482,67.559z
	 M63.969,87.918c-6.434-0.039-8.604-7.498-13.726-10.326c4.673-1.881,10.981-1.594,14.749,2.217c0.45,2.578,1.269,5.078,2.706,7.25
	C66.672,87.715,65.239,87.631,63.969,87.918z M65.935,74.482l-0.656,1.803c-2.007-1.516-4.382-2.42-6.799-2.584
	c-0.41-3.768,1.435-6.799,4.341-9.34c2.419-0.246,3.403,2.459,4.345,4.139C69.092,70.793,66.388,72.35,65.935,74.482z
	 M71.961,93.123c0.486-1.107,0.079-3.072,1.964-2.418c2.089-0.941,1.022,1.885,1.718,2.418H71.961z M78.188,79.109
	c-0.493,2.828,0,7.252-3.854,7.949c-1.678,0-3.564,0.166-4.261-1.678c-2.132-3.402-2.007-7.869-0.656-11.473
	c0.819-1.764,2.337-3.525,3.974-4.877c3.076,2.541,5.205,5.816,4.96,9.834L78.188,79.109z M76.71,67.68
	c-1.104-0.777-1.845-2.172-3.195-2.705c-1.393,0.697-2.009,1.969-3.235,2.99c-0.656-0.9-1.188-2.334-2.052-3.316
	c0.495-3.357,2.254-6.514,5.163-8.605c3.031,2.256,4.059,5.408,5.205,8.523C77.615,65.549,77.284,66.49,76.71,67.68z M77.568,55.799
	c0.291-3.113,1.562-6.268,3.523-8.973c2.624,1.721,3.688,4.67,4.88,7.25c-1.397,2.215-2.829,4.426-3.442,6.926l-1.354,1.023
	c-0.858-1.023-1.267-2.621-2.045-3.891C78.432,57.559,77.732,56.742,77.568,55.799z M79.414,68.375
	c0.778-1.598,2.011-3.029,3.322-4.26c3.81,1.312,5.364,5.283,5.855,9.055c-0.368,0.244,0.207,0.408-0.122,0.613
	c-2.255,0.615-4.792,1.393-7.087,2.377C81.589,73.332,77.489,71.367,79.414,68.375z M84.7,87.182
	c-1.885,0.043-3.73,0.328-5.451-0.246c1.147-2.049,1.886-4.467,2.134-6.801c3.191-2.828,7.787-3.85,11.92-3.607l2.417,0.779
	C92.153,80.668,90.229,86.646,84.7,87.182z M95.884,73.293c-0.572,2.008-2.825,0-4.178,0.49c-0.654-2.828,1.639-4.752,3.771-6.104
	c1.062-0.451,1.964-1.189,3.11-1.27C98.423,68.744,96.99,71.082,95.884,73.293z M141.811,75.586
	c-1.475,1.189,0.818,2.133,0.863,3.361c0.898,2.047,1.064,4.709,0.818,6.799c-2.213-0.121-4.221-1.514-6.434-2.006
	c-0.858,1.105,0.532,2.006,0.614,3.156c-2.868-0.578-5.287-2.254-7.825-3.732c-0.282-0.08-0.652,0.125-0.738,0.453
	c0.208,0.779,0.943,1.393,0.864,2.336c-5.575-1.557-4.956-8.973-10.738-10.736c-0.98-0.123-1.718,0.248-2.536,0.574
	c-0.738,0.818-0.903,1.928-0.659,2.908c0.903,3.77,5.247,6.805,3.485,11.021c-1.805-2.539-6.353-2.332-6.724-5.98
	c-0.163-0.328-0.571-0.408-0.855-0.328c-0.368,1.064-1.107,1.842-1.351,2.99c-1.642-1.639-2.38-4.098-2.787-6.227
	c-1.515,0.082-1.558,1.926-2.703,2.293c-1.478-3.195-0.739-7.045,1.146-9.914c1.147-1.68,3.402-2.172,4.872-3.359l1.562,0.41
	c-2.173,2.211-2.872,5.941-1.97,9.215c0.408,1.109,0.736,2.543,1.97,3.035c0.447-1.064-0.738-2.047-0.698-3.279
	c-0.535-2.621,0.37-4.955,1.801-6.76c2.049-3.154,5.411-0.695,7.95-0.244c6.063,1.924,11.636,5.08,16.759,9.34
	c0.487-0.529-0.413-1.104-0.572-1.639c-5.168-6.391-12.703-8.891-19.795-11.594c-0.651-1.27,0.328-2.91,0.494-4.344
	c1.885-3.439,5.655-4.424,8.933-5.613c0.08-0.164,0.448-0.285,0.329-0.533c-3.606-1.104-6.64,1.068-9.386,2.951
	c-1.477,2.01-3.317,3.812-2.909,6.514c-1.187-0.121-2.951,0-3.604-1.475c-0.902-2.334-1.147-6.391,0.698-8.562
	c1.677-2.172,4.259-4.137,6.962-4.465c0.777,1.189,0,2.867,1.232,3.686c0.94-0.941,1.475-2.496,2.537-3.482
	c1.353-1.35,3.156-2.416,4.753-3.236c0.084,1.189-1.022,2.541-0.284,3.729h0.776c2.051-0.613,4.22,0.369,6.144,0.986
	c-2.457,2.742-2.091,9.381-7.746,8.109c-1.102,0.453-2.332,1.271-2.536,2.623c0,1.555,1.478,2.541,2.788,2.992
	c3.929,1.146,7.826-1.764,11.469-0.125l0.699,0.531c-0.982,0.861-3.119,0.697-3.238,2.174c3.238,0.572,6.389,2.498,8.114,5.447
	C143.572,76.404,142.838,74.932,141.811,75.586z M44.356,65.01c-2.418,0.82-4.328,0.822-6.667,1.15l0.25-4.467
	c-0.453-6.268-6.844-9.873-12.087-11.43c-1.395,0.082-0.614,1.641-1.026,2.377c-2.253-2.211-5.325-4.098-8.643-4.592
	c-2.255,0.371-0.082,2.789-0.575,4.141c-0.611,0.574-1.475,0.369-2.212,0.574c-1.761,0.492-4.181,1.475-4.833,3.482
	c2.786,1.064,2.333,4.344,3.811,6.309c1.146,3.646,5.324,1.883,7.127,4.182c-0.121,0.777-0.984,0.777-1.516,0.859
	c-3.729-0.943-8.44-1.682-11.716,0.656c-0.943,1.021-2.174,1.924-2.05,3.193c0.532,0.164,1.269,0,1.515,0.533
	C3.073,74.232,0.656,76.65,0,79.846c0.656,0.818,1.927,0,2.949,0.244c-0.739,2.99-0.739,7.252-0.86,10.367l0.246,0.49
	c1.885-0.123,3.646-1.186,5.57-1.229l-0.37,2.09c1.517,0.49,2.993-0.984,4.593-1.107c1.062-0.041,1.801-1.188,2.785-1.105v2.09
	l0.9,0.123c2.949-0.656,5.491-2.789,7.62-5.121c1.925-2.254,2.213-5.164,4.342-7.252c0.41-0.207,1.026-0.578,1.393-0.123
	c-0.04,3.852-4.014,6.432-3.071,10.734c0.245,1.719,1.435,2.949,2.788,4.016l0.283-0.123c1.066-3.238,4.673-2.908,6.518-5.164
	c0.49,0.82,0.204,2.377,1.557,2.256c1.227-0.941,2.253-2.174,2.904-3.568c0.617-0.654,0.455-1.637,1.149-2.336
	c0.617,0.332,0.984,1.314,1.764,1.229c1.761-1.229,2.538-3.643,2.825-5.691c0.044-4.098-1.394-8.48-4.996-10.898
	c0.818-0.123,1.803-0.326,2.825-0.246c0.995-0.199,1.304-0.549,2.919-0.598l-0.748-4.018C45.035,64.887,44.396,65.057,44.356,65.01z
	 M41.296,73.738c2.089,2.582,2.335,6.311,1.517,9.301c-0.899-0.162-1.924-2.867-3.195-1.676c0.162,2.293-0.9,4.096-1.928,5.855
	c-0.693-0.863-0.735-2.662-2.128-2.949c-1.106,1.189-0.654,3.318-2.664,3.771c-1.435,0.816-2.907,1.596-4.013,2.906
	c-2.624-5.08,4.505-8.355,2.459-13.521c-1.027-0.859-2.705-1.229-3.896-0.529c-4.832,2.457-3.89,8.727-9.174,10.773
	c-0.739-0.736,2.049-2.621-0.246-2.867c-2.296,1.76-4.711,3.316-7.334,4.217c-0.289-1.146,1.518-2.086,0.447-3.314
	c-2.292,0.529-4.139,2.211-6.511,2.211c-0.492-3.359,0.244-6.68,1.925-9.344c-0.243-0.693-0.86-0.9-1.435-0.943
	c-0.532,0.168-0.982,0.656-1.677,0.496c1.309-3.031,4.301-5.287,7.453-5.695c0.244-0.328,0.572-0.82,0-0.984
	c-0.817-0.818-2.089-0.574-2.991-1.27c4.343-3.439,11.596,2.416,14.585-3.318c0.331-1.395-0.818-2.293-1.721-2.949
	c-2.292-0.41-4.586-0.248-6.103-2.215c-0.902-1.842-1.024-4.383-2.827-5.9c1.803-1.555,4.63-1.229,6.761-1.229
	c0.859-1.352-0.615-2.498-0.454-3.727c2.788,1.473,5.697,3.4,7.254,6.389c2.007,0,0.326-2.744,1.475-3.645
	c2.989,0.289,5.9,2.541,7.826,5.326c0.984,2.541,0.984,5.572,0,7.949c-0.821,0.738-2.05,0.861-3.156,1.105
	c-0.122-3.113-1.965-5.982-4.67-7.498c-2.296-1.557-5.449-2.662-8.152-1.557c0.983,1.064,2.826,1.064,4.136,1.803
	c2.38,0.287,4.102,2.336,5.451,4.098c0.204,1.393,1.271,2.705,0.697,4.139c-7.335,2.988-15.446,6.555-19.912,13.805l0.492,0.412
	c5.898-6.107,13.354-9.506,21.099-11.719c1.601,0.533,3.319,1.637,4.222,3.4c1.146,1.969,0.654,5.082,0.12,7.047
	c0.902,0,1.559-1.436,1.969-2.211c0.86-3.402,0.12-6.639-2.541-8.932C37.078,69.807,39.535,71.936,41.296,73.738z M18.14,26.143
	l2.907-2.986c1.932-1.986,3.591-3.043,4.979-3.172c1.383-0.127,2.818,0.529,4.301,1.973c1.663,1.619,2.541,3.221,2.63,4.805
	c0.089,1.582-0.732,3.26-2.453,5.029l-3.418,3.525c-0.216-0.086-0.39-0.191-0.525-0.322c-0.089-0.088-0.126-0.178-0.122-0.271
	c0.01-0.092,0.07-0.199,0.188-0.316l0.53-0.549c-0.591-0.643-2.176-2.219-4.745-4.723c-1.38-1.338-2.392-2.293-3.048-2.865
	L18.6,27.053c-0.217-0.084-0.386-0.189-0.517-0.316c-0.094-0.092-0.136-0.184-0.131-0.275C17.961,26.367,18.022,26.26,18.14,26.143z
	 M22.284,23.846c-0.366,0.375-0.651,0.717-0.867,1.025c0.642,0.693,2.288,2.33,4.937,4.906c1.111,1.082,1.812,1.639,2.098,1.67
	c0.29,0.029,0.806-0.336,1.546-1.1c0.868-0.891,1.271-1.799,1.206-2.723c-0.065-0.922-0.774-2.041-2.12-3.352
	c-1.383-1.348-2.597-2.027-3.643-2.041C24.399,22.219,23.344,22.758,22.284,23.846z M31.568,13.725l7.483-4.688
	c0.329-0.209,0.587-0.309,0.76-0.301c0.175,0.01,0.343,0.139,0.502,0.395c0.202,0.322,0.301,0.727,0.296,1.209
	c-1.355,0.281-3.001,1.027-4.928,2.234l-0.766,0.479c0.338,0.623,1.064,1.822,2.186,3.602l4.572-2.865
	c0.206,0.16,0.38,0.354,0.521,0.58c0.094,0.148,0.126,0.266,0.103,0.354c-0.028,0.086-0.125,0.182-0.295,0.289l-4.268,2.672
	c1.439,2.285,2.34,3.674,2.696,4.166l1.225-0.766c1.856-1.166,3.202-2.264,4.027-3.301c0.37,0.176,0.651,0.42,0.849,0.73
	c0.146,0.234,0.169,0.459,0.07,0.674c-0.103,0.213-0.412,0.482-0.933,0.809l-7.583,4.76c-0.187-0.133-0.332-0.279-0.431-0.438
	c-0.066-0.105-0.084-0.203-0.057-0.291c0.028-0.09,0.112-0.178,0.254-0.266l0.646-0.404c-0.422-0.768-1.585-2.672-3.493-5.713
	c-1.018-1.629-1.777-2.797-2.279-3.506l-0.929,0.58c-0.188-0.133-0.327-0.275-0.426-0.432c-0.071-0.111-0.089-0.209-0.062-0.299
	C31.344,13.898,31.428,13.812,31.568,13.725z M63.126,1.006l4.619-0.557c0.103,0.176,0.168,0.35,0.188,0.525
	c0.019,0.154,0,0.268-0.061,0.338c-0.062,0.068-0.179,0.115-0.348,0.137l-0.924,0.119c0.052,0.865,0.192,2.285,0.431,4.264
	l0.845,6.965c0.117,0.969,0.108,1.709-0.028,2.221c-0.136,0.51-0.449,0.945-0.934,1.307c-0.487,0.361-1.246,0.604-2.277,0.729
	c-0.662,0.08-1.103,0.074-1.323-0.014c-0.216-0.092-0.342-0.279-0.375-0.564c-0.047-0.373,0.023-0.717,0.216-1.029
	c1.224,0.211,1.983,0.215,2.273,0.014c0.292-0.201,0.348-1.025,0.175-2.471l-0.845-6.994c-0.229-1.904-0.427-3.285-0.586-4.143
	l-1.257,0.154c-0.117-0.201-0.184-0.391-0.207-0.57c-0.014-0.133,0.011-0.23,0.075-0.299C62.85,1.07,62.962,1.025,63.126,1.006z
	 M84.809,1.824c-0.788,1.123-2.363,3.566-4.717,7.324c-0.095,1.266-0.155,2.334-0.17,3.203l1.52,0.117
	c0.075,0.193,0.108,0.379,0.094,0.553c-0.009,0.154-0.057,0.262-0.127,0.32c-0.074,0.057-0.201,0.076-0.379,0.064l-5.093-0.389
	c-0.065-0.219-0.089-0.416-0.075-0.598c0.01-0.131,0.052-0.223,0.127-0.277c0.08-0.055,0.196-0.074,0.361-0.061l1.135,0.084
	c0.122-0.861,0.225-1.867,0.309-3.012C75.853,4.867,74.576,2.148,73.967,1l-0.801-0.062c-0.066-0.219-0.094-0.418-0.08-0.6
	c0.009-0.129,0.052-0.223,0.131-0.275C73.291,0.008,73.414-0.012,73.578,0l4.145,0.314c0.066,0.195,0.094,0.379,0.08,0.553
	c-0.01,0.156-0.051,0.262-0.127,0.32c-0.069,0.057-0.196,0.08-0.365,0.066l-0.525-0.041c0.239,0.846,0.699,2.148,1.384,3.906
	c0.685,1.756,1.063,2.639,1.139,2.645s0.534-0.789,1.374-2.383c0.845-1.596,1.436-2.84,1.772-3.736l-0.896-0.066
	c-0.075-0.221-0.104-0.42-0.089-0.602c0.009-0.131,0.052-0.223,0.131-0.275c0.076-0.055,0.197-0.074,0.361-0.064l3.732,0.285
	c0.071,0.195,0.094,0.379,0.084,0.553c-0.013,0.156-0.056,0.262-0.131,0.318c-0.07,0.059-0.191,0.08-0.366,0.066L84.809,1.824z
	 M96.494,3.635c1.42,0.457,2.382,0.85,2.884,1.178c0.497,0.328,0.679,0.709,0.539,1.145c-0.127,0.396-0.418,0.695-0.873,0.891
	c-1.19-1.012-2.372-1.707-3.554-2.086c-0.83-0.268-1.468-0.307-1.908-0.115c-0.441,0.189-0.746,0.549-0.915,1.078
	c-0.178,0.555-0.112,1.061,0.188,1.52c0.305,0.459,0.979,1.035,2.02,1.732c1.234,0.803,2.125,1.559,2.669,2.26
	c0.543,0.705,0.661,1.598,0.356,2.684c-0.385,1.195-1.125,1.955-2.223,2.279c-1.097,0.322-2.57,0.188-4.422-0.408
	c-1.29-0.414-2.246-0.812-2.861-1.193c-0.614-0.379-0.848-0.797-0.702-1.25c0.136-0.41,0.44-0.713,0.924-0.906
	c1.087,1.061,2.335,1.812,3.732,2.264c0.966,0.309,1.692,0.387,2.194,0.23c0.497-0.154,0.84-0.529,1.031-1.125
	c0.23-0.715,0.107-1.344-0.361-1.889c-0.473-0.545-1.289-1.209-2.457-1.992c-1.13-0.744-1.88-1.461-2.236-2.152
	c-0.361-0.689-0.403-1.457-0.136-2.303c0.342-1.053,1.04-1.752,2.101-2.098S94.881,3.117,96.494,3.635z M113.913,12.242l3.18,1.934
	c-0.023,0.207-0.08,0.385-0.169,0.535c-0.08,0.133-0.169,0.209-0.258,0.227c-0.094,0.016-0.216-0.021-0.366-0.113l-0.478-0.291
	l-6.087,1.309c0.216,3.408,0.36,5.479,0.437,6.209c0.074,0.732,0.173,1.258,0.295,1.58c0.127,0.32,0.347,0.578,0.671,0.775
	c-0.112,0.436-0.282,0.686-0.507,0.748c-0.22,0.061-0.623-0.086-1.196-0.438c-0.703-0.43-1.14-0.797-1.308-1.096
	c-0.164-0.301-0.234-0.787-0.201-1.465c0.027-0.678,0.037-2.668,0.019-5.971l-2.621,0.74c-0.798,1.316-1.355,2.281-1.684,2.895
	l0.952,0.58c-0.028,0.205-0.09,0.381-0.179,0.529c-0.084,0.133-0.168,0.209-0.263,0.227c-0.089,0.018-0.211-0.02-0.356-0.107
	l-3.826-2.344c0.033-0.227,0.099-0.418,0.192-0.574c0.07-0.111,0.149-0.172,0.244-0.188c0.089-0.012,0.206,0.025,0.347,0.111
	l0.802,0.49c0.502-0.713,1.688-2.602,3.559-5.662c1.004-1.637,1.708-2.84,2.115-3.611l-1.083-0.662
	c0.042-0.225,0.107-0.412,0.202-0.566c0.07-0.113,0.15-0.176,0.243-0.189c0.094-0.012,0.206,0.023,0.348,0.109l3.83,2.344
	c-0.023,0.205-0.079,0.383-0.169,0.533c-0.084,0.133-0.169,0.209-0.262,0.227c-0.09,0.018-0.211-0.021-0.366-0.113l-0.656-0.404
	c-0.497,0.715-1.491,2.295-2.986,4.738c1.06-0.232,2.292-0.514,3.689-0.85s2.692-0.695,3.873-1.076l-0.765-0.469
	c0.033-0.229,0.104-0.422,0.197-0.582c0.065-0.105,0.146-0.166,0.239-0.18C113.655,12.119,113.772,12.156,113.913,12.242z
	 M121.861,18.199l6.236,6.254c0.276,0.277,0.431,0.502,0.459,0.674c0.033,0.174-0.056,0.365-0.271,0.578
	c-0.267,0.27-0.638,0.455-1.11,0.557c-0.577-1.262-1.67-2.697-3.278-4.309l-0.634-0.635c-0.533,0.463-1.542,1.439-3.023,2.928
	l3.807,3.822c-0.106,0.234-0.257,0.447-0.45,0.637c-0.121,0.125-0.229,0.182-0.318,0.176c-0.094-0.006-0.206-0.08-0.347-0.223
	l-3.556-3.564c-1.906,1.912-3.061,3.098-3.464,3.555l1.022,1.021c1.547,1.553,2.916,2.619,4.111,3.197
	c-0.088,0.398-0.262,0.729-0.525,0.988c-0.191,0.193-0.407,0.266-0.637,0.215c-0.234-0.051-0.563-0.293-0.994-0.727l-6.33-6.334
	c0.085-0.213,0.197-0.387,0.327-0.52c0.09-0.088,0.184-0.127,0.272-0.117c0.095,0.01,0.201,0.072,0.314,0.188l0.539,0.543
	c0.656-0.586,2.256-2.145,4.797-4.678c1.355-1.355,2.326-2.357,2.907-3.004l-0.769-0.775c0.084-0.213,0.191-0.385,0.323-0.512
	c0.094-0.092,0.183-0.135,0.276-0.125S121.744,18.082,121.861,18.199z M20.812,103.535l2.879,4.053
	c1.209,1.697,1.903,3.105,2.091,4.217c0.184,1.111-0.131,1.961-0.952,2.543c-1.13,0.807-2.546,0.639-4.238-0.504
	c1.05,2.18,0.938,3.727-0.338,4.635c-0.872,0.619-1.904,0.689-3.1,0.209c-1.19-0.482-2.574-1.826-4.145-4.031l-2.884-4.041
	c0.154-0.26,0.332-0.465,0.544-0.611c0.136-0.1,0.268-0.129,0.39-0.09c0.125,0.037,0.243,0.139,0.36,0.303l0.437,0.611
	c0.68-0.434,2.138-1.443,4.374-3.035c2.017-1.436,3.344-2.4,3.973-2.898l-0.686-0.959c0.155-0.26,0.333-0.461,0.535-0.607
	c0.145-0.104,0.276-0.135,0.398-0.094C20.577,103.271,20.694,103.373,20.812,103.535z M17.384,110.885l-1.791,1.271
	c-0.586,0.418-0.914,0.766-0.989,1.047c-0.074,0.285,0.127,0.762,0.609,1.439c0.502,0.709,0.984,1.137,1.454,1.293
	c0.464,0.152,0.966,0.037,1.506-0.348c0.581-0.412,0.886-0.92,0.908-1.523c0.024-0.604-0.252-1.311-0.834-2.125
	C17.994,111.58,17.703,111.229,17.384,110.885z M18.781,109.891c0.15,0.316,0.366,0.674,0.652,1.078
	c0.479,0.674,0.938,1.076,1.373,1.211c0.438,0.133,0.896,0.025,1.389-0.324c0.529-0.375,0.807-0.811,0.834-1.301
	c0.023-0.492-0.187-1.057-0.637-1.688c-0.234-0.332-0.502-0.652-0.798-0.963C21.103,108.242,20.17,108.904,18.781,109.891z
	 M27.663,128.742l1.172,0.928c-0.047,0.246-0.146,0.465-0.291,0.654c-0.136,0.17-0.267,0.266-0.389,0.275
	c-0.127,0.014-0.264-0.037-0.413-0.156l-4.553-3.59c0.069-0.293,0.188-0.539,0.347-0.742c0.104-0.133,0.22-0.195,0.353-0.193
	c0.126,0.002,0.271,0.066,0.426,0.188l0.756,0.594c0.52-0.605,1.832-2.24,3.929-4.902c1.135-1.438,1.937-2.48,2.406-3.133
	l-1.078-0.85c0.074-0.287,0.191-0.529,0.347-0.727c0.107-0.139,0.229-0.207,0.355-0.207s0.268,0.064,0.422,0.186l4.207,3.316
	c1.683,1.328,2.72,2.49,3.104,3.486c0.385,0.996,0.206,1.963-0.534,2.9c-1.022,1.297-2.611,1.498-4.773,0.607
	c0.313,0.516,0.482,1.07,0.516,1.664c0.027,0.594-0.033,1.34-0.192,2.238c-0.154,0.9-0.183,1.512-0.089,1.842
	c0.098,0.326,0.352,0.652,0.769,0.982c-0.197,0.551-0.449,0.838-0.76,0.867c-0.314,0.025-0.829-0.246-1.552-0.816
	c-0.845-0.666-1.359-1.207-1.552-1.625s-0.09-1.146,0.314-2.188c0.397-1.043,0.609-1.883,0.627-2.525
	c0.02-0.641-0.229-1.168-0.754-1.582c-0.281-0.221-0.549-0.391-0.802-0.514C28.83,127.189,28.057,128.197,27.663,128.742z
	 M30.983,124.447l0.656,0.516c0.693,0.551,1.321,0.852,1.88,0.906c0.558,0.053,1.041-0.182,1.454-0.701
	c0.529-0.674,0.727-1.297,0.586-1.871c-0.136-0.574-0.488-1.084-1.051-1.527c-0.337-0.266-0.639-0.461-0.891-0.584
	c-0.272,0.289-0.976,1.154-2.115,2.598L30.983,124.447z M55.708,132.701c-1.21,0.891-3.47,2.631-6.789,5.219
	c-0.408,1-0.751,1.879-1.014,2.635l1.543,0.635c0.023,0.254-0.01,0.49-0.099,0.709c-0.084,0.203-0.183,0.328-0.3,0.375
	c-0.118,0.047-0.264,0.033-0.44-0.039l-5.727-2.355c-0.004-0.297,0.042-0.566,0.142-0.803c0.065-0.156,0.159-0.252,0.281-0.287
	c0.121-0.033,0.271-0.014,0.459,0.064l1.064,0.438c0.352-0.723,0.699-1.506,1.046-2.35c-0.553-4.438-0.971-7.371-1.247-8.797
	l-0.812-0.334c0-0.297,0.043-0.561,0.141-0.793c0.065-0.162,0.159-0.26,0.287-0.293c0.126-0.033,0.28-0.012,0.464,0.064l4.74,1.949
	c0.023,0.258-0.015,0.494-0.099,0.707c-0.089,0.211-0.188,0.336-0.3,0.381c-0.118,0.043-0.268,0.027-0.45-0.049l-0.46-0.188
	c-0.019,0.783,0.015,2.021,0.085,3.711c0.074,1.691,0.159,2.553,0.248,2.59c0.089,0.035,0.694-0.51,1.824-1.643
	c1.125-1.133,1.97-2.043,2.527-2.73l-0.887-0.367c-0.004-0.297,0.043-0.561,0.137-0.795c0.066-0.162,0.164-0.26,0.286-0.295
	c0.122-0.033,0.271-0.014,0.459,0.064l4.188,1.721c0.02,0.26-0.014,0.494-0.103,0.709c-0.085,0.207-0.184,0.332-0.301,0.377
	c-0.112,0.045-0.263,0.031-0.44-0.045L55.708,132.701z M68.42,144.615c0.137-1.182,0.207-1.918,0.211-2.209
	c0.005-0.293-0.009-0.504-0.046-0.633c-0.038-0.131-0.108-0.227-0.217-0.293c-0.107-0.066-0.243-0.109-0.417-0.129
	c-0.099-0.225-0.136-0.441-0.112-0.645c0.028-0.244,0.107-0.406,0.238-0.492c0.132-0.086,0.343-0.111,0.639-0.078l2.231,0.256
	c0.46,0.051,0.76,0.154,0.9,0.311c0.141,0.154,0.188,0.439,0.141,0.855l-0.225,1.949c-0.095,0.816-0.179,1.891-0.263,3.215
	c-0.38,0.02-0.839-0.002-1.374-0.062c-0.141-0.016-0.38-0.262-0.713-0.744c-1.322,0.418-2.641,0.549-3.962,0.398
	c-2.11-0.24-3.577-0.883-4.408-1.928c-0.83-1.047-1.125-2.615-0.886-4.709c0.276-2.422,1.102-4.146,2.476-5.172
	c1.374-1.027,3.23-1.406,5.575-1.137c1.472,0.166,2.471,0.377,3.001,0.629c0.535,0.252,0.769,0.627,0.713,1.123
	c-0.052,0.479-0.319,0.938-0.797,1.373c-1.29-0.803-2.574-1.275-3.859-1.42c-0.947-0.111-1.716,0.113-2.303,0.67
	c-0.586,0.555-0.975,1.688-1.172,3.395c-0.229,2.002-0.131,3.381,0.295,4.141c0.427,0.76,1.262,1.211,2.514,1.355
	C67.201,144.703,67.811,144.695,68.42,144.615z M78.708,133.986l5.242-0.982c0.159,0.203,0.258,0.422,0.3,0.648
	c0.042,0.221,0.028,0.383-0.042,0.48c-0.075,0.1-0.206,0.166-0.402,0.205l-0.784,0.146c0.113,0.793,0.347,2.113,0.704,3.959
	l5.036-0.943c-0.353-1.848-0.623-3.16-0.812-3.941l-1.145,0.215c-0.169-0.248-0.271-0.496-0.318-0.74
	c-0.033-0.174-0.005-0.307,0.075-0.4c0.084-0.096,0.225-0.162,0.422-0.199l5.242-0.982c0.154,0.207,0.258,0.422,0.3,0.648
	c0.042,0.221,0.024,0.383-0.047,0.482c-0.07,0.1-0.201,0.166-0.394,0.203l-0.881,0.164c0.107,0.795,0.332,2.094,0.679,3.898
	c0.624,3.326,1.027,5.377,1.219,6.158l1.243-0.236c0.16,0.199,0.258,0.416,0.305,0.65c0.037,0.215,0.023,0.375-0.051,0.475
	c-0.071,0.104-0.202,0.172-0.39,0.207l-5.285,0.992c-0.163-0.25-0.271-0.498-0.318-0.75c-0.028-0.168-0.004-0.297,0.08-0.393
	s0.225-0.162,0.422-0.197l0.736-0.141c-0.085-0.658-0.353-2.182-0.793-4.572l-5.041,0.945c0.456,2.389,0.761,3.904,0.911,4.553
	l1.152-0.217c0.155,0.199,0.258,0.414,0.301,0.648c0.042,0.215,0.022,0.375-0.048,0.477c-0.069,0.104-0.206,0.172-0.402,0.209
	l-5.271,0.99c-0.173-0.248-0.281-0.498-0.328-0.752c-0.032-0.164-0.004-0.297,0.085-0.391c0.084-0.096,0.226-0.164,0.422-0.199
	l0.845-0.16c-0.118-0.791-0.483-2.852-1.111-6.184c-0.343-1.799-0.606-3.088-0.788-3.869l-1.247,0.234
	c-0.169-0.248-0.281-0.494-0.329-0.74c-0.027-0.172-0.005-0.305,0.085-0.402C78.375,134.088,78.517,134.023,78.708,133.986z
	 M105.938,126.338l-1.032,0.557c-0.238-0.182-0.422-0.383-0.539-0.604c-0.084-0.154-0.099-0.291-0.042-0.408
	c0.051-0.117,0.168-0.225,0.343-0.318l4.178-2.25c0.216,0.148,0.375,0.324,0.482,0.527c0.107,0.197,0.141,0.355,0.104,0.473
	s-0.142,0.221-0.314,0.312l-0.698,0.377c0.352,0.719,1.224,2.369,2.621,4.949c1.12,2.086,1.43,3.746,0.928,4.984
	c-0.501,1.236-1.641,2.332-3.422,3.291c-1.613,0.865-2.87,1.193-3.771,0.98c-0.905-0.213-1.753-1.055-2.547-2.525
	c-1.94-3.611-3.118-5.76-3.526-6.449l-0.856,0.461c-0.23-0.186-0.409-0.391-0.526-0.611c-0.084-0.154-0.098-0.287-0.046-0.404
	c0.046-0.117,0.163-0.223,0.338-0.318l4.341-2.334c0.211,0.148,0.375,0.324,0.484,0.527c0.106,0.197,0.14,0.354,0.102,0.471
	c-0.037,0.117-0.145,0.221-0.313,0.312l-0.619,0.332c0.361,0.744,1.21,2.352,2.541,4.822c0.863,1.605,1.608,2.568,2.237,2.877
	c0.628,0.312,1.326,0.262,2.096-0.152c0.811-0.436,1.266-0.969,1.355-1.592c0.089-0.623-0.225-1.6-0.942-2.934
	C107.354,128.83,106.368,127.047,105.938,126.338z M116.417,116.367c1.276-1.229,2.181-1.971,2.725-2.232
	c0.544-0.264,1.009-0.199,1.384,0.191c0.36,0.375,0.529,0.855,0.516,1.443c-1.595,0.635-2.814,1.355-3.658,2.166
	c-0.562,0.539-0.866,1-0.914,1.387c-0.047,0.385,0.089,0.746,0.408,1.078c0.379,0.396,0.802,0.561,1.262,0.494
	c0.459-0.072,1.209-0.393,2.246-0.967c1.279-0.756,2.382-1.213,3.31-1.375c0.929-0.164,1.815,0.172,2.664,1.004
	c0.933,0.973,1.242,2.066,0.929,3.279c-0.32,1.211-1.22,2.527-2.697,3.949c-1.068,1.029-1.927,1.717-2.574,2.061
	c-0.646,0.346-1.176,0.303-1.585-0.125c-0.365-0.379-0.515-0.881-0.45-1.506c1.637-0.57,2.954-1.332,3.944-2.287
	c0.647-0.621,1.027-1.137,1.135-1.541c0.108-0.402-0.009-0.785-0.356-1.145c-0.408-0.426-0.924-0.561-1.553-0.408
	c-0.628,0.152-1.514,0.553-2.668,1.201c-1.209,0.705-2.231,1.053-3.071,1.041c-0.835-0.014-1.571-0.348-2.208-1.012
	c-0.872-0.906-1.195-1.951-0.976-3.135C114.448,118.746,115.18,117.559,116.417,116.367z M123.54,108.756l4.9-8.006
	c0.229-0.375,0.444-0.613,0.646-0.711c0.202-0.096,0.465-0.047,0.792,0.152c0.396,0.242,0.713,0.633,0.953,1.174
	c-1.21,0.957-2.401,2.395-3.578,4.32l-0.258,0.422c0.501,0.355,1.557,1.023,3.16,2.006l2.715-4.436
	c0.342,0.072,0.666,0.203,0.971,0.391c0.178,0.107,0.281,0.219,0.301,0.326c0.014,0.107-0.037,0.264-0.16,0.463l-2.49,4.072
	c2.055,1.252,3.307,1.992,3.752,2.225l0.445-0.73c1.21-1.977,1.959-3.672,2.246-5.086c0.507-0.043,0.971,0.061,1.379,0.312
	c0.295,0.18,0.431,0.428,0.412,0.748c-0.019,0.318-0.253,0.846-0.703,1.576l-4.778,7.828c-0.3-0.037-0.558-0.123-0.778-0.258
	c-0.141-0.086-0.221-0.197-0.234-0.326c-0.009-0.129,0.033-0.275,0.137-0.447l0.394-0.643c-0.667-0.455-2.443-1.566-5.337-3.336
	c-1.562-0.957-2.696-1.625-3.399-2.01l-0.614,1.004c-0.296-0.037-0.553-0.121-0.769-0.25c-0.146-0.092-0.229-0.201-0.239-0.33
	C123.39,109.078,123.437,108.926,123.54,108.756z M43.277,104.473c0.675,0.645,1.108,1.127,1.298,1.449
	c0.193,0.32,0.191,0.584-0.006,0.789c-0.181,0.193-0.425,0.277-0.734,0.266c-0.392-0.896-0.868-1.611-1.428-2.145
	c-0.394-0.377-0.74-0.572-1.041-0.588c-0.3-0.014-0.569,0.109-0.809,0.357c-0.251,0.264-0.354,0.568-0.31,0.906
	c0.047,0.34,0.268,0.85,0.662,1.525c0.476,0.789,0.771,1.455,0.883,2c0.112,0.543-0.063,1.078-0.532,1.605
	c-0.542,0.568-1.165,0.793-1.87,0.674c-0.707-0.117-1.498-0.598-2.378-1.436c-0.611-0.586-1.038-1.07-1.279-1.451
	c-0.242-0.383-0.259-0.684-0.055-0.896c0.188-0.193,0.44-0.281,0.765-0.258c0.323,0.895,0.818,1.658,1.484,2.293
	c0.454,0.438,0.844,0.678,1.167,0.73c0.321,0.047,0.619-0.072,0.889-0.354c0.323-0.338,0.426-0.725,0.312-1.162
	c-0.115-0.434-0.395-1.031-0.837-1.787c-0.434-0.729-0.657-1.336-0.67-1.822c-0.015-0.486,0.171-0.93,0.555-1.33
	c0.479-0.5,1.062-0.701,1.752-0.607C41.786,103.328,42.514,103.74,43.277,104.473z M46.769,107.631l2.358,1.703
	c-0.027,0.125-0.073,0.232-0.136,0.322c-0.06,0.076-0.115,0.121-0.174,0.127s-0.128-0.021-0.218-0.084l-0.474-0.342
	c-0.343,0.42-0.88,1.139-1.608,2.146c-1.287,1.781-2.075,2.902-2.366,3.361l0.644,0.465c-0.026,0.127-0.07,0.232-0.137,0.322
	c-0.057,0.076-0.115,0.121-0.172,0.127c-0.058,0.006-0.13-0.021-0.217-0.084l-2.353-1.699c0.033-0.141,0.083-0.256,0.148-0.35
	c0.049-0.066,0.101-0.1,0.159-0.102c0.059-0.006,0.129,0.023,0.213,0.084l0.477,0.342c0.345-0.42,1.175-1.537,2.487-3.357
	c0.701-0.977,1.195-1.691,1.489-2.148L46.248,108c0.032-0.141,0.082-0.258,0.149-0.348c0.048-0.068,0.102-0.102,0.16-0.105
	C46.613,107.541,46.686,107.57,46.769,107.631z M50.698,110.469l2.32,1.186c1.541,0.787,2.479,1.584,2.812,2.389
	s0.204,1.781-0.385,2.934c-0.659,1.291-1.453,2.109-2.385,2.453c-0.928,0.346-2.081,0.168-3.455-0.533l-2.733-1.393
	c0.009-0.143,0.042-0.268,0.096-0.373c0.035-0.068,0.079-0.109,0.139-0.123c0.056-0.014,0.131,0.006,0.222,0.053l0.425,0.215
	c0.276-0.473,0.924-1.707,1.946-3.703c0.546-1.07,0.929-1.854,1.148-2.35l-0.607-0.311c0.01-0.145,0.043-0.268,0.095-0.367
	c0.037-0.072,0.084-0.115,0.14-0.129C50.532,110.404,50.606,110.42,50.698,110.469z M52.836,112.521
	c-0.293-0.148-0.549-0.258-0.773-0.328c-0.296,0.51-0.969,1.795-2.021,3.85c-0.44,0.865-0.642,1.383-0.609,1.561
	c0.035,0.18,0.349,0.42,0.942,0.723c0.692,0.357,1.309,0.428,1.848,0.219s1.076-0.838,1.611-1.885
	c0.551-1.076,0.733-1.926,0.548-2.553C54.196,113.482,53.68,112.953,52.836,112.521z M58.908,114.383l5.299,1.547
	c0.234,0.07,0.387,0.148,0.455,0.234c0.07,0.086,0.077,0.217,0.025,0.396c-0.067,0.229-0.213,0.443-0.442,0.641
	c-0.694-0.516-1.727-0.977-3.091-1.375l-0.54-0.156c-0.151,0.414-0.409,1.254-0.775,2.516l3.238,0.945
	c0.01,0.162-0.007,0.324-0.054,0.484c-0.033,0.105-0.073,0.17-0.125,0.193s-0.139,0.02-0.258-0.018l-3.021-0.883
	c-0.468,1.621-0.745,2.619-0.826,2.988l0.867,0.254c1.315,0.387,2.386,0.555,3.214,0.514c0.073,0.244,0.078,0.477,0.012,0.699
	c-0.05,0.162-0.143,0.266-0.285,0.309c-0.141,0.041-0.396,0.01-0.765-0.1l-5.372-1.562c-0.017-0.143-0.009-0.27,0.024-0.383
	c0.022-0.074,0.061-0.127,0.114-0.146c0.052-0.025,0.129-0.021,0.228,0.006l0.46,0.137c0.18-0.516,0.588-1.854,1.217-4.006
	c0.338-1.15,0.567-1.992,0.689-2.521l-0.655-0.191c-0.017-0.141-0.009-0.268,0.024-0.375c0.021-0.08,0.061-0.133,0.114-0.156
	S58.81,114.354,58.908,114.383z M66.744,116.525l2.042,0.178c0.59,1.193,1.148,2.283,1.679,3.27
	c0.529,0.984,1.097,2.156,1.702,3.512l0.283-3.23c0.104-1.195,0.164-2.064,0.181-2.607l-0.661-0.057
	c-0.045-0.139-0.062-0.262-0.052-0.375c0.007-0.084,0.035-0.141,0.085-0.174c0.047-0.033,0.121-0.047,0.226-0.037l2.414,0.211
	c0.043,0.121,0.06,0.236,0.049,0.348c-0.01,0.096-0.037,0.164-0.082,0.195c-0.047,0.039-0.124,0.051-0.232,0.041l-0.518-0.045
	c-0.077,0.537-0.171,1.428-0.279,2.668l-0.368,4.223c-0.021,0.23-0.069,0.373-0.15,0.43s-0.257,0.07-0.531,0.047
	c-0.532-0.047-0.835-0.092-0.91-0.137c-0.077-0.043-0.535-0.811-1.372-2.305c-0.839-1.494-1.53-2.881-2.074-4.164
	c-0.273,3.141-0.419,4.979-0.436,5.521l0.628,0.057c0.047,0.123,0.065,0.236,0.057,0.348c-0.01,0.096-0.038,0.162-0.083,0.195
	c-0.046,0.035-0.126,0.047-0.236,0.039l-2.389-0.207c-0.045-0.139-0.063-0.262-0.053-0.375c0.008-0.084,0.033-0.141,0.083-0.174
	s0.124-0.045,0.228-0.037l0.539,0.047c0.077-0.537,0.214-1.922,0.407-4.16c0.104-1.193,0.162-2.062,0.177-2.605l-0.61-0.055
	c-0.044-0.139-0.063-0.26-0.051-0.375c0.007-0.082,0.032-0.139,0.082-0.172C66.565,116.531,66.641,116.518,66.744,116.525z
	 M86.442,123.738l-4.684,0.895c-0.122-0.174-0.209-0.393-0.259-0.66c-0.129-0.666-0.019-1.271,0.331-1.814s0.944-1.225,1.791-2.051
	c0.845-0.824,1.21-1.527,1.097-2.109c-0.089-0.469-0.313-0.777-0.675-0.928s-0.797-0.174-1.308-0.078
	c-0.379,0.072-0.705,0.156-0.982,0.26c-0.08,0.246-0.129,0.381-0.15,0.398c-0.02,0.02-0.129,0.076-0.325,0.168
	c-0.197,0.09-0.353,0.109-0.465,0.057c-0.112-0.051-0.232-0.162-0.361-0.336c-0.127-0.176-0.201-0.322-0.223-0.436
	c-0.017-0.076,0-0.135,0.05-0.17c0.046-0.037,0.32-0.145,0.82-0.318c0.501-0.178,1.106-0.334,1.814-0.469
	c0.905-0.174,1.644-0.174,2.222,0c0.58,0.176,0.94,0.643,1.086,1.402c0.087,0.451,0.037,0.908-0.149,1.373
	c-0.188,0.465-0.776,1.148-1.765,2.053c-0.993,0.908-1.375,1.781-1.148,2.623l0.507-0.1c1.36-0.26,2.43-0.646,3.211-1.162
	c0.223,0.223,0.355,0.449,0.4,0.684c0.037,0.203,0.005,0.352-0.104,0.455C87.066,123.576,86.822,123.662,86.442,123.738z
	 M93.713,121.627c-0.994,0.385-1.829,0.445-2.504,0.184c-0.676-0.262-1.266-1.049-1.775-2.359c-0.604-1.562-0.742-2.791-0.417-3.686
	c0.329-0.893,1.061-1.562,2.199-2.002c0.968-0.375,1.791-0.432,2.467-0.168c0.675,0.262,1.277,1.076,1.808,2.441
	c0.584,1.508,0.713,2.711,0.385,3.602C95.549,120.535,94.829,121.197,93.713,121.627z M91.234,114.674
	c-0.543,0.211-0.884,0.578-1.019,1.102c-0.138,0.525,0.016,1.355,0.454,2.492c0.485,1.25,0.954,2.031,1.409,2.342
	c0.455,0.314,0.994,0.35,1.615,0.109c0.539-0.211,0.875-0.576,0.999-1.094c0.126-0.521-0.021-1.322-0.438-2.404
	c-0.493-1.268-0.969-2.068-1.433-2.396S91.828,114.443,91.234,114.674z M101.663,116.98c-0.255-0.48-1.036-1.787-2.343-3.914
	c-0.389-0.633-0.635-1.02-0.733-1.148c-0.101-0.129-0.196-0.209-0.288-0.246c-0.091-0.035-0.199-0.027-0.321,0.02
	s-0.286,0.135-0.489,0.26l-0.413,0.254c-0.089-0.047-0.159-0.111-0.209-0.191c-0.11-0.182,0.059-0.477,0.509-0.885
	s0.83-0.705,1.138-0.895c0.159-0.096,0.283-0.15,0.38-0.166c0.093-0.014,0.18,0.016,0.26,0.086c0.078,0.068,0.174,0.197,0.286,0.379
	l1.334,2.174c1.149,1.871,1.878,3.031,2.188,3.477l1.252-0.77c0.101,0.059,0.183,0.137,0.243,0.238
	c0.057,0.09,0.073,0.162,0.054,0.223c-0.021,0.055-0.089,0.121-0.205,0.193l-3.551,2.178c-0.112-0.076-0.198-0.16-0.255-0.254
	c-0.045-0.074-0.059-0.141-0.039-0.201c0.019-0.061,0.074-0.117,0.165-0.174L101.663,116.98z M111.564,110.238l-3.559,3.18
	c-0.195-0.09-0.383-0.236-0.561-0.438c-0.453-0.506-0.671-1.082-0.65-1.725c0.021-0.648,0.184-1.539,0.483-2.68
	c0.302-1.143,0.256-1.936-0.141-2.375c-0.317-0.357-0.67-0.508-1.058-0.449c-0.387,0.057-0.773,0.262-1.16,0.605
	c-0.286,0.256-0.523,0.496-0.708,0.727c0.056,0.252,0.082,0.393,0.075,0.42c-0.008,0.027-0.072,0.131-0.195,0.311
	c-0.122,0.178-0.243,0.275-0.368,0.289c-0.121,0.016-0.283-0.023-0.482-0.107s-0.338-0.168-0.416-0.258
	c-0.054-0.057-0.067-0.115-0.046-0.172c0.023-0.057,0.204-0.287,0.542-0.695c0.34-0.408,0.778-0.852,1.317-1.332
	c0.688-0.611,1.322-0.994,1.905-1.139c0.587-0.15,1.138,0.064,1.65,0.641c0.309,0.346,0.5,0.766,0.58,1.258
	c0.077,0.492-0.077,1.383-0.462,2.67s-0.263,2.23,0.363,2.836l0.385-0.342c1.031-0.926,1.751-1.807,2.157-2.65
	c0.305,0.08,0.536,0.207,0.695,0.385c0.134,0.15,0.184,0.299,0.144,0.439C112.017,109.779,111.853,109.98,111.564,110.238z"/>
</svg>
