<?xml version="1.0" encoding="utf-8"?>
<!-- Generator: Adobe Illustrator 16.0.0, SVG Export Plug-In . SVG Version: 6.00 Build 0)  -->
<!DOCTYPE svg PUBLIC "-//W3C//DTD SVG 1.1//EN" "http://www.w3.org/Graphics/SVG/1.1/DTD/svg11.dtd">
<svg version="1.1" id="Layer_1" xmlns="http://www.w3.org/2000/svg" xmlns:xlink="http://www.w3.org/1999/xlink" x="0px" y="0px"
	 width="156.25px" height="100.393px" viewBox="0 0 156.25 100.393" enable-background="new 0 0 156.25 100.393"
	 xml:space="preserve">
<path d="M68.29,74.732c-0.001,0.351,0.051,0.755-0.132,0.926c-0.22,0-0.439,0-0.661,0C67.006,75.095,67.65,74.165,68.29,74.732z
	 M65.249,82.007c0.839-0.087,2.025,0.174,2.646-0.133c-0.345-1.066-0.308-2.515-0.661-3.57
	C66.565,79.531,65.83,80.692,65.249,82.007z M156.25,0C104.178,0,52.11,0,0.04,0c0,33.464,0,66.929,0,100.393
	c52.071,0,104.14,0,156.21,0C156.25,66.929,156.25,33.464,156.25,0z M43.159,14.813c3.793,0,7.584,0,11.376,0
	C50.474,31.345,46.053,47.512,42.1,64.15c3.616,0.31,7.805,0.045,11.641,0.132c1.773-5.414,3.227-11.146,4.365-17.194
	c-1.723-0.393-4.36,0.128-6.086-0.265c0.692-3.541,1.487-6.979,2.646-10.053c3.44-0.623,6.463-0.212,9.259,0.529
	c1.19,0.315,2.472,1.111,3.438,1.189c1.603,0.132,3.991-0.965,6.085-1.322c3.771-0.641,8.227-1.297,11.64,0.133
	c0.984,0.412,1.387,1.219,2.646,1.719c6.67-2.318,23.145-5.557,22.485,5.027c-0.101,1.593-0.759,3.445-1.19,5.158
	c-1.194,4.74-2.847,9.914-3.703,14.946c3.131,0.222,7.184,0.219,10.316,0c1.779-5.545,3.313-12.057,4.895-18.385
	c1.537-6.156,2.507-12.949,6.745-16.534c4.014-3.395,9.367-4.882,16.137-5.819c0,3.659,0,7.318,0,10.978
	c-4.292,0.627-8.211,1.502-9.788,5.026c-0.744,1.662-1.062,4-1.587,6.085c-1.507,5.98-3.214,12.692-4.365,18.649
	c4.983,0.31,10.538,0.045,15.74,0.132c0,3.087,0,6.173,0,9.259c-6.04,0.088-12.433-0.175-18.253,0.133
	c-1.282,4.097-2.344,8.415-3.307,12.831c-3.88,0-7.76,0-11.64,0c1.035-4.389,2.173-8.673,3.306-12.964
	c-7.099-0.087-14.549,0.177-21.427-0.131c1.968-8.704,4.469-16.87,6.216-25.793c-2.811-0.343-6.178-0.095-8.729,0.265
	c-2.503,8.388-4.348,17.435-7.011,25.659c-3.604-0.113-7.259,0.404-10.714,0c1.719-8.993,4.277-17.149,5.952-26.188
	c-2.646-0.463-6.312,0.164-8.598,0.926c-2.438,8.145-4.143,17.02-6.614,25.132c-15.871,0.308-32.317,0.044-48.41,0.131
	c0-3.086,0-6.172,0-9.259c5.381-0.087,11.11,0.176,16.27-0.132c1.454-5.335,2.795-10.784,3.836-16.533
	c-1.604-0.877-3.723-1.278-6.349-1.058c-7.592,0.631-12.245,7.665-13.624,14.417c-0.241-4.709-0.133-9.798-0.133-14.946
	c0-1.422-0.358-3.743,0-4.895c0.369-1.18,4.747-3.275,5.953-3.836c2.303-1.07,4.992-1.92,7.539-2.116
	c4.115-0.317,6.617,0.74,9.523,1.587c1.957-7.125,3.931-14.232,5.687-21.56C43.008,15.104,42.973,14.849,43.159,14.813z
	 M69.216,74.6c-0.449,3.841,1.028,7.577,1.323,11.507c-0.706,0-1.411,0-2.117,0c-0.004-0.832-0.26-1.415-0.265-2.248
	c-1.278,0-2.557,0-3.835,0c-0.639,0.553-0.92,1.463-1.323,2.248c-0.793,0-1.586,0-2.38,0c2.009-3.414,3.794-7.051,5.951-10.316
	c-0.222-0.219-0.105-0.776-0.133-1.19C66.897,73.466,68.758,73.466,69.216,74.6z M84.427,75.658
	c-0.131,1.192-0.441,2.204-0.661,3.306c1.292-0.657,4.092-1.231,4.496,0.795c0.396,1.971-1.177,4.232-1.189,6.217
	c-0.705,0-1.412,0-2.116,0c0.189-1.959,1.47-4.131,0.794-6.085c-3.269-0.093-2.599,3.751-3.44,6.085c-0.704,0-1.41,0-2.115,0
	c0.703-3.442,1.495-6.795,2.115-10.317C83.016,75.658,83.722,75.658,84.427,75.658z M76.359,79.626
	c0.669-0.705,1.83-1.851,3.175-1.059c-0.312,0.527-0.483,1.193-0.794,1.721c-3.062-0.493-2.914,3.338-3.571,5.688
	c-0.705,0-1.41,0-2.117,0c0.547-2.497,1.05-5.035,1.588-7.541c0.617,0,1.234,0,1.852,0C76.71,78.692,76.463,79.287,76.359,79.626z
	 M107.971,80.42c-0.699-0.039-1.093,0.229-1.72,0.265c-0.283-0.609-2.562-1.498-2.777-0.133c1.104,1.152,3.556,0.8,3.968,2.381
	c1.049,4.021-6.781,4.47-7.142,0.926c0.646-0.059,1.138-0.271,1.851-0.265c0.342,0.964,2.733,1.69,3.176,0.265
	c-1.162-1.357-3.927-0.812-3.968-3.041C101.3,77.742,107.45,77.198,107.971,80.42z M94.083,78.435
	c-0.177,2.033-1.119,3.988-1.059,5.82c2.309,1.818,2.93-3.89,3.44-5.82c0.661,0,1.321,0,1.983,0
	c-0.342,2.702-1.132,4.953-1.587,7.541c-0.662,0-1.322,0-1.984,0c-0.109-0.375,0.187-0.344,0.133-0.662
	c-0.601,0.215-1.398,1.028-2.514,0.926c-3.219-0.296-0.821-5.606-0.396-7.805C92.76,78.435,93.421,78.435,94.083,78.435z"/>
</svg>
