<?xml version="1.0" encoding="utf-8"?>
<!-- Generator: Adobe Illustrator 16.0.0, SVG Export Plug-In . SVG Version: 6.00 Build 0)  -->
<!DOCTYPE svg PUBLIC "-//W3C//DTD SVG 1.1//EN" "http://www.w3.org/Graphics/SVG/1.1/DTD/svg11.dtd">
<svg version="1.1" id="Layer_1" xmlns="http://www.w3.org/2000/svg" xmlns:xlink="http://www.w3.org/1999/xlink" x="0px" y="0px"
	 width="197.979px" height="56.553px" viewBox="0 0 197.979 56.553" enable-background="new 0 0 197.979 56.553"
	 xml:space="preserve">
<path fill-rule="evenodd" clip-rule="evenodd" d="M0.027,24.611h4.387V11.152v-0.012v-0.303v-0.664L4.426,9.73l0.023-0.512
	l0.033-0.561l0.059-0.594l0.035-0.303l0.047-0.326l0.058-0.314l0.058-0.328l0.07-0.324l0.082-0.338l0.081-0.328l0.094-0.326
	L5.17,5.139l0.117-0.314l0.127-0.326l0.141-0.314l0.15-0.303L5.879,3.59l0.176-0.291L6.24,3.02l0.163-0.211l0.175-0.197l0.173-0.199
	l0.188-0.186l0.209-0.188l0.21-0.186L7.578,1.68l0.232-0.162l0.232-0.154l0.256-0.152l0.268-0.15l0.28-0.139l0.278-0.129
	l0.303-0.117l0.314-0.115l0.313-0.105l0.337-0.094l0.349-0.094l0.36-0.08l0.36-0.072l0.385-0.066L12.254,0l0.406-0.047l0.42-0.033
	l0.442-0.023l0.441-0.012l0.465-0.014h0.476l0.49,0.025l0.513,0.023l0.511,0.033L16.953,0v1.307v0.955v0.723v0.547v0.502v0.512
	v0.641v0.852l-0.07-0.012l-0.197-0.012L16.383,5.99h-0.395h-0.234l-0.231,0.012l-0.257,0.023l-0.267,0.035L14.72,6.107l-0.291,0.059
	l-0.279,0.068l-0.291,0.094l-0.29,0.105l-0.291,0.129l-0.279,0.139l-0.28,0.174l-0.266,0.186l-0.258,0.223l-0.242,0.246L11.73,7.797
	L11.521,8.1l-0.188,0.324L11.16,8.799l-0.139,0.396l-0.105,0.43l-0.094,0.469l-0.046,0.512l-0.023,0.547v13.459h5.06v5.385h-5.06
	v25.787H4.414V29.996H0.027V24.611z M23.661,24.684h-6.327V55.77h6.327V36.172l0.21-0.943l0.15-0.713l0.059-0.289l0.068-0.244
	l0.061-0.223l0.08-0.186l0.082-0.164l0.104-0.141l0.13-0.139l0.149-0.141l0.188-0.127l0.221-0.141l0.266-0.15l0.305-0.176
	l0.338-0.174l0.36-0.164l0.37-0.139l0.373-0.129l0.384-0.115l0.372-0.094l0.361-0.094l0.337-0.07l0.616-0.117l0.489-0.08
	l0.315-0.035l0.091-0.023l-0.023-0.07l-0.011-0.211v-0.336l-0.012-0.432v-1.086l0.012-1.234l0.011-1.234l0.013-1.084l0.011-0.77
	v-0.279h-0.163l-0.406,0.033l-0.615,0.084l-0.78,0.117l-0.431,0.068l-0.453,0.094l-0.477,0.115l-0.479,0.129l-0.477,0.141
	l-0.477,0.162l-0.244,0.094l-0.234,0.092l-0.219,0.105l-0.233,0.105l-0.208,0.117L24.047,26l-0.199,0.127l-0.187,0.129V24.684z
	 M31.443,23.201h6.361V2.062h-6.361V23.201z M31.443,55.785h6.361V24.463h-6.361V55.785z M38.945,30.904h5.35v24.879h6.2V30.904
	h5.356v-6.361h-5.356V1.947h-6.2v22.596h-5.35V30.904z M78.021,49.42H63.726l13.609-19.006v-5.871h-1.303h-3.258H57.107v6.361
	h12.307l-13.959,19.82v5.059h0.932h2.221h19.414V49.42z M77.335,42.756h14.098v-7.004H77.335V42.756z M93.096,55.785h6.677V43.141
	l10.261,12.645h7.619l-13.425-17.189l11.458-14.918h-7.852l-8.062,10.945V1.471h-6.677V55.785z M128.073,23.107l-0.826,0.059
	l-0.813,0.117l-0.791,0.141l-0.792,0.186l-0.768,0.234l-0.757,0.254l-0.732,0.305l-0.721,0.338l-0.697,0.361l-0.688,0.408
	l-0.651,0.43l-0.64,0.469l-0.615,0.5L118,27.432l-0.57,0.561l-0.536,0.582l-0.511,0.607l-0.476,0.627l-0.456,0.654l-0.419,0.676
	l-0.395,0.711l-0.36,0.709l-0.325,0.746l-0.292,0.758l-0.256,0.781l-0.221,0.791l-0.176,0.816l-0.139,0.816l-0.104,0.838
	l-0.069,0.852l-0.013,0.863l0.013,0.861l0.069,0.85l0.104,0.84l0.139,0.816l0.176,0.814l0.221,0.793l0.256,0.781l0.292,0.756
	l0.325,0.734l0.36,0.723l0.395,0.701l0.419,0.686l0.456,0.652l0.476,0.629l0.511,0.607l0.536,0.582l0.57,0.559l0.582,0.525
	l0.615,0.49l0.64,0.465l0.651,0.443l0.688,0.396l0.697,0.373l0.721,0.338l0.732,0.303l0.757,0.256l0.768,0.232l0.792,0.188
	l0.791,0.141l0.813,0.105l0.826,0.068l0.836,0.023l0.826-0.023l0.827-0.068l0.813-0.105l0.803-0.141l0.779-0.188l0.77-0.232
	l0.756-0.256l0.743-0.303l0.71-0.338l0.71-0.373l0.674-0.396l0.662-0.443l0.63-0.465l0.615-0.49l0.595-0.525l0.558-0.559
	l0.534-0.582l0.512-0.607l0.477-0.629l0.455-0.652l0.43-0.686l0.383-0.701l0.363-0.723l0.324-0.734l0.29-0.756l0.256-0.781
	l0.221-0.793l0.175-0.814l0.151-0.816l0.104-0.84l0.059-0.85l0.023-0.861l-0.023-0.863l-0.059-0.852l-0.104-0.838l-0.151-0.816
	l-0.175-0.816l-0.221-0.791l-0.256-0.781l-0.29-0.758l-0.324-0.746l-0.363-0.709l-0.383-0.711l-0.43-0.676l-0.455-0.654
	l-0.477-0.627l-0.512-0.607l-0.534-0.582l-0.558-0.561l-0.595-0.523l-0.615-0.5l-0.63-0.469l-0.662-0.43l-0.674-0.408l-0.71-0.361
	l-0.71-0.338l-0.743-0.305l-0.756-0.254l-0.77-0.234l-0.779-0.186l-0.803-0.141l-0.813-0.117l-0.827-0.059l-0.826-0.023
	L128.073,23.107z M128.469,29.471l-0.489,0.047l-0.476,0.059l-0.479,0.094l-0.465,0.115l-0.453,0.141l-0.443,0.162l-0.441,0.188
	l-0.43,0.197l-0.407,0.234l-0.407,0.244l-0.384,0.268l-0.385,0.291l-0.359,0.305l-0.351,0.326l-0.337,0.35l-0.314,0.359
	l-0.301,0.375l-0.291,0.385l-0.269,0.406l-0.243,0.42l-0.233,0.432l-0.21,0.441l-0.197,0.455l-0.175,0.479l-0.15,0.477l-0.128,0.49
	l-0.104,0.502l-0.083,0.512l-0.069,0.512l-0.035,0.525l-0.013,0.525l0.013,0.535l0.035,0.523l0.069,0.514l0.083,0.512l0.104,0.502
	l0.128,0.488l0.15,0.479l0.175,0.479l0.197,0.453l0.21,0.443l0.233,0.432l0.243,0.42l0.269,0.406l0.291,0.385l0.301,0.385
	l0.314,0.35l0.337,0.35l0.351,0.328l0.359,0.301l0.385,0.293l0.384,0.268l0.407,0.246l0.407,0.232l0.43,0.197l0.441,0.188
	l0.443,0.162l0.453,0.141l0.465,0.115l0.479,0.094l0.476,0.059l0.489,0.047l0.5,0.012l0.488-0.012l0.488-0.047l0.488-0.059
	l0.467-0.094l0.465-0.115l0.465-0.141l0.442-0.162l0.43-0.188l0.43-0.197l0.42-0.232l0.395-0.246l0.396-0.268l0.373-0.293
	l0.372-0.301l0.349-0.328l0.326-0.35l0.326-0.35l0.302-0.385l0.28-0.385l0.266-0.406l0.257-0.42l0.233-0.432l0.21-0.443l0.184-0.453
	l0.176-0.479l0.15-0.479l0.128-0.488l0.116-0.502l0.081-0.512l0.06-0.514l0.035-0.523l0.011-0.535l-0.011-0.525l-0.035-0.525
	l-0.06-0.512l-0.081-0.512l-0.116-0.502l-0.128-0.49l-0.15-0.477l-0.176-0.479l-0.184-0.455l-0.21-0.441l-0.233-0.432l-0.257-0.42
	l-0.266-0.406l-0.28-0.385l-0.302-0.375l-0.326-0.359l-0.326-0.35l-0.349-0.326l-0.372-0.305l-0.373-0.291l-0.396-0.268
	l-0.395-0.244l-0.42-0.234l-0.43-0.197l-0.43-0.188l-0.442-0.162l-0.465-0.141L130.9,29.67l-0.467-0.094l-0.488-0.059l-0.488-0.047
	l-0.488-0.01L128.469,29.471z M146.789,55.812h5.957V1.498h-5.957V55.812z M169.274,23.645l-0.814,0.07l-0.791,0.105l-0.791,0.139
	l-0.768,0.188l-0.756,0.219l-0.732,0.258l-0.732,0.303l-0.699,0.328l-0.686,0.361l-0.675,0.395l-0.64,0.432l-0.628,0.455
	l-0.605,0.488l-0.57,0.525l-0.559,0.535l-0.522,0.584l-0.5,0.594l-0.477,0.617l-0.443,0.652l-0.419,0.666l-0.383,0.686l-0.35,0.711
	l-0.313,0.734l-0.291,0.746l-0.244,0.77l-0.222,0.781l-0.173,0.791l-0.141,0.816l-0.104,0.816l-0.059,0.838l-0.021,0.852
	l0.021,0.838l0.059,0.84l0.104,0.826l0.141,0.816l0.173,0.793l0.222,0.779l0.244,0.77l0.291,0.746l0.313,0.725l0.35,0.709
	l0.383,0.699l0.419,0.664l0.443,0.641l0.477,0.629l0.5,0.596l0.522,0.57l0.559,0.547l0.57,0.514l0.605,0.488l0.628,0.467l0.64,0.42
	l0.675,0.396l0.686,0.373l0.699,0.326l0.732,0.291l0.732,0.27l0.756,0.221l0.768,0.174l0.791,0.152l0.791,0.104l0.814,0.059
	l0.814,0.023h0.36l0.35-0.012l0.348-0.023l0.35-0.023l0.35-0.033l0.348-0.049l0.338-0.057l0.35-0.061l0.337-0.057l0.338-0.07
	l0.325-0.08l0.337-0.094l0.325-0.094l0.326-0.105l0.314-0.104l0.325-0.117l0.315-0.117l0.314-0.127l0.302-0.141l0.302-0.141
	l0.302-0.15l0.304-0.152l0.29-0.164l0.302-0.162l0.28-0.174l0.29-0.176l0.28-0.186l0.268-0.197l0.278-0.199l0.268-0.199l0.257-0.209
	l0.269-0.209v2.844h6.011V24.006h-6.011v3.297l-0.269-0.209l-0.257-0.209l-0.268-0.199l-0.278-0.197l-0.268-0.186l-0.28-0.188
	l-0.29-0.176l-0.28-0.174l-0.302-0.176l-0.29-0.15l-0.304-0.164l-0.302-0.141l-0.302-0.139l-0.302-0.141l-0.314-0.127l-0.315-0.129
	l-0.325-0.104l-0.314-0.117l-0.326-0.094l-0.325-0.105l-0.337-0.082l-0.325-0.08l-0.338-0.07l-0.337-0.07l-0.35-0.057l-0.338-0.049
	l-0.348-0.047l-0.35-0.033l-0.35-0.023l-0.348-0.023l-0.35-0.012l-0.36-0.012L169.274,23.645z M169.658,29.914l-0.478,0.035
	l-0.465,0.07l-0.465,0.094l-0.465,0.104l-0.443,0.141l-0.44,0.162l-0.431,0.174l-0.42,0.211l-0.395,0.223l-0.396,0.244l-0.384,0.268
	l-0.372,0.279l-0.36,0.305l-0.338,0.324l-0.326,0.328l-0.313,0.361l-0.303,0.361l-0.279,0.383l-0.256,0.408l-0.257,0.408
	l-0.22,0.432l-0.21,0.43l-0.186,0.455l-0.175,0.455l-0.15,0.479l-0.118,0.477l-0.114,0.502l-0.083,0.5l-0.059,0.502l-0.033,0.523
	l-0.013,0.514l0.013,0.523l0.033,0.523l0.059,0.502l0.083,0.502l0.114,0.5l0.118,0.479l0.15,0.467l0.175,0.467l0.186,0.453
	l0.21,0.432l0.22,0.43l0.257,0.41l0.256,0.406l0.279,0.373l0.303,0.373l0.313,0.35l0.326,0.338l0.338,0.326l0.36,0.303l0.372,0.281
	l0.384,0.268l0.396,0.244l0.395,0.221l0.42,0.197l0.431,0.188l0.44,0.164l0.443,0.139l0.465,0.105l0.465,0.094l0.465,0.068
	l0.478,0.035l0.489,0.014l0.488-0.014l0.477-0.035l0.478-0.068l0.465-0.094l0.452-0.105l0.443-0.139l0.442-0.164l0.429-0.188
	l0.42-0.197l0.407-0.221l0.396-0.244l0.384-0.268l0.36-0.281l0.36-0.303l0.336-0.326l0.34-0.338l0.313-0.35l0.291-0.373l0.278-0.373
	l0.268-0.406l0.245-0.41l0.221-0.43l0.21-0.432l0.197-0.453l0.162-0.467l0.15-0.467l0.129-0.479l0.106-0.5l0.081-0.502l0.058-0.502
	l0.034-0.523l0.012-0.523l-0.012-0.514l-0.034-0.523l-0.058-0.502l-0.081-0.5l-0.106-0.502l-0.129-0.477l-0.15-0.479l-0.162-0.455
	l-0.197-0.455l-0.21-0.43l-0.221-0.432l-0.245-0.408l-0.268-0.408l-0.278-0.383l-0.291-0.361l-0.313-0.361l-0.34-0.328l-0.336-0.324
	l-0.36-0.305l-0.36-0.279l-0.384-0.268l-0.396-0.244l-0.407-0.223l-0.42-0.211l-0.429-0.174l-0.442-0.162l-0.443-0.141l-0.452-0.104
	l-0.465-0.094l-0.478-0.07l-0.477-0.035l-0.488-0.012L169.658,29.914z M192.072,1.889c-3.272,0-5.935,2.664-5.935,5.99
	c0,3.379,2.662,6.014,5.935,6.014c3.3,0,5.907-2.635,5.907-6.014c0-3.326-2.607-5.99-5.88-5.99H192.072z M192.1,2.824
	c2.66,0,4.789,2.262,4.789,5.082s-2.129,5.082-4.789,5.057c-2.663,0-4.817-2.236-4.817-5.084c0-2.793,2.154-5.055,4.79-5.055H192.1z
	 M190.954,8.492h0.745c0.852,0,1.277,0.316,1.438,1.168c0.133,0.881,0.294,1.49,0.452,1.705h1.118
	c-0.107-0.215-0.268-0.611-0.428-1.648c-0.132-0.986-0.531-1.518-1.116-1.625V8.039c0.72-0.215,1.304-0.746,1.304-1.623
	c0-0.639-0.212-1.09-0.613-1.385c-0.398-0.291-1.062-0.504-2.075-0.504c-0.797,0-1.331,0.078-1.888,0.158v6.68h1.063V8.492z
	 M190.954,5.404c0.187-0.027,0.427-0.055,0.773-0.055c1.195,0,1.622,0.588,1.622,1.172c0,0.824-0.746,1.145-1.622,1.145h-0.773
	V5.404z"/>
</svg>
