<?xml version="1.0" encoding="utf-8"?>
<!-- Generator: Adobe Illustrator 16.0.0, SVG Export Plug-In . SVG Version: 6.00 Build 0)  -->
<!DOCTYPE svg PUBLIC "-//W3C//DTD SVG 1.1//EN" "http://www.w3.org/Graphics/SVG/1.1/DTD/svg11.dtd">
<svg version="1.1" id="Layer_1" xmlns="http://www.w3.org/2000/svg" xmlns:xlink="http://www.w3.org/1999/xlink" x="0px" y="0px"
	 width="442.756px" height="162.64px" viewBox="0 0 442.756 162.64" enable-background="new 0 0 442.756 162.64"
	 xml:space="preserve">
<path d="M208.052,105.042c-5.76,0-12.119,1.44-14.999,5.04v49.438c0,1.801-0.72,3.12-2.76,3.12c-2.76,0-7.2-0.601-7.2-1.92v-53.398
	c1.8-7.56,13.56-10.919,24.119-10.919c3.84,0,9.36,0.48,10.32,1.8c0.6,1.8-0.12,3.36-0.6,4.08c-0.6,0.96-1.44,3.6-2.52,3.36
	C212.612,105.402,210.332,105.042,208.052,105.042z M269.971,154.84c0,6.6-26.998,7.8-31.198,7.8c-12.239,0-15.119-7.2-15.119-18.72
	c0-9.839,1.44-19.079,15-19.079c7.799,0,15.24,0.959,21.239,3.36c-0.12-17.399-2.521-23.279-13.919-23.279
	c-2.16,0-4.08,0.24-7.8,0.84l-5.04,0.84c-1.32,0.12-2.4-3.48-2.88-5.76c-0.36-1.68,0.6-2.52,2.04-2.88l3.6-0.72
	c3.12-0.48,6.72-0.84,11.279-0.84c15.24,0,22.799,8.88,22.799,23.519V154.84z M259.892,151.6v-14.52c-1.92-1.56-8.64-3.6-18.239-3.6
	c-5.64,0-7.68,3-7.799,9.48c0,6.6,1.2,11.159,6.72,11.159C249.932,154.12,256.653,152.68,259.892,151.6z M331.17,152.68
	c0,3-1.2,4.32-3.721,5.4c-8.158,3.959-20.879,4.56-27.357,4.56c-14.881,0-15-10.919-15-23.159v-20.159
	c0-12.119,0-22.919,14.879-22.919c7.561,0,14.76,1.08,21.24,4.68V73.003c0-2.04,3.239-3,5.52-3c2.52,0,4.439,0.96,4.439,2.04V152.68
	z M321.211,109.842c0-1.32-8.76-4.92-19.561-4.92c-5.879,0-6.479,5.52-6.479,13.2v18.359c0,9.84,0,17.64,6.6,17.64
	c9.84,0,17.879-2.399,19.439-3.24V109.842z M391.889,154.84c0,6.6-26.998,7.8-31.198,7.8c-12.239,0-15.119-7.2-15.119-18.72
	c0-9.839,1.44-19.079,14.999-19.079c7.8,0,15.24,0.959,21.239,3.36c-0.12-17.399-2.521-23.279-13.919-23.279
	c-2.16,0-4.08,0.24-7.801,0.84l-5.039,0.84c-1.32,0.12-2.4-3.48-2.88-5.76c-0.36-1.68,0.601-2.52,2.04-2.88l3.6-0.72
	c3.12-0.48,6.72-0.84,11.279-0.84c15.24,0,22.799,8.88,22.799,23.519V154.84z M381.81,151.6v-14.52c-1.92-1.56-8.64-3.6-18.239-3.6
	c-5.64,0-7.68,3-7.799,9.48c0,6.6,1.199,11.159,6.719,11.159C371.85,154.12,378.571,152.68,381.81,151.6z M433.049,105.042
	c-5.76,0-12.119,1.44-15,5.04v49.438c0,1.801-0.719,3.12-2.76,3.12c-2.76,0-7.199-0.601-7.199-1.92v-53.398
	c1.799-7.56,13.559-10.919,24.119-10.919c3.84,0,9.359,0.48,10.318,1.8c0.602,1.8-0.119,3.36-0.6,4.08
	c-0.6,0.96-1.439,3.6-2.52,3.36C437.61,105.402,435.329,105.042,433.049,105.042z M26.114,24.526
	C16.12,20.782,4.978,25.852,1.232,35.85s1.333,21.135,11.326,24.879c10.004,3.744,21.137-1.323,24.882-11.322
	C41.186,39.409,36.117,28.27,26.114,24.526 M101.269,20.356c3.042,1.141,6.431-0.403,7.57-3.447
	c1.141-3.042-0.407-6.434-3.449-7.572c-3.033-1.138-6.433,0.403-7.571,3.447C96.679,15.825,98.225,19.218,101.269,20.356
	 M65.07,21.161c5.647,2.117,11.946-0.749,14.064-6.398c2.116-5.652-0.754-11.948-6.401-14.066
	c-5.648-2.114-11.948,0.751-14.064,6.402C56.552,12.749,59.422,19.046,65.07,21.161 M125.509,113.793
	c-1.944-0.731-3.959-0.997-5.912-0.868c6.421-5.053,11.58-11.874,14.663-20.089c2.9-7.758,3.572-15.799,2.361-23.436
	c0.539,0.258,1.09,0.498,1.66,0.711c10.868,4.069,22.968-1.443,27.038-12.311c4.07-10.866-1.435-22.975-12.304-27.043
	c-10.868-4.07-22.979,1.441-27.049,12.309c-0.306,0.83-0.549,1.674-0.753,2.514c-4.793-5.296-10.889-9.564-18.033-12.242
	c-23.915-8.951-50.548,3.172-59.502,27.08c-8.956,23.907,3.175,50.547,27.079,59.501c2.667,0.994,5.363,1.715,8.06,2.205
	c-0.793,0.76-1.444,1.703-1.862,2.809c-1.454,3.91,0.52,8.271,4.438,9.738c3.907,1.463,8.273-0.521,9.738-4.432
	c0.988-2.631,0.397-5.461-1.271-7.478c5.078-0.323,10.045-1.488,14.685-3.397c-0.56,0.863-1.049,1.795-1.424,2.802
	c-2.769,7.386,0.986,15.623,8.374,18.39c7.39,2.768,15.622-0.982,18.39-8.371C136.652,124.795,132.907,116.562,125.509,113.793
	 M135.288,148.515c-2.157-0.807-4.569,0.291-5.372,2.445c-0.805,2.158,0.283,4.562,2.442,5.369c2.156,0.807,4.568-0.285,5.372-2.443
	C138.535,151.731,137.445,149.323,135.288,148.515 M160.913,91.153c-3.043-1.139-6.432,0.402-7.571,3.448
	c-1.14,3.041,0.407,6.431,3.449,7.571c3.044,1.138,6.433-0.404,7.572-3.446C165.502,95.681,163.956,92.292,160.913,91.153
	 M33.635,95.542c-3.054-1.14-6.442,0.403-7.582,3.446c-1.141,3.043,0.407,6.433,3.449,7.575c3.043,1.14,6.433-0.408,7.572-3.447
	C38.214,100.072,36.677,96.684,33.635,95.542"/>
</svg>
