<?xml version="1.0" encoding="utf-8"?>
<!-- Generator: Adobe Illustrator 16.0.0, SVG Export Plug-In . SVG Version: 6.00 Build 0)  -->
<!DOCTYPE svg PUBLIC "-//W3C//DTD SVG 1.1//EN" "http://www.w3.org/Graphics/SVG/1.1/DTD/svg11.dtd">
<svg version="1.1" id="Layer_1" xmlns="http://www.w3.org/2000/svg" xmlns:xlink="http://www.w3.org/1999/xlink" x="0px" y="0px"
	 width="300px" height="18.192px" viewBox="0 0 300 18.192" enable-background="new 0 0 300 18.192" xml:space="preserve">
<path d="M7.798,18.192c-4.006,0-6.732-1.456-7.798-4.288l4.471-1.484c0.52,1.613,1.87,2.132,3.584,2.132
	c1.691,0,2.651-0.781,2.651-1.925c0-3.611-10.242,0.886-10.242-7.145c0-3.276,3.225-5.51,7.383-5.51
	c3.948,0,6.291,1.093,7.306,3.042L11.203,4.99c-0.601-1.222-1.897-1.562-3.249-1.562c-1.457,0-2.289,0.574-2.289,1.562
	c0,2.96,10.293-1.066,10.293,6.938C15.959,15.696,12.71,18.192,7.798,18.192z M32.175,4.158h-4.834V17.88h-5.458V4.158h-5.041V0.285
	h15.83L32.175,4.158z M44.393,17.88l-1.406-4.209h-5.248l-1.382,4.209h-5.768l6.576-17.595h6.576l6.603,17.595H44.393z M40.519,4.65
	h-0.39l-1.718,5.693h3.873L40.519,4.65z M63.987,4.158h-4.834V17.88h-5.459V4.158h-5.041V0.285h15.826L63.987,4.158z M66.947,17.88
	V0.285h14.143v3.874h-8.657V7.04h6.732l-0.703,3.639h-6.029v3.354h8.657v3.847H66.947z M95.928,17.88l-6.134-9.122
	c-0.312-0.442-0.625-1.172-0.625-1.172l-0.105,0.055c0,0,0.105,0.57,0.105,1.816v8.423h-4.705V0.285h5.096l6.134,9.122
	c0.335,0.496,0.625,1.171,0.625,1.171l0.102-0.055c0,0-0.102-0.961-0.102-1.82V0.285h4.702V17.88H95.928z M111.753,18.192
	c-4.002,0-6.728-1.456-7.798-4.288l4.471-1.484c0.52,1.613,1.87,2.132,3.588,2.132c1.687,0,2.647-0.781,2.647-1.925
	c0-3.611-10.238,0.886-10.238-7.145c0-3.276,3.226-5.51,7.379-5.51c3.952,0,6.291,1.093,7.307,3.042l-3.952,1.976
	c-0.597-1.222-1.897-1.562-3.249-1.562c-1.457,0-2.284,0.574-2.284,1.562c0,2.96,10.289-1.066,10.289,6.938
	C119.914,15.696,116.666,18.192,111.753,18.192z M141.3,17.88l-5.037-7.692v7.692h-5.487V0.285h5.487v6.81l3.17-4.057
	c0.805-0.988,1.324-2.027,1.453-2.753h5.927c-0.105,0.91-0.836,2.261-2.03,3.612l-3.87,4.471l6.994,9.512H141.3z M157.162,18.192
	c-4.163,0-8.501-1.742-8.501-6.732V0.285h5.455v10.89c0,1.844,1.147,2.964,2.913,2.964c1.69,0,2.729-1.171,2.729-2.964V0.285h5.459
	V11.46C165.217,16.4,161.371,18.192,157.162,18.192z M180.965,17.88l-6.131-9.122c-0.312-0.442-0.624-1.172-0.624-1.172
	l-0.105,0.055c0,0,0.105,0.57,0.105,1.816v8.423h-4.705V0.285h5.095l6.131,9.122c0.34,0.496,0.625,1.171,0.625,1.171l0.101-0.055
	c0,0-0.101-0.961-0.101-1.82V0.285h4.705V17.88H180.965z M196.794,18.192c-4.006,0-6.731-1.456-7.798-4.288l4.472-1.484
	c0.52,1.613,1.87,2.132,3.585,2.132c1.69,0,2.65-0.781,2.65-1.925c0-3.611-10.242,0.886-10.242-7.145c0-3.276,3.226-5.51,7.385-5.51
	c3.947,0,6.29,1.093,7.306,3.042L200.2,4.99c-0.603-1.222-1.898-1.562-3.25-1.562c-1.456,0-2.288,0.574-2.288,1.562
	c0,2.96,10.293-1.066,10.293,6.938C204.955,15.696,201.707,18.192,196.794,18.192z M221.176,4.158h-4.834V17.88h-5.46V4.158h-5.044
	V0.285h15.829L221.176,4.158z M229.617,4.158v3.327h7.045l-0.754,3.791h-6.291v6.604h-5.481V0.285h13.877v3.874H229.617z
	 M249.32,18.192c-5.224,0-9.746-3.17-9.746-9.071c0-5.873,4.522-9.121,9.746-9.121c5.249,0,9.824,3.249,9.824,9.121
	C259.145,15.021,254.569,18.192,249.32,18.192z M249.372,4.002c-2.362,0-4.288,1.741-4.288,5.068c0,3.327,1.926,5.068,4.288,5.068
	c2.366,0,4.264-1.741,4.264-5.068C253.636,5.744,251.738,4.002,249.372,4.002z M273.463,17.88l-6.133-9.122
	c-0.313-0.442-0.625-1.172-0.625-1.172l-0.103,0.055c0,0,0.103,0.57,0.103,1.816v8.423h-4.702V0.285h5.093l6.134,9.122
	c0.34,0.496,0.621,1.171,0.621,1.171l0.105-0.055c0,0-0.105-0.961-0.105-1.82V0.285h4.709V17.88H273.463z M290.646,17.88h-7.799
	V0.285h7.799c6.134,0,9.354,2.808,9.354,8.759C300,14.994,296.803,17.88,290.646,17.88z M289.735,4.182h-1.406v9.824h1.406
	c3.662,0,4.649-1.921,4.649-5.014C294.385,5.376,292.983,4.182,289.735,4.182z"/>
</svg>
